/* XPM */
static char *_31b877d0c524e72dd2efa6c08557f85WWT9QmPM6K1uAunZ[] = {
/* columns rows colors chars-per-pixel */
"64 64 88 1 ",
"  c #5E5E56",
". c #5B5B5B",
"X c #605F54",
"o c #616056",
"O c #61615C",
"+ c #68685C",
"@ c #5F5F60",
"# c #636363",
"$ c #696966",
"% c #666668",
"& c #6C6C6B",
"* c #72726E",
"= c #6E6E74",
"- c #727275",
"; c #787877",
": c #75757A",
"> c #77787B",
", c #7C7C7D",
"< c #838376",
"1 c #87877F",
"2 c #87887D",
"3 c #7D7E82",
"4 c #7F8084",
"5 c #7F8088",
"6 c #828285",
"7 c #858887",
"8 c #898B84",
"9 c #848589",
"0 c #88878A",
"q c #87888A",
"w c #878A8B",
"e c #888888",
"r c #88888B",
"t c #8A8A8B",
"y c #8B8B8B",
"u c #888B8C",
"i c #898A8E",
"p c #8A8A8F",
"a c #8C8C8D",
"s c #8C8C8E",
"d c #8C8E8E",
"f c #8E8E8F",
"g c gray56",
"h c #8E908D",
"j c #8F908F",
"k c #93938C",
"l c #97988F",
"z c #98988F",
"x c #868790",
"c c #8C8D91",
"v c #8E8E90",
"b c #8F8F90",
"n c #8D8D92",
"m c #8F8F95",
"M c #8E9291",
"N c #8F9392",
"B c #8F9492",
"V c #8F9095",
"C c #909090",
"Z c #909091",
"A c gray57",
"S c #929292",
"D c #959591",
"F c #969693",
"G c #979793",
"H c #909094",
"J c #919294",
"K c #939394",
"L c #909096",
"P c #929297",
"I c #919594",
"U c #929694",
"Y c #939796",
"T c #949495",
"R c #949794",
"E c #969893",
"W c #939896",
"Q c #949997",
"! c #959A96",
"~ c #969B97",
"^ c #999990",
"/ c #999994",
"( c #989A94",
") c #959998",
"_ c #959A98",
"` c #969B98",
"' c #979C98",
"] c #989D9A",
/* pixels */
"SSSSSSSSSgSgSSSSVkvSSSSSkSSvvSSvSSSSSSSkSSgSG_''ISSkSSSSgSSvHHTP",
"SgggggggSgSgggggSvvSgggvvvgSgSkvgSvkvfvvgSgSW__'SSvvggggggSvIHPP",
"SggSjSggggSggggSgvkjggSgSgSgvggGvfSfvgSgggSgW_'_SSSvgSggSSgvHPHP",
"SSggggggggggggggggvVgvgSgvgSggggfSfSfSgSSgggW__'VgVSgSvlgggSHPHP",
"jgSge6667667e66966616q99000006i69909vPDPvgSSVSSSlklEEGQI818<:***",
"SSgge6141614666638446669909963333696vRPDSSggjkSjQW((__~Q1<<<+XXX",
"ggSS7131311166664,446966699963336966vPPGSgSgjSVjE/((~_'Q2<<<+oXX",
"Sggg76666666664643434466909963356559vDDPSgggSggkE/((~'_W2<<<+XXX",
"vDSvDDkGggvg96663::::::>4666kIRIPIIIu999q997q699kSkIQ__W,;:-#X#X",
"vvvvD/((Sgvv9639:===::-:3666V_______q44464463644vvvjQ'_R>--=#X#@",
"vDvD//((Svvg9393::=---:-,666jW/Q_''_u44446643436xlvSQ]_Q>-==@#X@",
"fvvvD/G(SgSgi999>::-::::3666VQQQ____q46444463666igDkQQ_I>--=#@X#",
"vDvf9666SQ__YYYYIBVWDISg643367e00xiyfSISq966gaaagvSvSSSSx996###X",
"vvvD6333S]______'_W~__Q]6,,,38366766V_''u696aggSkvgSSgkvSkkg%X.#",
"fvfD6333BQ______'_'__'Q_93,3366666e6BQ~~uq66agkgSgSgSgggfDSe%X#X",
"vDfv6333SQ____________Q/9>3>36466666V~~~u966ggvVggSgggSSgggi%#.#",
"vDDv9666906996x9xvSvvHHD955653536696D'___IIz_RG_SVHHH/QIe633%@@@",
"Svfv0660633644330vxxvHHvi66664636999VQ]__'_____'HmHH_'__6333%@%@",
"SvDS0906535333339vcxvHSVe56663639999B____']Q____PPHP_'__9333%%@%",
"kvvv0666633643339xiivvSgi696353669q9V_____Q___((mmmVQQQI9333%@%@",
"vDvD633,64,355656659gVkgggii9544iviSx9996767ee0e66666866,333=&&&",
"fvvv63,3,,,146665656ivSvgSgkq444iSgg93336,,,,3,6,,,,::,3833<=-*-",
"fSSv6>3,,43346664463eSggggSV9444ivgk63333<<,3145,,,,,3>>,3,,--**",
"kfvv43>3,,,366964766gggSSgjBq644gSvgi3433,33,845,,,,,,,,3333*&=*",
"vvSv3==-3355yfffVjVBgSggggSgUDBWSgggggiv969633353,,,1,,,,33,%%##",
"DvvS:===3566fDzPGDDSSggSSgSgW~''SgSgvSkf9999555531,3,,<,,,,,# #.",
"vSSf>===3966fPDPSVDBSgSggSggW~QQSSggSvkv06695555,113,<<,,,3>##@#",
"Dvvk:===3565sDPDGGISggjVggggW(QWIggSfvvv0999553533,4,,3,,33,%@#@",
"vvvv63333559sDDPgSSS0696q6667687vSSve661sggi4,,,>>,>::-:iSvv&%%$",
"vDDv93445595vvPvSggg964631413333ivkv6,3,eggv4,,>>>>>:--:gSSv=$$%",
"ffSv93344566vPDDgvSk966441333333yfvve33<eSgg,,,,:->:----gSSk&$$%",
"fSfk06446995vDPPSvvV969666611333skkf7,13eGgG6,,,33,3:::,gSHS&#$$",
"gSSgggggggggB~W'DgVvH_HRSfvv7463vSGHg90igggk9659vIIIIIIQQ/WW$###",
"gggggggjgSgg__'_SgSS/Q]_GGHS7,8,iGHDgiiiggSg9699H__''QQQ'Q_I$O#O",
"gggSgvVVggkg_Q_'DVvvQQ___HSG6162fSHHs00igggge595I_'_Q'__Q''D&.O@",
"vggSggmVggjVW~'_kjDHz___SSgG6346fDPzvisiggSSi999I'_'QQQWQQQG$#.#",
"vggSx3956699B~~'VSggHGHDi9666554H'__QQQ(SVjj0446I''QaiqivmVa#...",
"Vkggx3333644B~''WjgSSSPl93335555I_'_'___SjSj6644I__Qae8ivggx#...",
"vgSg93334664BQQWSggSSDPIx3393555V''''_'_SSSv6666I__'aye9vvvi....",
"SgSgx3964343jWWWSSggDPRHi5335966VWTHz'_'IjvD9789I''_ieeaicw6....",
"vvggvvvn33333334ekSgSSGVvxcxcvvv4>>>xEHGSvSgIQQQ'_'_VSSv6333## #",
"SSSgvVLL3=3%=3>:qvgSSSSSVwccVVjV3-::eHGSSvvkQ_Q]_'_'GGVk633>#O.#",
"lgggmVnL33::33-:iVkgSGGSVcccvvVv3:::9GHSSfvS____'_''GVDV6333%@X#",
"VggSmVmL3:3:3=33eBgSVIVGViixcvvv33>>iGGGkvigI(_Q_''WSSVV633,#X@#",
"SSSvI___Vaagq465DQQ_Q(__x9994666eaggD__'9434kSSG_'__jccc646>%X@#",
"kvggR___Dgjg9666V_'~QQ]_c6453333eVggRW'_7331vSISW_'_Vvcq4333#O.#",
"vvVgI___VgSvq566BWQ'''Q'w5666333ygSSG___94,,iSSS_'__vavx43,,%@#X",
"SvvlIG__VlSBx969BWQ_WDQQv9996456jjggB___7446eSggIIIBxvee7776##X#",
"SvSS6,,,gERPHHLHHHPGi060eSSHvvvvgSSjjVjS9444333356446667kllk$oO+",
"Sjgg,:--e/DGHHmLSGGS0306vRPRSSvHgggjjvkv74443>3>36446657lllk+++o",
"SgSg,-::iGGGLLxLHPPSe663fPP/ISgVgSVSSjgg64343,3344445666klll$oOO",
"SgSg,::3eDDSLLLLHvlGs6e0fPDPHHSDggqgggjS633333446q6qqqqqjkk8+OOo",
"Sggg93354434m____HPPSSSSz]'___Q'q66996e93:::4967W~____~W33>>@...",
"ggSg96553>3,mT__GRlvHHGI''___]Q]q6646666>:::4979D~'~~~'W34>:@...",
"SSggx3553333V___EHGHGSHHT___'__Qw59566e6>:::4977WW~_~'_W2,3-@...",
"gvgS93553333x___HggvvgcvvPIDIGIQx999qqqe6333quqhVBBjBBBV4434@...",
"gggG8,,,>><3qVvmq666:-:-::>>3939vvvHI___WQ~W_Q~Q93339999qqx5%##@",
"eggg633,,3,,9cxx9366:====-->3999cVHvR_'_''''''~~933396q9x5x9%#@@",
"ijgg7,1,,,,,xmmm9336:===----3369cvVv___]'Q~~'''~934399q9xxx5%#@%",
"kvgk6;>,,;;;3xx583,3-==%====>33,6q966777B''~j87q3:--::;;>>>>@@@@",
"i0i0-$$*%%%%%%%%$####@@#@###%#%%###O....6~~Q*+++.   ooOooOO.@@..",
"e00y-$$$%###%@@%#@OO@@@@@#########@@....7~~~*+++o   +o+o@OOO@@.@",
"e90e-$$$####%#%@#OOO#@@@@#@#####@@@@....7~~~*+++o   Ooo+oOOo@.@.",
"ssre-$$$####@@%%O@%.@@@@@########OO.....7'~z*++#    o+oO OO...@."
};
