/* XPM */
static char *_1dcce3aec2a4a8dc83dc0ba43450737ELGXfrccsIGIEwp4[] = {
/* columns rows colors chars-per-pixel */
"64 64 153 2 ",
"   c #5E3227",
".  c #5E362B",
"X  c #5F392D",
"o  c #5F3930",
"O  c #62362C",
"+  c #633A2E",
"@  c #693C2F",
"#  c #663530",
"$  c #653D32",
"%  c #6A3D32",
"&  c #663F38",
"*  c #723E31",
"=  c #654136",
"-  c #6A4135",
";  c #664138",
":  c #6A443B",
">  c #67493F",
",  c #6B483F",
"<  c #754436",
"1  c #7A4536",
"2  c #764936",
"3  c #794837",
"4  c #764639",
"5  c #7A4639",
"6  c #75493D",
"7  c #7C493B",
"8  c #6A4A42",
"9  c #764B40",
"0  c #7B4D41",
"q  c #7E5144",
"w  c #75594E",
"e  c #6F5C55",
"r  c #735751",
"t  c #745C55",
"y  c #7A5C54",
"u  c #745E58",
"i  c #795D59",
"p  c #7C6256",
"a  c #75605A",
"s  c #7B615B",
"d  c #804636",
"f  c #814837",
"g  c #81473A",
"h  c #834B3C",
"j  c #8A4C3C",
"k  c #914F3F",
"l  c #824D41",
"z  c #8B4E41",
"x  c #964F40",
"c  c #825244",
"v  c #8D5143",
"b  c #8F554A",
"n  c #945344",
"m  c #9B5546",
"M  c #9E5846",
"N  c #94564A",
"B  c #9A5648",
"V  c #9D594A",
"C  c #A45746",
"Z  c #A85746",
"A  c #A75847",
"S  c #A65847",
"D  c #A95847",
"F  c #A95847",
"G  c #A25648",
"H  c #A35748",
"J  c #A95648",
"K  c #A95749",
"L  c #A95749",
"P  c #A15849",
"I  c #A45848",
"U  c #A55848",
"Y  c #A75849",
"T  c #A65949",
"R  c #A6584B",
"E  c #A65A4A",
"W  c #A75A4A",
"Q  c #A75B4B",
"!  c #A55C4B",
"~  c #A45B4C",
"^  c #A4594A",
"/  c #A85948",
"(  c #AB5A49",
")  c #A95A4B",
"_  c #A85B4B",
"`  c #AA5B4A",
"'  c #A95A4D",
"]  c #A95C4C",
"[  c #A95D4F",
"{  c #A95949",
"}  c #84665C",
"|  c #83665E",
" . c #88675E",
".. c #86685E",
"X. c #87695F",
"o. c #84695E",
"O. c #896A5F",
"+. c #A3604D",
"@. c #846761",
"#. c #836761",
"$. c #836861",
"%. c #866860",
"&. c #866961",
"*. c #856862",
"=. c #846962",
"-. c #866963",
";. c #876A62",
":. c #836A66",
">. c #866B64",
",. c #836C66",
"<. c #876E67",
"1. c #856B64",
"2. c #8A6960",
"3. c #886A60",
"4. c #8B6B60",
"5. c #886A62",
"6. c #8D6B61",
"7. c #896C64",
"8. c #8B6D65",
"9. c #8C6E66",
"0. c #8A6C64",
"q. c #876E69",
"w. c #866F69",
"e. c #866E69",
"r. c #886F68",
"t. c #8A6F68",
"y. c #886F6A",
"u. c #896F69",
"i. c #867166",
"p. c #897167",
"a. c #897166",
"s. c #877068",
"d. c #87706A",
"f. c #87736C",
"g. c #86726A",
"h. c #897069",
"j. c #8B7069",
"k. c #88716B",
"l. c #8E7068",
"z. c #88746B",
"x. c #89726C",
"c. c #8A726B",
"v. c #8C796F",
"b. c #867770",
"n. c #8B7670",
"m. c #877A72",
"M. c #887972",
"N. c #8A7D75",
"B. c #8C7B74",
"V. c #8E7C78",
"C. c #927673",
"Z. c #907B76",
"A. c #917C79",
/* pixels */
"B B B B B B B N z l h c y a t s Q Q Q Q ` ` ' Q ` ` ` ~ G m N B B N B B B N B n c j h c a.p.l.l.+.Q U [ n M m m N m B B B B B B ",
"n n n n n n n x h j f q y i y i U C F F F C F C F C Q G m n n n n n n n N x x N h j j q O.p.y.9.Q Q J ' n M n m n n n n n N x x ",
"n n n n n N n n h h h 0 y t t i U Q ` J C C F ` S S Q G M n n n n n n n N N n n l h h q O.p.8.9.' J J U k k k n B n B n n N n N ",
"N n n n n n n n h h 0 0 y s i i N m B G G m m P G M G n n n n N n n n n x x x N h f 7 q 6.k.k.3.V B m m m n n n n v n v x x N x ",
"l j h j h h h h 7 1 5 0 } :.,.=.< * * * 5 g g 1 j j j j h j h j h h h j j j h j 5 5 1 0  .w.y.=.< - - 1 d j h j h h f j l h h j ",
"h h h 7 h h h f 4 1 4 0 3.k.k.>.& $ + % < 5 1 4 f f j f h f 7 h h h h g 5 h h 7 4 5 5 0 o.8.y.@.; % + - h h l h h 7 h h 7 h h h ",
"l l h h h h c l 5 1 4 6 3.d.k.=.: $ $ % 4 4 < 4 h h l l l h l h h l z j l l h h 4 5 4 0 X.k.y.@.: - $ - h j h 7 c h l h h l h h ",
"h h g h h 7 f f < < 4 9 >.w.k.>.% % + % * < < < j h g h h h h h h f g g g g g 5 4 < 1 6 =.k.w.#.% @ + @ 5 h g h f j h h h h 7 h ",
"- - % % $ + o $ X O + = z.N.M.z.& o o o o X $ $ 4 1 4 4 5 7 4 4 % % % $ $ + o o . X + = =.p.d.:.$ O O + 4 4 4 5 - % - % % % % - ",
"@ % + $ + O . + .   . ; k.V.V.z.$ # . . O O O O 1 4 4 4 5 5 5 4 % % % % + O O + + + o $ o.p.<.| $ O O O < 1 5 < % % % % % % % % ",
"% % $ + O O . O $ . . ; y.V.B.k.$ O . . O . + . < < 1 4 1 1 4 1 % % % $ O     . X . . & O.z.y.=.$ # O + < 4 1 * % + @ + + - + + ",
": - ; = $ $ o & o = = 8 y.V.V.n.: & & & $ & $ $ 9 9 9 9 9 9 6 6 & : & & ; ; ; = = $ $ 8 s d.d.:.8 ; & : , 9 9 6 = = = - - ; ; ; ",
"t t r t r r r r =.O.o.1.V.V.b.f.>.@.=.| t r r r r r r r r t r w r r r y s >.=.=.s =.@.-.V.V.V.M.=.#.#.s i y r y t y w w w w w y ",
"t t t t u e u u =.i.i.i.B.V.N.V.c.k.k.w.u e t t u u u u u e u u y i t u w.k.d.d.d.f.c.k.M.n.m.n.z.f.k.d.u t y t y u t u t a t t ",
"i t t i y t u a 8.p.p.p.v.V.M.M.y.9.y.>.i t u u t t u u y u u u t u t y w.y.>.i.<.8.k.k.z.B.B.V.y.y.y.w.i i u u y t u t a e a u ",
"p y y y y y i i >.8.=.8.l.C.v.z.3.3.3.@.i u i t u u y y i u u u y i t y 0.8.=.6.1.8.3.p.v.v.v.l.3.3.=.0.r i y u t y t t t t a e ",
"Q G V P P P P V N N n N B B V N c c h v n n n n h h 7 q a.1.8.y.M P Q m m N N n n N N N N N N N c c v c b N n n j 7 l l w e t e ",
"J Q C Q Q Q Q Q m n n n n N n n h h f j v n n n j g h q O.<.t.t.C D ` C m n n n n n n n B n B n h h j j v n n n l 7 l l y u i u ",
"F ` ` Q Z Z C C n n n n m n n n j h f j k n n n l j l q 6.8.p.t.! E ` G m n n n n n n n n n n x l f f j z n x N j h l 0 t e y e ",
"m m m m G S G G n n k n n n k k j j j h k v v k h 7 5 0 6.k.l.0.n M n n n n v n n n n n n n z x j h h j z x z x h 7 h 0 p a i a ",
"* < * < f j j h h h j j j l h j h h h h 7 7 g 5 % * % 6 =.w.f.>.< * * < 5 5 1 5 7 5 5 5 5 5 5 5 4 4 4 7 5 g 5 5 7 5 5 0 o.,.<.,.",
"+ - O % 7 l 7 h h h l h g h h h 7 l l h 5 2 1 4 $ + % ; =.f.e.#.: % + % 1 7 1 4 5 6 4 4 4 4 7 4 1 5 1 1 4 4 4 4 1 < 1 0 =.g.l.k.",
"- - + % 7 0 h h l h l l l h h l h h h 7 5 4 4 < % % % , =.d.e.@.: + o - < 5 4 < 4 4 4 7 4 4 4 1 1 4 4 4 4 4 4 9 < 2 1 0 1.d.y.<.",
"+ - % % g j f j h h f f h 5 g h f f f 3 3 < < < $ # % : =.k.y.=.- = + % * < < < 1 1 1 4 < 5 4 5 1 1 4 < 1 1 < 1 < < 1 6 O.i.8.d.",
"= % % + 4 < 5 5 j j h 7 < % $ & : - - % % % % + X O + - d.N.m.g.= + . o $ # $ O % % % % 4 4 < 5 4 4 4 < % % @ $ + . o ; >.i.d.k.",
"- @ @ @ 4 1 5 5 f f j 5 * + $ % @ + @ @ @ @ % % . O O $ f.V.B.f.% X . o . . O O + @ % % < 4 5 5 4 1 4 < % @ @ % + + o = =.8.<.7.",
"% + % % 5 4 7 4 h j l 5 * + $ $ % % % % $ + % @ o $ O = x.V.B.f.$ o . o o o o # $ % @ % 1 4 5 4 4 5 4 1 < @ % $ . . o ; } k.k.y.",
"8 : , 4 , 6 6 6 0 0 0 0 : $ & & = ; ; = : : : , o o $ 8 e.B.B.n.> $ = = = o & $ ; = - : , 9 6 6 9 9 4 : : = $ : = = o 8 =.d.k.k.",
"3.@.o.| i t y y i y y y r r t t t t r t #.=.=.%.<.3.o.o.V.N.m.f.8.=.@.3.:.#.>.#.y t r r y y y y r y r t w t r t o.o.| =.V.B.B.Z.",
"c.k.d.d.t t u t t r t t t u u e t t r p w.z.y.k.8.y.p.i.B.V.B.N.k.w.y.y.w.w.y.:.u u u e u e e u y t t y u t u i i.k.l.k.B.B.N.B.",
"t.y.8.<.t u t a t t u u e u u t i t t i <.y.<.y.y.l.i.p.B.V.n.V.k.<.p.y.8.y.y.8.u u t y u u t u t t t t t t t t 1.7.y.y.B.B.B.B.",
"9.6.7.8.y y i t t y i i u u u i y i y y 0.9.3.t.8.8.o.i.l.C.v.z.7.=.1.=.<.0.8.@.t y t t u u i u y y y y y y p p 7.7.8.8.l.n.v.v.",
"N B N n N b n n l h h q  .<.w.7.P G G P Q Q P E Q P ~ ~ B N b b 6 6 6 h b V n n 6 5 h 0 -.:.8.3.P G V P C P P V N N n N N N N N ",
"B n n n x n n n h h h c X.<.y.0.Q C Q Q Q S ` S C Q ~ P m n n N 7 7 4 7 v n n k 7 1 7 9 8.:.y.9.~ ` U Q C F S C n n n n n n n n ",
"B m n n n n n n c j h c 6.y.k.8.Q Q Q C C D ` S F C ~ U m x n x 5 5 1 h v n n n 6 4 7 9 8.w.y.0.' ` F F F F F F n n m n n n m n ",
"n n v x x n x z l f 7 c O.k.k.8.V B V m C m m G G m m B n n n n 5 4 1 g z n v v 4 < 4 6 0.y.y.3.B n m m m C m m n n n n n n n n ",
"h z h h h z j j 5 5 3 q o.p.8.3.h g g d d d 1 d d d g g 7 1 5 5 1 4 < 1 g 5 g 5 - @ < : =.,.8.7.< * * 1 1 d d g 5 4 5 4 3 1 5 4 ",
"h h h j h h h h 5 5 2 9 X.k.i.=.6 6 4 1 4 4 4 4 4 4 5 4 6 5 4 4 1 4 6 < 7 1 * 5 @ @ @ - =.g.d.o.; % @ - < < < 2 7 4 7 4 6 5 5 5 ",
"l l 0 h h l h h 6 < < 0 X.k.y.8.9 4 4 4 1 < 4 4 1 4 1 < 4 < < 4 1 6 < 6 5 5 7 4 - @ - ; =.d.k.o.; $ % % < < < 1 1 4 4 4 4 4 6 4 ",
"h f 7 f 7 f 7 f 4 < < 9 o.d.<.=.4 4 < 1 < 1 < 4 4 4 1 1 1 4 1 1 1 1 4 < 5 5 1 4 + + @ ; 1.f.k.o.: % + % < < < 1 1 1 1 1 < 1 < 1 ",
"- - - % % - + + o + $ & @.y.d.>.: % % % $ % $ = 4 < 4 1 4 1 1 < $ % % $ % % % % X + O ; z.M.N.z.; X X + $ + $ $ $ $ % $ % - - $ ",
"- + + @ + - - - $ . . & } 8.8.=.: % % % % $ % % < 2 4 4 5 4 5 1 % % % % % % % + . O   ; z.B.B.c.- . . + + % % % % $ % % + + + + ",
"% % % % + @ @ @ . . . $ } z.p.1.- $ + % % % % $ < 4 < 2 1 4 1 4 % % % # % $ % % o o . : k.B.B.d.+ O . + + % % % % % $ % % % % % ",
"; ; = : , - : : = = = 8 o.d.d.,.6 , : : ; ; ; $ 9 9 6 6 9 6 6 9 ; & ; ; ; = = ; o & $ 8 k.B.B.b.> ; = : ; ; & & & ; ; $ = = ; = ",
"t r t t o.=.o.=.=.o.=.>.M.V.V.n.>.>.>.s i t t t w w w w w w w w y t r y r t r t :.y.o.o.V.N.b.z.1.=.=.s u t r r r t t t t r r r ",
"u u u s <.k.k.p.p.l.c.k.n.m.n.V.k.k.k.:.a t t y t a a u a a e a u e u u e t u u >.k.i.d.V.B.V.V.z.z.z.i.u t t u u t t u u u e a ",
"u a r t 1.p.1.i.7.7.8.l.n.V.V.B.y.y.y.>.u t t t u t t a t e a u t u u u t t u i 7.c.8.z.n.V.B.v.<.<.k.=.i t u u u u u a a t a u ",
"i i y p 7.l.7.6.a.7.6.l.c.B.C.c.=.0.0.} s y i y i y t t t t t t y y y y i y i y -.9.1.p.l.C.v.k.3.0.6.=.i y i y y y y y i i i i ",
"N N n N V E E E [ Q Q ~ ! ! ~ V l 0 7 l m ' U P B n n N t t t t V m ~ m n N N n N n N N N N N N l 0 0 5 ~ G Q M m n N N 1.i.w.,.",
"N n n m P S Q D U Q S S Q Q U G 7 4 1 5 m ' C C n n z N t u i y Q Q ' U n n n n m n n n n n n n 4 4 6 d P F C G n v n N O.i.k.d.",
"n k x m G S Z Z F D Z Z S S C C 4 4 * g m ( ( J N n n N y y i w G C J G n n m n n n n n n n x x 3 < 4 d Q J ( J n N n N 7.d.k.y.",
"m n n m M m M C G m m C M C M n 5 7 5 g x m m m n n n z p a p y M m G m m n n n n n n n n n N z 5 4 4 g n m m m n v n b O.i.8.8.",
"j j h h d d 3 f d f d d f f d 1 5 5 5 0 f 5 g 5 h j h z o.>.8.o.h j j h 1 3 1 3 5 5 5 5 5 g 5 1 5 4 * 0 g g h g j h j z O.i.p.i.",
"l l c l 5 < < 5 < 5 1 4 2 < 3 1 4 5 0 * 4 < 1 1 j f f z <.y.l.7.c h l h 3 6 5 < 6 4 4 4 4 4 7 1 1 5 9 4 5 * < 4 j 7 j l O.i.k.p.",
"h h 7 7 5 < 4 6 6 1 < 4 6 < < 6 < 4 7 4 6 1 4 7 l h h l <.w.:.=.c 7 j 7 5 < 6 < 4 4 4 4 4 4 4 4 < 4 7 7 4 4 5 6 7 h j l 7.d.y.8.",
"f f f f 7 3 < 5 4 3 3 4 3 5 5 1 2 6 4 1 < 3 1 5 4 5 h l i.w.u.9.h g g g 3 1 3 5 5 5 5 5 4 5 4 4 3 < 4 4 1 1 5 1 7 6 f 0 i.k.y.k.",
"$ $ % % 0 5 5 j f h h g g h h h h h h h h j h g $ # $ = f.N.M.e.= $ O @ 3 f f h j h h h h h h h h g j j f h f g + % # & v.M.z.A.",
"- % @ * h h j g 7 h h 7 h 7 7 h 7 l h 7 h 7 h 7 + O O & f.V.B.b.= X O @ f h h h 7 h 7 l h h h h f 7 7 7 7 h h 7 O O # & k.V.M.A.",
"% % % % 0 j j h j h h l l g h l h g h h h l g l $ O . = e.V.M.x.$ O O @ 7 h h h l h h h h l h l j j h j h v j f % # O 8 p.V.N.V.",
", , : 4 9 9 0 0 0 l l l l l l l l l l h 0 l l l & $ & 8 g.B.B.b.> ; - - q q c c l l l l 0 l l l l 0 0 l c c c 0 = ; & 8 k.M.M.V.",
"@.=.@.} i y y y t t t y t w t w t w t t t w t t >.3.=.=.Z.V.M.b.<.o.=.} 8.X.6.X.y y t w w w t t t y w p =.8.7.7.v.z.k.k.Z.B.B.B.",
"k.k.d.w.a t y t u e t t t u a t u t t u a u t u >.8.p.k.Z.V.Z.B.f.g.k.d.k.<.p.<.u u u u a u u u e u u a ,.k.<.d.v.v.B.M.V.B.V.Z.",
"k.k.w.w.u u e u y y u t u t y t t u u u y y y u i.d.i.g.n.V.B.B.g.s k.d.i.<.g.i.u u u t y t y t t t t i w.u.7.t.N.M.B.N.N.B.B.B.",
"l.y.8.w.u u t u u e u e t u e u u u t u e e u a w.g.i.g.B.V.B.N.n.z.l.y.y.i.d.1.a u u u e u e u u a e u ,.k.e.k.Z.V.B.V.B.V.V.N."
};
