/* XPM */
static char *_a81bb9a7a5846459ac5ca97d9d62e18VH6dbS7Hx9EWKQHg[] = {
/* columns rows colors chars-per-pixel */
"64 64 256 2 ",
"   c black",
".  c #010101",
"X  c #020202",
"o  c gray1",
"O  c #040404",
"+  c gray2",
"@  c #060606",
"#  c #070707",
"$  c gray3",
"%  c #090909",
"&  c gray4",
"*  c #0B0B0B",
"=  c #0C0C0C",
"-  c gray5",
";  c #0E0E0E",
":  c gray6",
">  c #101010",
",  c #111111",
"<  c gray7",
"1  c #131313",
"2  c gray8",
"3  c #151515",
"4  c #161616",
"5  c gray9",
"6  c #181818",
"7  c #191919",
"8  c gray10",
"9  c #1B1B1B",
"0  c gray11",
"q  c #1D1D1D",
"w  c #1E1E1E",
"e  c gray12",
"r  c #202020",
"t  c gray13",
"y  c #222222",
"u  c #232323",
"i  c gray14",
"p  c #252525",
"a  c gray15",
"s  c #272727",
"d  c #282828",
"f  c gray16",
"g  c #2A2A2A",
"h  c gray17",
"j  c #2C2C2C",
"k  c #2D2D2D",
"l  c gray18",
"z  c #2F2F2F",
"x  c gray19",
"c  c #313131",
"v  c #323232",
"b  c gray20",
"n  c #343434",
"m  c #353535",
"M  c gray21",
"N  c #373737",
"B  c gray22",
"V  c #393939",
"C  c #3A3A3A",
"Z  c gray23",
"A  c #3C3C3C",
"S  c gray24",
"D  c #3E3E3E",
"F  c #3F3F3F",
"G  c gray25",
"H  c #414141",
"J  c gray26",
"K  c #434343",
"L  c #444444",
"P  c gray27",
"I  c #464646",
"U  c gray28",
"Y  c #484848",
"T  c #494949",
"R  c gray29",
"E  c #4B4B4B",
"W  c #4C4C4C",
"Q  c gray30",
"!  c #4E4E4E",
"~  c gray31",
"^  c #505050",
"/  c #515151",
"(  c gray32",
")  c #535353",
"_  c gray33",
"`  c #555555",
"'  c #565656",
"]  c gray34",
"[  c #585858",
"{  c gray35",
"}  c #5A5A5A",
"|  c #5B5B5B",
" . c gray36",
".. c #5D5D5D",
"X. c gray37",
"o. c #5F5F5F",
"O. c #606060",
"+. c gray38",
"@. c #626262",
"#. c gray39",
"$. c #646464",
"%. c #656565",
"&. c gray40",
"*. c #676767",
"=. c #686868",
"-. c DimGray",
";. c #6A6A6A",
":. c gray42",
">. c #6C6C6C",
",. c #6D6D6D",
"<. c gray43",
"1. c #6F6F6F",
"2. c gray44",
"3. c #717171",
"4. c #727272",
"5. c gray45",
"6. c #747474",
"7. c gray46",
"8. c #767676",
"9. c #777777",
"0. c gray47",
"q. c #797979",
"w. c gray48",
"e. c #7B7B7B",
"r. c #7C7C7C",
"t. c gray49",
"y. c #7E7E7E",
"u. c gray50",
"i. c #808080",
"p. c #818181",
"a. c gray51",
"s. c #838383",
"d. c #848484",
"f. c gray52",
"g. c #868686",
"h. c gray53",
"j. c #888888",
"k. c #898989",
"l. c gray54",
"z. c #8B8B8B",
"x. c gray55",
"c. c #8D8D8D",
"v. c #8E8E8E",
"b. c gray56",
"n. c #909090",
"m. c gray57",
"M. c #929292",
"N. c #939393",
"B. c gray58",
"V. c #959595",
"C. c gray59",
"Z. c #979797",
"A. c #989898",
"S. c gray60",
"D. c #9A9A9A",
"F. c #9B9B9B",
"G. c gray61",
"H. c #9D9D9D",
"J. c gray62",
"K. c #9F9F9F",
"L. c #A0A0A0",
"P. c gray63",
"I. c #A2A2A2",
"U. c gray64",
"Y. c #A4A4A4",
"T. c #A5A5A5",
"R. c gray65",
"E. c #A7A7A7",
"W. c gray66",
"Q. c #A9A9A9",
"!. c #AAAAAA",
"~. c gray67",
"^. c #ACACAC",
"/. c gray68",
"(. c #AEAEAE",
"). c #AFAFAF",
"_. c gray69",
"`. c #B1B1B1",
"'. c #B2B2B2",
"]. c gray70",
"[. c #B4B4B4",
"{. c gray71",
"}. c #B6B6B6",
"|. c #B7B7B7",
" X c gray72",
".X c #B9B9B9",
"XX c gray73",
"oX c #BBBBBB",
"OX c #BCBCBC",
"+X c gray74",
"@X c gray",
"#X c gray75",
"$X c #C0C0C0",
"%X c #C1C1C1",
"&X c gray76",
"*X c #C3C3C3",
"=X c gray77",
"-X c #C5C5C5",
";X c #C6C6C6",
":X c gray78",
">X c #C8C8C8",
",X c gray79",
"<X c #CACACA",
"1X c #CBCBCB",
"2X c gray80",
"3X c #CDCDCD",
"4X c #CECECE",
"5X c gray81",
"6X c #D0D0D0",
"7X c gray82",
"8X c #D2D2D2",
"9X c LightGray",
"0X c gray83",
"qX c #D5D5D5",
"wX c gray84",
"eX c #D7D7D7",
"rX c #D8D8D8",
"tX c gray85",
"yX c #DADADA",
"uX c gray86",
"iX c gainsboro",
"pX c #DDDDDD",
"aX c gray87",
"sX c #DFDFDF",
"dX c gray88",
"fX c #E1E1E1",
"gX c #E2E2E2",
"hX c gray89",
"jX c #E4E4E4",
"kX c gray90",
"lX c #E6E6E6",
"zX c #E7E7E7",
"xX c gray91",
"cX c #E9E9E9",
"vX c #EAEAEA",
"bX c gray92",
"nX c #ECECEC",
"mX c gray93",
"MX c #EEEEEE",
"NX c #EFEFEF",
"BX c gray94",
"VX c #F1F1F1",
"CX c gray95",
"ZX c #F3F3F3",
"AX c #F4F4F4",
"SX c gray96",
"DX c #F6F6F6",
"FX c gray97",
"GX c #F8F8F8",
"HX c #F9F9F9",
"JX c gray98",
"KX c #FBFBFB",
"LX c gray99",
"PX c #FDFDFD",
"IX c #FEFEFE",
"UX c white",
/* pixels */
"u.t.y.t.0.8.0.q.p.y.p.d.Q.].`.`.~.Q.~.T.h.i.p.p.4.5.<.8.P.^.W.Q.Y.U.U.J.f.u.y.t.=.%.$.&.:.>.>.>.X.| { | :.,.1.3.J.Q.Q.E.).].`.].",
"i.t.y.y.q.8.0.0.y.r.i.s.W.`.`.`.!.W.!.Y.h.y.u.t.4.4.2.6.L.W.Q.Q.Y.U.U.J.f.y.y.t.;.%.#.&.;.:.;.=.| } }  .:.,.2.7.H.E.E.R./._./.(.",
"u.t.t.t.0.8.9.9.u.t.p.d.W.`.`.'.~.W.!.Y.h.y.y.t.5.<.,.3.L.W.~.T.I.I.I.H.s.t.r.e.=.#.@.=.:.1.<.>.......| :.;.>.2.J.R.W.W._.]._.`.",
"i.t.y.y.w.q.w.q.i.t.i.s.E.`._.).!.R.E.I.g.y.u.u.7.5.6.r.G.W.!.E.U.Y.T.L.h.i.i.u.;.*.*.>.&.=.=.*. .| } { 3.3.4.5.J.U.Y.T.~./.^./.",
"V.N.B.B.M.M.M.n.y.q.w.t.Y.)./.~.N.v.b.z.2.;.,.<.C.J.F.D.n.b.z.n.Q.!.^.W.b.k.k.k.g.g.f.a.>.*.%.&.$.@.@.=.n.Z.S.Z.j.k.h.h.k.l.k.k.",
"D.A.S.S.A.S.S.C.e.7.8.w.U.).^.Q.v.j.j.f.:.&.;.,.K.~.Q.E.z.k.d.x./.(.`.^.B.v.v.b.v.b.b.k.-.O.X.+.#.O.+.-.F.Y.T.I.s.i.y.y.y.y.u.u.",
"F.S.S.S.S.F.D.C.t.9.0.e.U.(.^.Q.c.g.g.d.;.%.-.>.U.~.Q.E.z.j.d.j.^.(._.^.N.c.c.v.v.b.b.x.;.$.@.$.%.$.$.-.G.U.U.K.s.u.t.u.y.u.i.u.",
"D.A.A.A.Z.S.S.B.y.w.w.r.I.^.Q.W.v.h.h.f.>.&.-.>.K.E.~.R.l.g.j.c.!.^.).~.m.z.z.x.v.v.x.z.-.$.+.+.@.#.%.=.D.K.L.J.g.i.u.p.i.u.u.y.",
"s.g.f.a.f.d.d.h.n.m.N.B.j.l.k.h.s.s.p.y.1.>.>.2.L.!.E.Q.m.m.b.x.z.l.z.l.d.p.s.d.j.h.j.f.1.:.;.=.$.$.@.%.3.4.3.7.c.m.N.m.p.s.a.i.",
"t.y.r.e.r.r.r.t.V.Z.A.V.s.p.i.u.t.u.y.t.<.>.,.5.L.!.Q.~.B.B.N.M.p.y.u.i.t.t.u.i.s.d.h.d.1.:.:.:.#.&.%.#.@.o.O.*.n.V.Z.V.d.f.d.d.",
"y.y.r.y.y.i.u.p.V.S.F.Z.a.y.t.y.y.i.i.y.<.:.,.4.L.!.W.W.B.m.n.n.i.r.r.y.y.u.a.p.d.g.j.f.3.>.:.>.$.$.@.#.@.#.$.*.M.Z.S.B.d.p.p.p.",
"y.y.t.i.w.e.e.t.N.S.F.Z.s.u.u.i.u.u.y.r.<.>.>.2.P.Q.R.R.Z.N.M.M.d.p.p.p.u.u.i.y.a.s.a.p.2.>.:.,.;.=.&.=.+.#.@.@.b.N.B.n.g.s.s.s.",
"N.N.M.M.a.i.u.a.C.D.F.Z.a.y.t.t.9.8.6.8.>.,.>.1.f.x.j.z.g.d.d.d.k.k.l.h.p.y.y.r.7.7.5.6.>.>.>.2.v.M.B.x.>.@.@.%.,.2.4.2.3.3.4.4.",
"D.D.A.A.p.t.e.y.A.F.G.A.s.y.r.e.4.3.1.4.:.,.>.,.e.i.r.i.a.p.a.a.c.b.m.c.d.i.i.y.<.,.-.,.-.>.>.3.K.E.~.H.>.X.X.@.O.+.@.@.:.:.>.>.",
"D.S.Z.S.p.u.t.i.C.D.G.A.s.y.t.t.5.4.2.5.:.>.:.,.e.i.t.u.d.p.a.s.z.c.b.l.p.t.y.r.2.1.:.<.>.,.>.5.J.U.R.H.,.#.#.#.#.@.@.+.,.>.>.:.",
"F.S.C.F.a.a.u.a.N.A.F.Z.i.e.e.r.3.3.2.5.;.:.:.<.0.y.e.r.a.y.i.s.c.v.b.l.p.y.u.t.2.4.<.4.1.1.<.8.H.P.Y.F.:.#.$.#.@.+.+.O.<.>.>.,.",
"S.S.D.C.K.J.L.J.k.s.f.a.4.,.2.1.<.>.>.>.,.,.,.>.,.>.,.:.r.a.u.u.8.6.3.4.3.1.<.5.V.P.H.F.M.M.m.n.h.f.f.s.r.w.w.q.%.@.@.#.1.,.1.1.",
"F.S.D.D.E.!.~.E.d.t.r.w.2.>.,.;.>.:.:.:.:.:.:.:.;.=.;.-.w.u.r.e.;.>.:.:.>.;.>.5.I.(.~.W.J.G.D.A.s.p.p.p.y.y.y.r.;.$.#.$.2.1.1.>.",
"F.Z.Z.S.T.Q.W.U.p.u.i.w.3.:.<.<.>.,.,.,.>.>.>.>.=.%.-.:.e.p.i.u.<.2.1.,.1.;.:.4.J.Q.Q.W.H.F.S.A.i.t.t.y.y.u.u.r.$.o.o.@.<.2.3.<.",
"D.A.S.H.U.E.W.T.p.y.t.8.7.1.1.<.<.<.,.<.1.2.2.<.;.$.-.;.0.t.r.r.;.:.=.*.4.2.1.5.K.Q.Q.Q.G.A.A.Z.d.a.a.p.u.u.u.r.=.&.*.-.>.<.2.<.",
"J.G.F.Z.z.f.s.p.0.5.5.e.A.I.U.K.D.S.Z.S.J.P.K.F.,.#.%.#.>.<.<.,.>.:.;.2.z.n.m.N.F.P.K.H.z.f.f.f.x.z.z.k.a.u.i.u.t.y.y.q.,.-.;.;.",
"D.D.F.A.d.y.t.t.8.4.3.e.U.)._.~.T.U.I.Y.~._./.E.<.+.@.O.&.&.*.&.*.&.&.<.V.J.K.K.J.P.J.F.g.y.i.i.v.b.n.x.s.u.i.p.h.k.l.a.,.*.=.-.",
"J.J.J.F.s.r.w.q.2.2.4.q.I./.).).U.I.P.U.Q.).^.R.<.O.@.#.=.=.;.-.=.*.*.,.B.F.G.F.G.H.G.F.f.t.p.p.c.v.n.x.a.y.i.p.d.g.h.a.:.=.-.-.",
"F.S.S.S.s.y.r.e.7.5.3.9.Y.(.(.~.I.U.I.U.W./.~.R.1.O.$.$.=.=.-.=.*.=.-.,.N.A.D.F.G.H.G.G.f.t.p.a.c.v.n.x.s.u.i.p.g.g.g.a.:.;.-.*.",
"p.i.y.i.s.f.f.s.4.1.<.4.A.J.L.K.b.z.l.l.g.f.g.f.w.w.9.w.5.9.7.6.;.=.;.-.5.3.6.7.6.9.6.5.j.l.h.j.k.h.l.h.b.c.v.k.2.;.-.;.&.#.#.#.",
"q.8.8.w.p.g.g.d.3.>.;.2.C.J.J.F.f.p.u.y.w.q.q.0.r.t.r.u.q.e.q.q.:.=.*.%.:.*.*.&.%.=.=.>.j.b.b.b.l.j.l.j.n.b.n.z.:.$.@.$.@.+.@.@.",
"8.6.6.w.a.j.k.h.4.>.;.2.N.F.D.C.j.d.s.p.t.e.e.w.u.i.u.i.e.e.0.0.;.*.=.&.;.*.=.*.-.-.*.:.f.x.l.k.j.g.j.k.m.N.N.b.=.+.o.O.O.+.@.+.",
"w.0.0.e.p.f.f.d.2.<.<.7.m.A.D.S.s.u.y.y.w.0.q.0.e.r.w.e.r.t.w.e.>.>.1.,.:.-.:.:.%.%.%.:.d.z.c.c.g.g.h.h.l.x.c.z.;.%.$.$.#.#.#.#.",
"w.q.q.q.w.w.w.w.7.6.4.1.8.5.4.4.5.2.2.2.<.,.<.,.4.3.2.6.i.f.f.g.m.M.N.v.i.e.r.r.$.+.o...;.-.=.*.6.8.8.4.,.:.;.:.:.-.;.;.&.%.&.%.",
"w.q.q.0.8.7.7.8.4.6.6.3.2.>.>.1.,.;.:.,.:.:.>.>.>.:.;.1.a.k.z.x.H.K.L.D.g.i.i.u.+.X...| $.@.$.%.2.6.5.1.$.@.O.@.-.;.,.>.*.&.*.*.",
"w.w.q.q.0.0.0.0.7.8.8.5.<.:.;.:.<.:.>.,.>.:.,.>.>.>.>.1.d.j.k.z.S.D.F.A.d.a.p.u.O. ... .#.+.%.&.,.5.3.<.#.@.O.#.;.;.>.:.*.&.=.*.",
"q.9.9.9.q.w.w.q.9.9.8.7.4.3.2.2.1.>.,.<.>.:.>.>.<.2.2.3.g.j.k.z.F.F.G.S.f.d.a.y.%.O.O.o.$.@.%.%.2.6.3.2.$.%.@.$.,.>.>.:.*.*.=.&.",
"&.&.-.%.V.J.K.K.L.K.J.K.L.K.H.G.s.t.r.y.,.;.,.2.v.N.V.N.B.B.B.C.F.F.D.D.S.A.Z.Z.l.f.g.f.<.:.:.-.>.<.,.>.>.;.=.;.;.&.&.*.$.@.#.#.",
"+.+.%.*.H.^.(./.Q.Q.Q.Q.!.Q.W.E.j.p.y.i.1.>.<.2.B.D.G.D.A.C.V.A.G.G.G.G.G.F.D.D.B.m.M.c.5.>.,.>.;.>.>.>.,.,.:.,.&.#.$.%.@.+.@.@.",
"$.+.@.&.S.W.E.Y.!.!.!.!.~.!.!.Q.l.a.u.u.<.>.<.<.Z.H.J.F.S.V.B.Z.F.G.G.H.H.H.H.G.n.b.m.z.4.;.>.<.:.,.:.:.,.>.;.:.&.$.%.&.#.@.#.#.",
"+.o.#.-.A.Q.~.!.R.E.E.R.R.T.T.Y.j.d.a.p.<.>.,.,.M.C.Z.C.C.B.B.C.S.F.G.G.G.G.G.F.N.n.n.k.6.:.>.:.,.<.>.>.<.<.>.,.=.*.=.*.#.@.#.#.",
"%.@.$.@.i.j.g.g.c.v.v.x.l.k.j.k.k.k.l.h.3.>.,.,.3.4.4.5.0.w.e.t.S.F.G.G.G.G.F.S.p.t.u.i.r.e.y.t.>.,.>.<.6.8.8.0.d.d.f.a.r.w.e.w.",
"@.@.$.#.0.u.y.p.f.g.g.d.p.u.y.u.l.x.b.l.3.>.>.:.%.$.@.&.<.4.5.8.S.G.H.G.G.H.G.S.p.w.w.w.y.r.t.q.>.>.:.1.8.w.e.t.c.v.b.z.d.p.a.p.",
"@.+.$.$.0.u.y.p.h.j.j.f.p.u.u.i.k.x.v.j.2.>.>.;.=.*.&.-.2.5.6.9.Z.D.G.F.F.G.F.A.u.q.w.q.p.i.a.u.,.,.>.<.8.w.w.e.l.x.v.k.a.u.p.u.",
"$.+.@.$.9.u.t.y.g.j.j.f.p.u.u.i.j.l.z.g.2.<.<.>.=.-.=.:.1.2.2.6.B.Z.S.A.S.D.S.C.i.e.r.q.u.e.t.e.<.<.>.1.9.e.e.r.z.c.n.x.d.a.d.s.",
">.:.-.:.1.1.<.3.g.j.k.g.a.p.i.u.6.2.2.2.q.9.0.0.8.9.q.6.,.=.;.;.6.7.5.8.p.f.s.f.u.u.t.y.3.2.<.2.8.q.q.0.q.0.q.r.m.V.C.N.c.z.z.x.",
":.>.:.:.<.,.,.3.f.k.z.h.a.u.y.y.<.:.>.,.q.q.e.e.r.e.r.0.1.;.:.-.,.,.:.1.w.u.t.y.u.i.u.y.1.>.;.<.q.e.w.w.e.e.e.t.N.Z.A.B.b.x.c.c.",
">.<.>.:.>.;.-.,.d.j.z.j.a.y.t.y.1.,.>.>.w.q.0.q.w.0.w.9.>.;.;.=.>.>.;.2.r.a.p.p.t.i.u.r.2.:.;.1.9.0.0.q.q.e.e.t.B.Z.A.B.b.c.c.v.",
">.,.>.>.1.1.<.3.s.f.h.f.p.y.y.u.1.<.>.>.t.t.r.r.y.y.i.y.,.;.:.;.,.,.,.3.0.r.t.t.i.p.y.w.6.2.,.1.t.u.y.u.q.w.q.e.M.B.V.M.v.c.c.c.",
":.>.:.<.9.e.w.e.4.3.2.2.1.1.1.1.8.0.0.t.V.D.D.H.U.U.T.L.f.u.u.y.4.4.4.4.2.2.3.3.>.,.,.4.p.h.j.k.b.m.b.v.r.w.q.e.y.i.i.y.r.r.r.r.",
",.,.:.1.w.p.u.t.2.,.:.>.,.,.,.<.7.q.q.u.F.I.I.T./.)._.~.k.a.p.p.7.6.7.5.>.:.>.:.<.,.>.3.g.c.x.l.Z.S.A.C.y.e.q.e.w.r.t.e.w.e.e.e.",
"<.,.;.<.w.p.y.e.1.,.:.>.>.:.:.,.q.t.e.u.G.I.L.I.^./.).^.j.s.a.p.5.3.5.4.:.;.,.:.>.>.:.1.h.v.v.c.V.Z.C.C.r.r.w.e.q.e.e.q.q.w.w.q.",
";.;.-.<.e.s.p.y.3.2.1.1.<.:.:.,.7.w.0.r.F.I.K.I.^.^.(./.j.d.s.a.w.8.0.9.2.2.4.1.:.,.,.1.f.l.x.x.Z.A.V.C.t.t.w.e.e.r.e.w.w.e.e.w.",
"@.$.$.%.v.A.S.C.N.n.n.m.1.,.>.;.<.3.<.4.p.h.d.h.P.R.Y.P.N.v.z.v.H.K.P.K.H.J.H.Z.6.:.,.1.1.3.4.9.N.Z.A.C.d.d.s.s.k.k.l.g.y.w.e.e.",
"#.#.@.&.m.K.L.H.A.A.A.C.5.<.,.<.:.<.;.,.e.u.t.u.G.U.U.P.N.b.v.N.Q.!./.^.~./.^.E.9.,.>.,.>.<.<.3.n.V.Z.V.d.s.d.f.z.x.c.j.y.q.w.w.",
"#.@.O.&.n.J.L.G.G.F.G.C.5.;.;.:.:.,.:.1.w.u.y.p.G.U.U.P.M.b.c.N.W.Q.!.W.W.Q.E.U.7.:.;.;.;.>.>.1.B.A.D.C.h.d.d.f.c.v.b.l.y.q.w.e.",
"$.%.&.,.b.H.L.K.S.Z.Z.M.9.2.<.<.,.,.:.1.9.w.w.t.F.L.K.H.n.c.z.n.W.Q.W.E.Q.!.E.Y.7.,.1.<.:.,.,.2.n.N.B.n.j.f.f.f.z.z.z.h.y.q.w.w.",
"Z.S.C.B.I.Y.P.L.B.n.n.n.a.i.i.y.,.;.=.=.;.-.=.;.8.w.0.q.3.3.1.4.t.i.u.p.k.z.k.l.r.0.e.9.1.>.:.<.u.p.s.a.f.g.h.g.d.s.s.p.e.q.w.0.",
"L.Y.U.P.W.W.R.E.M.c.c.v.k.k.j.f.,.-.&.%.#.O.o.O.*.-.=.;.$.&.$.&.2.6.4.8.p.f.s.f.y.r.i.e.2.:.;.,.9.0.w.e.g.j.k.j.i.y.u.y.e.e.e.q.",
"U.T.U.I.T.R.Y.T.M.v.v.c.k.g.g.d.<.-.=.=.$.@.#.$.:.,.>.,.*.=.%.=.4.7.4.8.a.f.a.f.t.e.u.w.2.,.>.1.q.w.e.w.h.h.j.h.u.y.u.y.e.w.e.w.",
"K.K.F.H.I.R.Y.U.N.m.M.b.k.d.g.g.,.=.=.-.$.@.$.%.;.<.,.<.*.=.*.;.2.5.2.5.i.s.u.s.u.r.i.w.3.1.<.3.0.w.e.0.f.d.f.f.y.t.u.t.0.9.0.9.",
",.4.1.1.z.n.b.M.H.J.L.J.g.p.i.u.6.4.5.3.e.q.e.e.e.q.y.r.>.-.>.;.+.#.O.#.,.2.1.4.y.y.u.p.f.j.j.f.4.1.,.<.2.1.1.2.1.<.1.<.=.=.-.=.",
"%.*.#.*.d.x.x.v.L.I.Y.K.g.u.y.u.9.6.6.5.t.t.u.t.i.r.y.r.3.,.<.;.O.@.o.+.-.,.>.<.t.y.u.s.k.c.x.k.2.,.:.>.,.>.>.>.,.,.<.>.*.%.&.&.",
"=.*.#.-.d.c.c.v.H.P.U.H.f.y.y.u.8.5.6.8.y.i.a.i.t.t.i.e.2.;.>.>.X.o.X.+.=.>.>.<.r.r.y.s.l.v.c.l.2.,.>.>.,.>.:.:.,.>.,.-.&.@.@.@.",
"=.=.*.<.i.k.z.x.K.L.P.S.j.p.u.y.9.8.9.0.w.e.t.r.y.u.u.0.8.2.2.1.@.@.+.$.-.,.,.<.t.t.y.p.g.k.k.h.1.<.,.,.,.,.>.:.>.;.;.=.>.-.;.;.",
"a.a.u.r.9.5.2.3.q.w.y.i.s.g.j.g.y.t.t.e.4.3.3.2.:.=.-.2.z.V.C.m.t.w.q.w.e.t.t.e.1.1.<.<.1.1.2.3.r.r.r.t.t.t.r.e.=.$.%.=.q.q.e.w.",
"f.h.j.f.7.1.<.2.0.9.q.w.d.j.j.s.p.i.i.y.<.:.>.:.;.*.*.,.N.J.J.S.a.y.y.u.y.u.u.r.2.1.<.>.;.=.;.>.r.t.y.y.u.u.y.t.&.+.@.&.u.p.a.a.",
"h.h.j.f.1.;.-.:.5.6.8.8.s.g.j.d.i.u.u.y.,.>.>.:.%.*.=.:.M.F.H.F.a.y.u.p.u.i.a.y.1.,.>.:.-.*.=.;.t.u.i.i.i.p.i.y.*.+.@.%.i.u.p.p.",
"j.g.g.g.2.>.,.<.7.9.w.0.d.f.j.g.p.u.u.u.>.>.>.;.-.-.*.;.B.H.G.A.a.y.u.i.t.y.i.e.1.>.:.>.>.;.;.:.e.y.u.u.u.u.y.e.*.@.#.%.p.u.p.a."
};
