/* XPM */
static char *ccf6c1f585af4cddafbaca128f2a1ce3knKxJFInqrqmx0Rn[] = {
/* columns rows colors chars-per-pixel */
"64 64 246 2 ",
"   c #665E5E",
".  c #5B675D",
"X  c #5C715E",
"o  c #60605E",
"O  c #6A5F6B",
"+  c #5B6563",
"@  c #5D6963",
"#  c #5D6B6A",
"$  c #566A68",
"%  c #4C766E",
"&  c #54746C",
"*  c #57776A",
"=  c #586B71",
"-  c #4A7875",
";  c #547572",
":  c #5A7471",
">  c #567976",
",  c #4A6D6F",
"<  c #656565",
"1  c #6B6465",
"2  c #656A64",
"3  c #696A65",
"4  c #656569",
"5  c #6B656A",
"6  c #646C6B",
"7  c #6B6B6A",
"8  c #736364",
"9  c #72656A",
"0  c #736B6B",
"q  c #786968",
"w  c #64726B",
"e  c #6C746C",
"r  c #6B7A6E",
"t  c #687769",
"y  c #73736E",
"u  c #78776E",
"i  c #646D73",
"p  c #6C6D72",
"a  c #6D6473",
"s  c #736D73",
"d  c #7B6D75",
"f  c #786A76",
"g  c #657474",
"h  c #6D7473",
"j  c #6D7A74",
"k  c #6C737B",
"l  c #6C7B7A",
"z  c #657B79",
"x  c #737474",
"c  c #7A7474",
"v  c #737A75",
"b  c #7A7A76",
"n  c #747479",
"m  c #7B747A",
"M  c #747B7B",
"N  c #7C7D7D",
"B  c #826D75",
"V  c #836D79",
"C  c #847374",
"Z  c #837C75",
"A  c #82747C",
"S  c #837C7D",
"D  c #897C7D",
"F  c #8B747A",
"G  c #917D7E",
"H  c #57897A",
"J  c #6C837C",
"K  c #698577",
"L  c #75827D",
"P  c #7B827D",
"I  c #73897C",
"U  c #788173",
"Y  c #64816F",
"T  c #82817D",
"R  c #808074",
"E  c #3F7F81",
"W  c #597B82",
"Q  c #4E7D83",
"!  c #697B83",
"~  c #757D82",
"^  c #7D7E82",
"/  c #797986",
"(  c #657F90",
")  c #8A7683",
"_  c #847C82",
"`  c #8A7B84",
"'  c #857B89",
"]  c #8A7C89",
"[  c #857785",
"{  c #927884",
"}  c #3E8281",
"|  c #468383",
" . c #5C8786",
".. c #5D8D95",
"X. c #5A9293",
"o. c #549899",
"O. c #589590",
"+. c #6D8384",
"@. c #648B8B",
"#. c #6B8A8B",
"$. c #688787",
"%. c #758383",
"&. c #7C8282",
"*. c #728A84",
"=. c #7B8A85",
"-. c #7C858A",
";. c #748B8A",
":. c #7C8C8B",
">. c #75858A",
",. c #66918A",
"<. c #7A938A",
"1. c #648B94",
"2. c #778A93",
"3. c #689797",
"4. c #769B9C",
"5. c #799798",
"6. c #69A29A",
"7. c #74A39C",
"8. c #6D9BA4",
"9. c #749BA4",
"0. c #7B9BA2",
"q. c #56A9AC",
"w. c #78B6BC",
"e. c #70A3A6",
"r. c #5EC5B8",
"t. c #72BFC5",
"y. c #3FDEDA",
"u. c #3BE2DB",
"i. c #3EDEE3",
"p. c #3BE2E4",
"a. c #59D4CA",
"s. c #5DCDD5",
"d. c #43DEDB",
"f. c #4BDCDB",
"g. c #4BDAD4",
"h. c #5BD3D2",
"j. c #55DADC",
"k. c #58D7D9",
"l. c #54D2CE",
"z. c #64CCCA",
"x. c #68C7C6",
"c. c #74C5C8",
"v. c #63CDD4",
"b. c #67D5D5",
"n. c #7FDFD9",
"m. c #7DDDCF",
"M. c #43E3DD",
"N. c #49E3D9",
"B. c #5CF7DE",
"V. c #5AE3DC",
"C. c #78E6CD",
"Z. c #6EECD6",
"A. c #7BE6D6",
"S. c #68F5DC",
"D. c #74F5DA",
"F. c #6EE9CD",
"G. c #46DCE4",
"H. c #59DCE1",
"J. c #44E2E2",
"K. c #5DF5E7",
"L. c #5BF1F0",
"P. c #69EDE7",
"I. c #68F6E6",
"U. c #75F7E5",
"Y. c #6BEEEF",
"T. c #828282",
"R. c #8B8485",
"E. c #8C8C85",
"W. c #83828A",
"Q. c #848C8B",
"!. c #8D8D8C",
"~. c #898887",
"^. c #918D86",
"/. c #93878C",
"(. c #938C8C",
"). c #998C8D",
"_. c #988686",
"`. c #8B9186",
"'. c #85928C",
"]. c #8C928C",
"[. c #869486",
"{. c #92928C",
"}. c #959289",
"|. c #8C8D93",
" X c #878B94",
".X c #938D93",
"XX c #9A8C93",
"oX c #978894",
"OX c #849493",
"+X c #8C9393",
"@X c #8C929A",
"#X c #889899",
"$X c #919192",
"%X c #979397",
"&X c #A08994",
"*X c #829EA4",
"=X c #85A3A5",
"-X c #88DACC",
";X c #95D5CB",
":X c #8BDCD1",
">X c #97DBD3",
",X c #8BCCC7",
"<X c #AAD8C9",
"1X c #B6DAD8",
"2X c #ACD3D2",
"3X c #84E7D6",
"4X c #94E8DA",
"5X c #98F2DD",
"6X c #8CE1CE",
"7X c #AAE8DA",
"8X c #B5E8D9",
"9X c #A7F2DE",
"0X c #B5F0DA",
"qX c #94ECE7",
"wX c #88FAE7",
"eX c #94FEEC",
"rX c #9AFDEC",
"tX c #99F5E7",
"yX c #89FDF4",
"uX c #98FBF8",
"iX c #82E8E7",
"pX c #ADEBE6",
"aX c #A7E9E4",
"sX c #B2ECE5",
"dX c #B7E8E6",
"fX c #A5FBEB",
"gX c #A9F7E9",
"hX c #B6F6E9",
"jX c #A4FFF4",
"kX c #A9FCF7",
"lX c #B3FBFC",
"zX c #B7FAF9",
"xX c #B2ECF0",
"cX c #B6DFE1",
"vX c #D0DCDA",
"bX c #DAEBE7",
"nX c #C5F6E4",
"mX c #D5F3EB",
"MX c #C5FDF4",
"NX c #C4FEFE",
"BX c #CCFEFA",
"VX c #DBFDFA",
"CX c #D5FBF8",
"ZX c #CDEEED",
"AX c #E7F9F5",
"SX c #E1F1EB",
/* pixels */
"!.$X$X!.T.^ T T.N S N T.!.$X!.$X` W.M -.h n n p A B B B b I I I x m n n 6 < 3 < y u x u x y v j L L N S /.XXXX_.XX%X$X@X@X$X@X@X",
"!.$X!.!.T.N N &.N T.N &.!.$X!..X` ` ~ >.h m x n c d B B P L I L n n m n 6 6 6 2 u c x u y y e r L I P T (.XXXXoX.X.X|.|.|.|.|.|.",
"+X$X$X!.~.N N T.&.T.&.T.!.$X(.$XD R.&.T.n c p x x d B B M P &./ x x x h 2 @ 6 2 e x x x x x y v I K K P ~.E.(.(.+X+X+X+X@X.XoX%X",
"!.!.!.~.T.T.T.T.N S N S !.!.!.(.A A b M A N n M v m C C ^ =.' /.m x v v 6 6 w 6 x x c c y x y j I I I T !.(.(.E.!.'.'.'.!./././.",
"S T.T.T.N N N &.x v x x T.T.T.T 3 7 2 w R.^.Q.Q.'.Q.!..X X/.oX{ E.E.].~.P M P M ^ &.^ M y 3 3 3 2 2 O O 8 q q 5 T P P L M b c C ",
"N N S N N N S N x x s x N ^ N P < 2 @ w (.%X+XOXOX#X$X%X@X.X&XXX%X}.{.{.T.&.W.&.&.W._ M 0 < < 1 9 5 9 5 9 8 3 3 L L L M y y y y ",
"T.&.S &.T.T._ T.x c x x N T.N ^ w : # 4 XX).!.].OXOXOX+XOXOXoXXX^.T ^.(.S S _ ~ ~ ^ ^ M x 7 3 0 5 5 5 4 6 w # # P =.T.N x u c c ",
"N T.&.S N P N P x x x x N T.N L % > - & @X/.!.+X'.OXOXOXOXOX.X.X}.}.^.^.R.S ` ' _ W.&.M 7 3 2 7 p i : > - - - > J &.N N c x x u ",
"N N T.N x x x c 7 7 7 7 7 7 7 : -X:X:X>X! k n M N b T S 3 3 q q 3 3 7 1 V d V / d n k n N &.P I dXpXtX5X3XC.-X-X,.%._ _ ) _ ^ ^ ",
"T.T.T.S M x x x < < < < < < 7 ; n.Z.A.:X .g x x E.R F Z e 3 3   w 2 6 4 m V V d A m n M L &.P *.7XfXeXwXD.S.C.6XO.>.' ) ) ` ^ %.",
"N N N M x x 0 x 7 < 7 7 3 5 7 ; 3XU.U.3X .z k c A D G C 7 . 2 w = , = i / f ) V s 0 h x L P &.;.dXlXjXwXD.D.3X4X@.>.] ] ` ' &.-.",
"T.T.T.S M c M M 7 7 7 4 < < < & -Xn.:X,X@.n n m A D D u Y * * > | E Q > k s f q c c v M L &.T.:.1XpX9X5X3X3X6X;X$.-._ ) ) _ ^ %.",
"!.!.$X!.!.!.!.!.!.(.!.~.W.T.T.=.*X0.0.=X/ S S S T U M <.<X9X5X5Xz.z.t.=X9.2.~._ _.^.E.[.P N ^ ^ -.2.5.,.3.7.7.5.l n m c m x n l ",
"$X$X$X$X$X$X$X$X!.+X!.!.T.N N _  X XOXOX_ _ T.P ~.P M ,.aXjXeXyXj.j.b.c.1.>.^ b }.%X{.`.T.^ ^ ^ / m M ~ Q.#X+XQ.n x s x x s x x ",
"!.!.!.!.|.(.!.|.$X$X$X!.~.N P T.oX.XOX'.T.T P P v &.&.;.pXfXrXuXG.G.j.z.o.@.>.N ^.^.`.E.T.&._ W.&.&._ T.^.XX.X!.v v j x y u x c ",
"$X{.+X$X{.$X$X{.!..X!.!._ N S _ /.(.].[.T.N N P _ W.~ ~ dXxXaXtXk.g.s.c...#.&.N E.^.}.`.T S _ ] N P P S /.).XX^.x v h r v u d d ",
"x x x x S T.S S S _ T.S c x x c c y v v 2 < 7 9 O f 9 a / !  ...6.7.7.2.=.T.S N u t t l N ` { { .X!.+X!.M c c x N T &.N P N N T ",
"x M x x _ T.S _ S _ ` S c x x x b c 7 x 6 h < 1 0 0 9 9 n n g z <.OX].!.` D S Z v v l j N ' ) ) (.!.!.~.c x x s M P N N T.S N T.",
"x x x x N T S _ A S S S c x h x 7 M 6 v . w . # t # . 2 p x h 7 OX+X@X~.T.S P T e e j j M P P T .X|.$X!.N x x x S T.S N T.T.N _ ",
"x v x x T.T.T.T.N S N M m x x x h m p w j g & : * * * Y w x Z S !.|.|.~.T.N N P v j J J J *.,.*.Q.~.~.~.x x x x S &.N N ~.T.P T.",
"N T.N T !.!.!.!.T.T.&.T.P M L P p 4 a n vXmXmXnX0X0X8X<X[.b F F ` ' W.P M g j K bXbXmXnXsX9X9X7XJ M M c 7 5 5 7 x x x N ~.!.!.|.",
"P T.^ T.(..X!.|.T P N P &.P L &.a O 4 i SXVXVXMXhX9XhX0X*.N D { ` ^ ^ N l g z J mXVXVXMXhXjXfXgXz x x y < < 6 < 0 x 0 M ~.$X{.$X",
"N _ N _ !.!.!.!.P N N L L L I P 4 a a k mXCXNXNXfXgXkXsX@.%.' ' T.&.&.&.M j l ! bXVXVXNXlXkXuXxXJ x x x 7 5 7 7 x M x x !.].!.!.",
"N T N S !..X!.!.&.&.&.=.&.=.=.P k ! = W NXNXkXkXuXeXrXtXo.X.3.@.%.P M N M h k $.ZXBXNXlXkXuXyXtX$.x x x 6 < 7 3 x x s M E.%X.X+X",
"n x c m N T.T.T.&.P M =.bXSXSXmXcXsXaXqXwXD.D.I.I.S.I.P.k.l.s.c.5.[.].E.&.~ +.@.>XqXiXP.Z.G.f.h.@.T._ N T.N M S S N N ^ T T N &.",
"x y x x N S ^ P N N v Q.SXAXSXAXsXfXrXwXU.S.B.I.K.K.I.I.N.d.M.h.7.OX{.^.~.&.;.,.:Xn.Y.L.M.y.y.k. .T.N N T.T.N T.&.T.T.T.T.^ T _ ",
"x x x m S S T.T T.&.L '.bXAXAXVXhXjXjXwXU.S.I.I.P.P.Y.L.J.d.u.g.6.[.`.R.T.N +...:XwXU.K.J.M.M.h.@.T.S N T.N N N N S P N N &.N N ",
"c c c M b M N N v v M Q.vXSXSXmX7X7X5X5X3XA.A.3X3XiXY.n.b.l.j.z.3.[.`.^.R.&.%.#.:X:XA.b.h.a.l.t.#.T.M N ~.T.^ T.T.T.T.T.T.T.T.T.",
"x x x s 7 7 5 7 x x 3 6 Q.Q.&.%.Q.:.<.5.5.4.4.4.0.2.9.9.8.8.e.8.: w 7 7 1 1 5 i w : > W W ( ( ! k x x b ~.!.!.!.!.!.!.!.!.E.!.!.",
"x x s 7 7 1 < < o < + < L L L &.~ N N &.!.|..X X@X X+X+X X@X%X%X6 6 7 5 1 1 5 5 2 o 4 4 a / m s x x x m !.].!.$X.X{.+X$X$X$X+X.X",
"x x x x 7 5 5 7 < 5 3 7 M &.M L &.P N T.E.{.{.!.$XQ.'.].!.^.)._.O 5 5 < < 2 2 2 3 3 2 2 e v v r b x x x !.$X!.!.!.!.!.!.].!.!.!.",
"x m m h g : : : ; ; % : L =.&.&.%.L P T.R.^.^.].].[.[.`.E.^._.T s s h g * > * t 2 3 3 3 e j Y j x x s M !.$X+X$X(.].(.]..X.X].$X",
"|.oX.XOX8XaXtXtXC.C.C.6X .-._ _ |.|. X XR._ P I r t x u 3 2 8 x vXmXZXZX7X5X7X8XW.) ] _ m m M l ^ _ _ &.^ N P P {.E.{.E.M x x v ",
"|. X.X#XpXfXrXeXZ.D.D.3X,.>._ ` oX|.+XQ.W.S P P M x y 0 e 3 < 6 mXCXVXMXrXrXgXdX2.' ' [ m f x h ^ / ^ ^ &.P P P ].^.{.E.b y v x ",
"@X|.%X#XdXhXkXgX3X3X3X3X@.M m S oX%X#X].&.N M L e c C s 6 @ # h mXVXAXCXzXkXgXdX,.%.=.I V C F Z S N N ^ L L L P !.E.$XR.x y y e ",
":.~.|.%X1XdXdXhX4X6X6X,X<.=.W.R./.!.[.=.P N P N x c A a z ; - > zXzXNXlXuXuXuXtXo.O.O.K h 0 d q S P P P &.P &.&.+X!.$X!.N u b v ",
"=.=.&.N OX>.>.>.#X4.7.7.J M M c q 8 9 x N T P ^ m s f ^ 2XsXgXqXb.H.H.H.f.d.d.f.g.g.a.r.3.%.T.T E.E.E.].Q.].+XQ.+X+X$XE.S N T b ",
"J L ~ N -.&.~ -.#X5.5.5.=.T.~.W.8 O   3 c R.T.S A d f >.7XzXkXyXf.p.i.i.p.p.p.p.u.u.N.r.O.! M S {.{.{.{.{.+X$X@X+X X%X|.T.T T T ",
"I P _ _ _ _ _ _ .X X].'.&.N N N 7 6 $ g N _ ^ N s s m ! 7XgXjXuXf.G.i.i.i.G.G.J.u.M.f.x.3.>.W.R.E.^.^.{.(.(.|.|..X|.@X!.T.T T T ",
"L L N N _ ` _ ' .X.X|.[.T.N S P ; % % ; l _ ^ ^ m n n z 7XpXgX4Xz.s.s.H.H.s.v.s.k.h.z.w.5./ _ D ^.^.^.}.XX.XXX.X%X|.+X!.P P T b ",
"2 2 < 5 S R._ _ n x x c S T.R.L -X3X-X-X$.l k n 6 4 5 6 : & * : z  . .H 9.8.9.9.8.8.7.*X4 8 9 3 3 7 0 1 /.) ) ` n n n l x x r x ",
"7 0 7 7 S T N N x x x M S T.S %.3XD.A.:X .g i n @ < 5 < @ @ 2 8 d u j : +X@X.X X#X5.W.!.3 9 2 . # # 4 4 ` ) ) ) f n h n j h j u ",
"8 1 < 6 M T.L %.g x x c N T _ *.:XU.iX:X@.k k ^ 2 2 3 3 w 2 8 8 C q t r ].).XX%X|.oXXX/.7 @ $ % % - = = ' ` ) ` f x x x j h h h ",
"8 0 2 6 N P P %.l v m A N T S %.-XA.-X,X#.n p h 6 6 3 3 2 2 q 8 C u u I ~.R.^.^.XXXXXX] ! - - Q } Q W W ~ / [ A A b b v l h v x ",
"A ` L M S _ L L L M S S N P S %. .O.X.4. XoX%X@X].+XE.].<.'.!.^.E.[.<.:.M h w 7 N d m W.1XxXxXaXz.z.t.w.*X@X@XXX^.R.E.~.P P ^ ^ ",
"` ~.&.P R.S N L &.T.S S %.L ^ &.;.>.J :./.XX(.~.].].$X!.'.'.!.|.+X+XOX:.6 + . X c a s ! aXxXlXuXk.j.v.t.8.5. X^.}.}.].`.T.T._ W.",
"A &.%.M _ _ P &.P S ` _ L %.~ ^ ^ ^ M &.(.XX$X(.{.$XXXXX+X+X$X.X|.|.|.|.8 3 X X t e v K aXtXjXuXd.G.H.v.8.7.+X{.^.^.{.E.T.N _ ' ",
"S ' &.L T.N N &.N S ` ` M L &.T.c S P S ^.).^.{.!.(..X(.|.+X|. X@X#XOXOX7 t X * K Y Y H eXyXeXU.J.p.f.b.q.q.6.5.[.{.}.E.T.^ _ W.",
"A D T.M x h l l x x s s s s 5 5 1 3 3 3 ^.).(.(.{..X+X~.~ h k l cXaXhXsXmXmXnXnX7X7X7XgXZ.S.I.I.K.K.L.L.G.l.b.c.1.' T D c x n m ",
"` T T.P v l l v x n n s 5 5 < 5 + + < < ^.^.(.XX!.(.+XQ.M x M +.pXfXjXgXBXCXBXzXhXgXxXjXZ.S.P.S.I.B.L.L.p.G.H.v...>.T F b e x n ",
"S N N M x h h s h x x p g @ $ : = i i p .XoX.XXX!.%X$X~.v x x J dXfXjXfXCXCXNXNXlXkXkXkXD.I.U.S.I.K.I.I.J.M.k.z.X.*.P U U r h n ",
"N T &.S M x m m m m k w J > % - Q , > W -. X@X%X(.].!.~.N y x L 1X7XaXgXzXlXlXlXuXuXuXuXn.C.C.C.F.F.Z.Z.b.a.z.c.@.L L U Y r x M ",
"'.|.!.!.E.(././.m m ~ <.<X7X7XtXb.b.c.w.8.2.~ _ _ D S T T U U P ].'.#Xe.x.h.V.f.G.g.l.s.o.3.,.,.H K $. .......1.&.Z Z R U b N Z ",
"+XOX+X$X.XXXXXXX/._ %.<.8XhXgXeXl.f.h.x.o.@.>.W.D A Z Z T T L P `.E.+X7.a.N.N.G.G.G.y.l.o.>.+.J w r s n / / / ' S G Z R R R S D ",
"].!.Q.!.(.(.)./.` N ~ ;.0XhXhXeXg.N.k.z.o.@.+.S T G Z D P U P L OXQ.+X4.a.N.N.d.d.d.y.a.1.>.*.L t U c d ' ' / _ S A Z R R D D G ",
"{.!.+X!..X!..X/._ N &.%.8X8X0X5Xa.k.z.c...@.%.P D R T T N P &.=.].[.Q.4.c.a.v.a.a.z.a.r.#.~ M P t u y y ] ] [ ' S T R b S S F ) ",
"N _ _ N v x x M x x n l *.#.,.,.8.8.9.0. XOX].].{.T }.].P S ' N R.S _ -.5.0.9.9.8.9.0.5.' ' _ ` r t r e x s n x g j w j L N _ ^ ",
"S S T N x h x x k x k n %.%.*.%.@X@XoX@X.X|.].`.[.[.].{.T _ ` ` ) _ ~ _ /..X@X X+X.XoXoX] [ ) ) j r j h m n n n j z z z %.=._ -.",
"D ` S N M h h l h x x n ^ _ ^ ^ oX.X.X).(.(.{.`.[.[.OX'.P N ' ` _ _ ~ W.(.{.].'.].]..X).W._ ' ) c c c d d B B m j j g j N &.-.^ ",
"` D S N M M l M n x m m _ _ _ _ ^.E.^.{.^.^.^.!.[.].'.Q.T._ T._ ' ^ -.=.!.E.`.[.`.E.^.R.T.&.' ` B c c c d m B d n l ~ / _ ' ^ -.",
"S S S P N M L M N N [ [ ` _ _ _ I I I P T.T _ _ P N n P Q.].].!.&.~ N ^ S T.T T T T R.T.N N ^ ^ ^ M %.J P N S S Q.!. X/.oX)._..X",
"S _ P _ &.P &._ ^ S ` _ _ _ _ &.K K I L &.^ [ [ n x h n ].$X].].L %.N ^ &.S S T S S T T ^ N N &.^ -.J *.L P P T @X+X.XXX&X).(.].",
"S ^ &.N &.P ^ _ _ ` _ _ ^ ^ -.N N N S ' ` _ ' ' m / p M E.{.E.^.T P P &._ _ W.&.-.^ _ T.&.P P T.` ` %.L U P S Z ].!.(.).).}.[.[.",
"T.T &.P N &.N _ A S ` A _ ^ &.%.N S ` ` ) [ ' ' a / n n ].}.E.}.Z N L %.^ _ ~ -./ &.^ S L L b S { ) P L P T R S ].].$X{.}.].[.<."
};
