/* XPM */
static char *_bb1fe5070574285c059b09dfbde508775TR9O3zW3Fq5q9r[] = {
/* columns rows colors chars-per-pixel */
"64 64 193 2 ",
"   c #664D2F",
".  c #664C35",
"X  c #6A4C35",
"o  c #674B39",
"O  c #6B4D3B",
"+  c #714E3B",
"@  c #665134",
"#  c #6A5235",
"$  c #67523B",
"%  c #6C523B",
"&  c #6B5A39",
"*  c #715237",
"=  c #73523D",
"-  c #79543D",
";  c #7C583D",
":  c #6E4E41",
">  c #714E41",
",  c #675445",
"<  c #6D5241",
"1  c #735341",
"2  c #7A5542",
"3  c #7B5842",
"4  c #70554A",
"5  c #8D6647",
"6  c #86634C",
"7  c #8A654D",
"8  c #8C694E",
"9  c #90664D",
"0  c #926A4E",
"q  c #9A6F4E",
"w  c #96724E",
"e  c #9C714E",
"r  c #876450",
"t  c #8A6651",
"y  c #8C6951",
"u  c #906751",
"i  c #946B52",
"p  c #9A6F53",
"a  c #967155",
"s  c #9D7354",
"d  c #977258",
"f  c #9D7459",
"g  c #977859",
"h  c #9E7859",
"j  c #A06F4F",
"k  c #A1704F",
"l  c #A27555",
"z  c #A57856",
"x  c #A97B57",
"c  c #A37659",
"v  c #A3785A",
"b  c #A37B61",
"n  c #669C3F",
"m  c #689B3F",
"M  c #6C8C4D",
"N  c #708B48",
"B  c #669641",
"V  c #6C9645",
"C  c #679C42",
"Z  c #6C9B45",
"A  c #679648",
"S  c #6D9649",
"D  c #679849",
"F  c #6D9B49",
"G  c #719647",
"H  c #729C44",
"J  c #719648",
"K  c #729C4A",
"L  c #799F4D",
"P  c #729D51",
"I  c #789F50",
"U  c #67A041",
"Y  c #6DA145",
"T  c #6EAA46",
"R  c #6FA549",
"E  c #6EAA48",
"W  c #73A346",
"Q  c #78A747",
"!  c #74AA46",
"~  c #78A945",
"^  c #71A14D",
"/  c #74A14C",
"(  c #74A14E",
")  c #72A74D",
"_  c #74A54C",
"`  c #76A44C",
"'  c #76A74C",
"]  c #74A44E",
"[  c #75A74E",
"{  c #76A74E",
"}  c #75A64D",
"|  c #74A44A",
" . c #7BA34B",
".. c #78A548",
"X. c #79A649",
"o. c #78A749",
"O. c #78A54A",
"+. c #79A64B",
"@. c #7AA74A",
"#. c #78A64C",
"$. c #7AA74C",
"%. c #7BA64D",
"&. c #79A54E",
"*. c #78A64E",
"=. c #7BA74F",
"-. c #78A44D",
";. c #7CA44C",
":. c #79A54C",
">. c #71A948",
",. c #72A848",
"<. c #73A94B",
"1. c #72A84A",
"2. c #73AB4A",
"3. c #71AA49",
"4. c #75A84B",
"5. c #76A94A",
"6. c #74AA4A",
"7. c #77AA4B",
"8. c #73AF4B",
"9. c #75AD4A",
"0. c #75AF4B",
"q. c #76AE4B",
"w. c #77AD4B",
"e. c #73A84C",
"r. c #77A84C",
"t. c #74AA4C",
"y. c #76A84F",
"u. c #76A94D",
"i. c #77AE4E",
"p. c #74AB4B",
"a. c #79A84A",
"s. c #78AA4B",
"d. c #79AB4A",
"f. c #79AD49",
"g. c #7BAD4A",
"h. c #7AAD4A",
"j. c #79A84C",
"k. c #7AA94D",
"l. c #79AB4C",
"z. c #78A94E",
"x. c #7BA94F",
"c. c #79AA4E",
"v. c #7BAA4D",
"b. c #7CA94C",
"n. c #7CAB4F",
"m. c #7CAB4D",
"M. c #7BAD4E",
"N. c #7BAD4E",
"B. c #79AA4D",
"V. c #73B146",
"C. c #74B04C",
"Z. c #76B049",
"A. c #7AB04E",
"S. c #79B04B",
"D. c #75A453",
"F. c #73A754",
"G. c #77A655",
"H. c #74A650",
"J. c #7BA750",
"K. c #77A950",
"L. c #7AAB50",
"P. c #7DAB51",
"I. c #79AD50",
"U. c #7DAF50",
"Y. c #7BAA51",
"T. c #7DB051",
"R. c #BB8E6D",
"E. c #BE916C",
"W. c #BF9471",
"Q. c #C08F67",
"!. c #C58F69",
"~. c #C59266",
"^. c #CA9366",
"/. c #C5946B",
"(. c #CA966C",
"). c #C6986E",
"_. c #CD996D",
"`. c #D0976B",
"'. c #D19B6E",
"]. c #C59671",
"[. c #CC9672",
"{. c #CD9A71",
"}. c #C89E78",
"|. c #D19771",
" X c #D19B72",
".X c #D3A075",
"XX c #879391",
"oX c #8C9494",
"OX c #85969B",
"+X c #88979A",
"@X c #86999C",
"#X c #8A9A9C",
"$X c #849CA3",
/* pixels */
"Z Y m Y V J Z Z l.h.f.l.Z S J Z ....l.l.l.C.C.3.T Y Y Y J J J S 5.4...[ Z D Y Y / [ -.D.~ | [ ! Z C Z C Z V V S / [ *...V S V Z ",
"Y Z Y Z Z J J S 5.h.f.m.V J J K ..d...l.C.C.C.C.Y W Y | Z J J J | | / [ Z Y D D [ [ | H.f.l...! C V F D D V S J l.d.d.[ V D D V ",
"Z Y m Y V S S J l.h.h.l.Z V Z V ......l.q.C.C.q.W Y Y H Z G J J 4.4.J.^ R D R D ..[ 4.G.W ~ ! ..C Z Z D S S V S ......[ Z D S F ",
"H m W H Z S S S l.h.d.d.H Z Z H 5.l.l.l.i.q.q.C.W R Y W Z G J H ..[ ..R U Y Y Y ^ / ^ K ~ ~ W ~ Z Z Z Z V V V V H.[ 4.) Z V F V ",
"! W W W Z J S Z e.,.,.4.,.| | | K.l.L.4.3.,.>.T R R Y R Z Z J Z ....*.l.F.I.I.I.% # # & V C D V 4.[ *.*.*.%.J.J.| F | ^ *.*.J.*.",
"~ ~ ,.| Z H H Z e.e.e.e.,.,.,.,.L.4.l.4.5.>.>.| R R R R Z S Z Z ..L ~ ..i.i.T.i.% X X @ B C C B ..l.m.%.P.P.P.P.^ ^ K | *...*...",
"........H Z H H 4.K.e.) | T E ,.l.L.L.l.8.e.5.5.R R R R Z Z Z Z -. .*...l.L.T.5.$ o X O B B C V ..%.m.%.l.P.P.m.R F F K l.@.m.%.",
"........Z J S Z | ^ | | | ,.| e.H.L.*.[ | T W ! e.R E ) Z Z Z H ..L *...l...d.,.% o . O B V B D ..*.*.*.J.P.P.m.| | | K m.%.%.%.",
"C Z C C [ ..[ K % % # & D Y U Y H H H H * % # & Y | K ,.| W K K J J H G % $ # * . X . % A F F F K F H R | | R | ,.8.i.3.l.e...H.",
"U C n U ..| [ | # X . @ V Y C U H H H G X . . @ F ^ R ..S K L ^ K J G J $ O @ . X X X # D R F F Z Z V Z R | E R e.8.i.i.4.H.H.l.",
"n m C C ..[ 4./ # O . # V F U F H m H m % o X % K ,.Y ! K ..K H H J H G @ X X o o X X @ M F F Z K Z Z Z T | | E i.C.V.S.*.%.l.! ",
"U U C Y ../ H.L # o . $ V R U Y H m H m O . o O Z H K K R K I K G N G N # # X X = O O & M P F D S S V Z F K F | ,.,.q...,.[ / *.",
"3.,.,.,.W K | K # o X # Z W Z Y T T W m 1 O + O % % . & ..q.e.T * * # @ X o . O 0 s l 0 * @ # * # % @ @ # @ % @ % # @ & W l.! ~ ",
"3.q.8.e.W K ^ J % X % % S | Z | T T ~ m % O O O @ X o $ ..3.8.H.$ O o . O O X + s l l p O X . X X X X X X X . . . O X % W | ,.4.",
"T ,.,.8.W | D.L # . X # V K W ..R.U ..H 1 o O O . X X X ! d.i.5.O . X . .     O s s s a + . . . X X O O o X X X . X   + W l.4.l.",
"3.,.e.e.H K J S = * % % H H Z Z W H W H 1 > = % % % % % W ..[ W * % % O # % O < s c l w - < # = X X . . # O % O < * # & H / W W ",
"Y K J S & @ $ 1 ~.(./.^.% % # # % # # $ l p l q s e s a # % # % p e p s q p i s k l s k (.^.(.~.1 O O + i s p s /.^.(.~.% % $ % ",
"K J J S % X X % /. X X~.% . . X O X X % j c c l f k l a # . . % s f c l z c f l l g h z (._.'.).= % O = s l l l _.'.'.(.% . . X ",
"F I F F # . . % _.'._.].% . . . X X . $ q f s f l s f a X @ # O s s s f f s s l l s g k {._. X).1 O O O i l s h (._. X(.% . X O ",
"F F F S * X # * ~.`.(.~.- * % % O O o $ l z s f g s c a * X X * l l k z a s p s l l l z _._.'.(.2 = + 1 l c c z _._._.(.% o X X ",
"^ K L -.g s f s h c c x /./.^.~.1 O O 1 ~.(. X/.y 7 7 8 a g a f ~.{.{./.; * + 3 /.[.(.(. X'.'._.f w a l (.(.(._._._._.~.= X O X ",
"[ | ^ K h s c j a s s f '.'. X_.1 O + 1 (.'. X^.t t 8 7 f s s z _.{._.].= o O O ^.'.'.'._. X{.{.l s f x _.'.'.'. X X'.(.% . . O ",
"H.) H...h p f s c l s b ^. X X~.% o O % ~._.'._.y 6 7 7 f l e z _. X X{.- O % 1 _. X'._._.{.{._.l s f l (.'. X_.{.'. X(.% X X X ",
"I L / L s l s l p s p h ^.(.[./.3 2 - 3 ). X X(.8 7 7 8 s e s v /.(.(.~.2 % % 1 E.(.(.(.(.(.(.^.x s s x ).'. X'.(.).(.~.1 % = % ",
"s s l f s f f s - O > 1 f c f v /.(.(.(._._..X^.h s e s s s s k y y 8 t s f s q 2 - > 1 1 = = 3 (.{.(._._. X_.(.3 - > 3 ~._.(.(.",
"f g s s f s s e O : O + s s q l (.'._._. X X X_.v f e l l s s e t 6 6 t e l c p + O O O O O O 1 (.{. X_.`.'._._.1 @ o - (.'.{._.",
"s f l f c h l s % % O X f v l c _. X'.{._.{.{._.l s l l s f s f 8 6 r u e s f s 1 o o O O O O % (._. X_. X'.'.`.> O O - _.'. X'.",
"z l k z i d s p - = + - i f s h (.{./.(. X'. X(.s s a s l l f s t 6 6 6 g h f s 1 O - + % = + - (. X{. X(._.(./.2 * X 3 E.{.[./.",
")._.{.E.; + + - s p s i u t 7 y l l z x /._. X(.- % O - s s l q - * % 4 XX@X$X+Xf a a d a s p f (. X'.(.x l z l s g s a z k l z ",
"'. X_.).- O % > s c c c 7 6 t 7 s g s l {.'._.^.1 O : = s s l s < O O : @X$XOX+Xc s f l l l l c (. X X{.l s s f l s f f s s l e ",
"_.'.'.(.+ o O > p s q s 7 7 t 6 k h s l {. X X(.= O O * s q s p O O O > OX$X$X+Xh s s l s l s l  X X'.[.l h s j s s l z e s s h ",
"_. X'.(.2 : % 1 h c l s 8 6 8 8 k l s l /._._./.2 1 1 1 f l l s 2 1 1 2 OX#X#X+Xc f c c s p s c /.(.^.(.z l c l s l s l s s e s ",
"'.'._.).l i s s ^._._.(.s s s s f l l l c f s x ~._.(./.l s l c ~.(.(.(.)._._.{._.{._./.y r 8 7 = 2 < - /.`._.(.c f f s = : O = ",
" X X X{.l e s v {. X X{.z f s s s s s s f s s l _. X|.].z s s l _.'.'._._._._._.'.`.'._.7 6 6 r % : o - [. X{.[.c e s s + + : O ",
"'.'._._.k z c l _.`.'.(.z s s l s l e l s f l l (. X'.(.l l l c _. X{. X X{..X{. X X X[.8 7 7 6 O + O = ]. X_.{.l p l s O o O O ",
"(.(.)./.z e s l /._._./.e s s s s l l f s s f s /.(.[.].s s d f (._.(.{.{._._._./.).{.Q.i 6 t t * O . - R.{././.c c c s 2 = 1 1 ",
"- 1 + 3 a h s l c h l h - % % = s s s s u u 8 9 l z z p - O = 1 l c c c c l c c u y 9 i s f s q < > : o 2 - + 2 (.'._._./.(./.(.",
"o o O + f s s l s s s a = % : 1 s f s s 7 6 6 7 s f l p = o O : p s s s f s l s 6 7 7 6 g s s s 1 O : : + O : 1 /. X(._.'. X_.'.",
"O . X * s s l s s s s s = O X + s s c f 6 7 r t f c c i = O O O s c f c f f p f t t t 6 l l l e O X O $ X O o 2 (. X X X X_._.'.",
"> 1 : - p l l f h h f f 1 = 1 1 q s s s 7 r r 6 p s l s 2 = - 1 p p s p l s c j 7 7 8 7 e s c p 1 1 : : + : o > ^.'.^._.).~.(.(.",
"p s e s e l e h +XOXoX+X(./._.~.1 % > 1 O O > 1 s s f l ~.(.(.~.2 O = 1 s s s l s s f f l s l s p p l p O O O % f c l f 2 > 1 - ",
"s l h s s s s v +X$X$X#X{.'.'.).- O O + + + O + e s s x ).'.'.).1 O O + s s s f f l s j s s s l c l c d 1 : O + s l l s O O o O ",
"l s s s s s s f +X$X$X#X)._.'.).1 O O O : O O : s e f c _.'.{.(.= O : O s s c f f j f f p l s s p s l a O O o 1 s l e f + O % O ",
"l l l x p h f h OXOXOXoX}..X'.^.1 O % = O = O = s s s z (.'. X(.1 O = - s z l z c c c l c l l c v l c s 3 1 1 - i g g i - O O = ",
"{.{.]./.x s s l l h h v (. X X].s q s p s s s s s s s c (. X X(.c a f s /.{.[.(.(.(._._.)._._._._.(._._.~.(.).~.1 + X - 6 r r 6 ",
" X X X(.z j s l s p s l {.{. X`.z l s l s l s s l l s l /.'. X_.z s l l _. X|.'.'.'.'.'.{.{.'.{.{.[. X`. X'. X(.1 1 O + r r 6 7 ",
"{.'._.(.z f s s l l l z {.(. X(.c s s s f s s f s l a c _._. X(.l s f l (.'.'.'.|.'.{. X X{. X|.{.{.{._.'._. X/.- o o o 6 6 7 6 ",
"_.'.'.[.l p s s s f f l _.`.'._.l s l l l c c c c l h x _. X X_.c s h l (.).`.(.'.'.'.(._.'._. X(.(.(.(.(.'. X[.3 + 1 2 8 u y t ",
"{._. X].u r y u j s s c (.'. X(.z p l c (.(._._._._.(.(.`.'. X_.l s s s s x l c (. X_.'. X'. X(.- - % 3 _.`._.{.(.^.~._.)._._._.",
" X`.'.{.9 6 r 6 f s p z (. X X_.l l p l  X'.'._.{.{.{._._.).'.).c s h s f s l z (. X'._._._.{.(.% O O % _.`.`.'.{._.{. X_. X X_.",
" X_.'._.5 r t 8 l s f c (.'. X(.l s c l {._.'.'. X X X X X'.|._.c p s s s e s f {. X'. X_.'. X(.1 O $ 1 (.'.'._. X X{._.'.`._._.",
").).{.W.8 6 6 y p l s c (.|. X(.l p p l ].[.{.]._.(.(._.~.(.(.(.z l z x s s s l (.(.~.(.(.(.(.!.1 O O 1 /.{.{.(._.)._.(._._._._.",
"u 5 5 8 6 y y 6 s s s c _._. X(.l l l s 0 9 9 0 c c c s 3 - = 3 /.{._.E.l l s l = = = 1 1 = 1 1 O + o % l x l l i y u u h l c f ",
"r r r 6 r 7 6 7 l s f l _. X X(.z p l f 7 6 r r s l s s + o o 1 (.'._.{.l l s s % O O + : O O O O + O 1 p c a s 7 6 6 7 f s f h ",
"t 6 6 6 t 7 7 6 p l f c _.'. X_.c l c f 7 6 r r f l s p + < O - (.'.'.[.l f f q O O O O o O O O O o X > p c h l 8 6 6 7 s l l p ",
"y y y y 7 6 7 6 j s s l (.(.(./.l s s s 8 7 8 8 a s s p = % O 2 /._.'.{.l s f s 2 - 1 > < O O O 1 1 % 1 e s l e 7 6 6 6 s l l f ",
"/.{._./.1 : + 1 7 8 t t 7 8 t u s h s l /._.(./.2 % 1 + p e q g {. X X[.l s s z /._.].!.% + O < q s q s l l l p = O % 1 s l l f ",
"'._.'./.- O + O 6 6 7 t 6 7 6 t p c c l _._._.(.= o < % s l l v {.`.`._.l f s l _. X X(.1 O O 1 p f l l s s f s = O O % s s s f ",
"'._. X{.* o + % 6 r r t 6 7 7 6 s j x k {.'. X(.< o O O f s s l _. X'.[.l c s z _._.'./.1 O O - s l s c s l s s O O o O s l q l ",
"{.).{.E.= O O O 6 r r 6 7 8 7 y l s s l ].]. X(.2 = = - s s z l /.{.(./.z l p z ).{.{.].- X O O 0 s p q z l l l - = 1 - s l l s ",
"8 7 8 9 O O + 1 7 t 7 8 p f s f s z s s x l l z s s i a f l s s l l l l p s f l oXOX#XoX, O O O 1 = + 3 ~.{.{.(.s i h i f s f s ",
"t r 6 6 < O O O 6 6 7 7 s s s s l f w h s s s f s l l l s f s f s s l s l s s s OX$X$XOX< + O : O O X - /.'.|._.z l z l s s h h ",
"6 r 7 6 = O + : 6 7 r 7 f s s s l s s f s l f s l l s l s f s s s f f s l s h h @X$X$XOX< O + : + O o > /.'.{._.c s s e f s s p ",
"7 6 7 6 O O O O 7 t r 7 f s s c l s s s l p f s f s f l s s z l e f s s l l s f @X@X@XOX% O + O : O o 2 (.'. X).c s l s c f l l "
};
