/* XPM */
static char *b813f7ddd80549b0ac15c7d8f1d95dacdJAx3aNahJ3GSwpt[] = {
/* columns rows colors chars-per-pixel */
"64 64 225 2 ",
"   c None",
".  c #010201",
"X  c #050B05",
"o  c #080D08",
"O  c #091907",
"+  c #0A140A",
"@  c #0C1C0A",
"#  c #071406",
"$  c #121E11",
"%  c #0D220A",
"&  c #0F290C",
"*  c #112C0E",
"=  c #063E06",
"-  c #13340E",
";  c #142D13",
":  c #172717",
">  c #153212",
",  c #163C12",
"<  c #1C391A",
"1  c #213A1D",
"2  c #253926",
"3  c #212C23",
"4  c #094309",
"5  c #0E5A0E",
"6  c #174011",
"7  c #1A4414",
"8  c #1D441B",
"9  c #1E4919",
"0  c #135A15",
"q  c #195B1A",
"w  c #15400F",
"e  c #224B1E",
"r  c #205D1D",
"t  c #0B7E0A",
"y  c #197C17",
"u  c #22671C",
"i  c #20791D",
"p  c #244524",
"a  c #244B25",
"s  c #2B452A",
"d  c #2B4C2A",
"f  c #284828",
"g  c #304E2E",
"h  c #255B24",
"j  c #2B552C",
"k  c #2B5B2B",
"l  c #275526",
"z  c #32562D",
"x  c #2E4C33",
"c  c #324A38",
"v  c #325234",
"b  c #325B35",
"n  c #385B3B",
"m  c #2E5B32",
"M  c #2B6225",
"N  c #2B6B25",
"B  c #2B632B",
"V  c #2C6B2A",
"C  c #266723",
"Z  c #32652B",
"A  c #336C2C",
"S  c #2D7C25",
"D  c #2E7429",
"F  c #297825",
"G  c #33742C",
"H  c #34762B",
"J  c #346334",
"K  c #396435",
"L  c #366B34",
"P  c #396C33",
"I  c #35623B",
"U  c #3C653C",
"Y  c #3B6D3C",
"T  c #356C38",
"R  c #3A7434",
"E  c #3A7C35",
"W  c #3D743A",
"Q  c #387835",
"!  c #2D6533",
"~  c #416D3E",
"^  c #41753D",
"/  c #427A3E",
"(  c #3D5A45",
")  c #3E6544",
"_  c #3D6B42",
"`  c #3F7242",
"'  c #44574C",
"]  c #485653",
"[  c #436C45",
"{  c #446C4B",
"}  c #4A6E4A",
"|  c #446348",
" . c #546C4E",
".. c #447344",
"X. c #457C42",
"o. c #497A45",
"O. c #4A744C",
"+. c #4C7C49",
"@. c #497448",
"#. c #527B4E",
"$. c #4B6D54",
"%. c #4E665A",
"&. c #526C5D",
"*. c #576956",
"=. c #4D7252",
"-. c #4D7A52",
";. c #557454",
":. c #5C7356",
">. c #547B52",
",. c #54745B",
"<. c #5B7B5A",
"1. c #5A7859",
"2. c #617C5D",
"3. c #526561",
"4. c #556D62",
"5. c #5B6B69",
"6. c #567161",
"7. c #5A7564",
"8. c #5D726C",
"9. c #5E6B70",
"0. c #657965",
"q. c #687677",
"w. c #67706C",
"e. c #018B01",
"r. c #0C8C0B",
"t. c #098608",
"y. c #11840E",
"u. c #0D900A",
"i. c #188B15",
"p. c #199516",
"a. c #1A9316",
"s. c #12900F",
"d. c #22921D",
"f. c #298825",
"g. c #33852C",
"h. c #378D2D",
"j. c #2C9225",
"k. c #35942B",
"l. c #379A2C",
"z. c #3B8235",
"x. c #3A8B32",
"c. c #398437",
"v. c #3D9334",
"b. c #3C9B31",
"n. c #319330",
"m. c #3CA92E",
"M. c #35A528",
"N. c #44853C",
"B. c #428B3A",
"V. c #408937",
"C. c #49923E",
"Z. c #449939",
"A. c #41AB32",
"S. c #4BAB3C",
"D. c #44A237",
"F. c #4EB13E",
"G. c #498543",
"H. c #4B8A43",
"J. c #4A8545",
"K. c #52854D",
"L. c #538D4B",
"P. c #4C9242",
"I. c #4D9B42",
"U. c #54944B",
"Y. c #559C49",
"T. c #599D4E",
"R. c #539A48",
"E. c #5A8C55",
"W. c #588655",
"Q. c #5C9454",
"!. c #5C9C53",
"~. c #559451",
"^. c #64885F",
"/. c #659B5C",
"(. c #4CA144",
"). c #4FA943",
"_. c #54A24B",
"`. c #5CAC4E",
"'. c #55A648",
"]. c #5AB24B",
"[. c #56B546",
"{. c #5DA251",
"}. c #5CA952",
"|. c #63AB55",
" X c #65AB58",
".X c #6BAC5E",
"XX c #64A559",
"oX c #61B252",
"OX c #6AB25C",
"+X c #68B859",
"@X c #61BB4F",
"#X c #688966",
"$X c #6D9469",
"%X c #699664",
"&X c #758A75",
"*X c #789775",
"=X c #72986C",
"-X c #6EA565",
";X c #6EAD62",
":X c #6FA36A",
">X c #71A469",
",X c #74AB69",
"<X c #6EB361",
"1X c #75B26A",
"2X c #74B767",
"3X c #7BA474",
"4X c #7DA777",
"5X c #7DB374",
"6X c #83987F",
"7X c #83A67D",
"8X c #84B77A",
"9X c #6F7785",
"0X c #869587",
"qX c #89A785",
"wX c #92AE8B",
"eX c #8CB383",
"rX c #92B489",
"tX c #98A896",
"yX c #9CB496",
"uX c #A2B59D",
"iX c #9EA1A0",
"pX c #A8ABA8",
"aX c #AAB4A6",
"sX c #B7B8B4",
"dX c #A5C39C",
/* pixels */
"                                        { ! q m _ *XqX}.s.d.v.B.#X*X0XpXaX2X<X<X<XT...                                          ",
"                                        ..! 0 m _ *XrX_.u.i.b.v.$XqXtXsXaX2X<X<X.XU./ ^                                         ",
"                                        _ ! 0 I ` =X4X_.i.f.v.v.%X4XqXtXrX2X+XOX XE.>.>.                                        ",
"                                        ( I 0 $.8.` f.x.(.S.b.l._.oXT.J.G.].@X`.R.6XpXpX                                        ",
"                                        ( ) 0 $.q.c.i x._.).b.l.I.}.R./ G.].@X_.R.6XsXsX                                        ",
"                                        5.) q ( 5.v.j.g.G G G Z L.1X/.X.E G A P ~ q.sXsX                                        ",
"                                        9.) q x 4.(.M.F 7 9 d s ;.8X:XJ.^ 9 7 s s w.sXsX                                        ",
"                                        8._ I ( 9.(.m.f.7 8 p 2 +.5XXXG.^ , - p p 0.dXuX                                        ",
"                                        7.` 8.q.q.(.A.S e , o o R ].).b.H X . * - ~  X                                          ",
"                                        6...8.q.9XS.A.H , > . . G ].S.b.H o X * ; W oX                                          ",
"                                        4.=.8.,.0.{.'.C.l z v n P D N r z %.:.b k B.].                                          ",
"                                        4.=.5.O.=.:X,X.XR.Y.1X8XZ 6 6 , s iXuXK.W Z.F.                                          ",
"                                        4.) 8.=.=.>X5X;XR.!.>X>Xz - - - 2 &X=XG.N.Q.-X                                          ",
"                                        3.) 8.{ 6.4X8X:XG.N.b g $ X . . O 7 e C.].qXaX                                          ",
"                                        3.%.4.{ 6.qXeX=XX./ g s + . . . # 6 7 C.].7XtX                                          ",
"                                        3.3.c $.q.qXrX>XK.o.> $ X . . . X # $ V.'.U.L.                                          ",
"                                        $.%.n %.9XtXdXeXW.o.o . . . . . . . # N.(.G.G.                                          ",
"                                        =.6.4.4.9XqXdXqXE.o.@ X $ 3 3 2 2 % * Q B.P.I.                                          ",
"                                          ,.9.6.3.T.+X+XOX{., ; } >X3XqX#X7 7 V H I.].                                          ",
"                                          _ _ &.%.C.[.@X2XoX7 ; >.,X*XqX^.1 < k Q P.I.                                          ",
"                                          _ V _ ( N.N.N.^ U 2 ] ] g g b v v n K.XX                                              ",
"                                          j h _ ) n j l f 2 ] 9.] 1 1 d j ;.%XT.N.                                              ",
"                                          f 8 d f p R B.^ K :.iX6Xs f b b *XeXN.N                                               ",
"                                          a 8 p 8 e N.(.N.^ #XaX6Xd l Z L %X=XK.J.                                              ",
"                                          l ! d e a @.E.R.Z.C.'.Z.t t G G k l $XrX                                              ",
"                                          h L j p p *.2.C.S.S.A.M.e.y.S S h h #X3X                                              ",
"                                          V T k l z | *.N.V.l.l.j.j.j.a.i.y y z j                                               ",
"                                          V T Q D.D.z g M u S k.k.Z.b.p.a.i.y l d                                               ",
"                                          V T Q S.S.K g M u S g.f.j.d.r.s.j.f.P )                                               ",
"                                          V T ..Y.'.o.} P M M k i e.e.e.t.j.l.^ ..                                              ",
"                                          h I o.!./.#.#.P M M Z u e.e.e.t.k.v.L.Q.                                              ",
"                                          l m _ U.Y.^.$XU.h.H./.I.t t t.y.k.V.XX1X                                              ",
"                                          j I U C.C.3XeX XD.'.1X'.t t y.y N.H.XX1X                                              ",
"                                          j { _ U.Y././.C.h.H..X`.l.k.D L :.2.>X1X                                              ",
"                                          a ) <.-X;X/ A D D N..XoXA.b.H P :.2.Q.!.                                              ",
"                                          p x $.>X;X+.~ ^ o.^.;X|.m.D.P.L.2. .A Z                                               ",
"                                          j f v 2.0.6XtXwXrX8X8X<XA.D.Y.U.2. .A N                                               ",
"                                          M q j w.w.6XtX8X8X8X8X2X'.{.S.L.*X=XP Z                                               ",
"                                          M 5 Z *.:. .^ C.F.{.8X1X,X.XC.U.7X7XH A                                               ",
"                                          u 5 z  . .A N h.D.Y.8X5X;XXXN.N.>X;XC.C.                                              ",
"                                          q 5 M +.E.H u N u ^ ,X;X;X{.H R XX XC.C.                                              ",
"                                          0 5 C /..XH u r r ~ >X>X>X/.^ / H.H.Z.Z.                                              ",
"                                      %.] m 0 B U.T.H F K ~ *.2.0.qX7Xo./ ^ ^ h.x.                                              ",
"                                      7.) n T k D F h.h.o.*.*. .2.eX3XN.B.^ ^ Q./.                                              ",
"                                      { ` I { T A H x.h.+.^.;.z ~ XX].S.C.W ^ $X>X                                              ",
"                                      ` T k k =.U./.Z.h.E.7X>.2 d C.H.C.G.^ @.E.^.                                              ",
"                                      I ! l 4 k U.L.V.z.#.#XW.~ ^ o.:.2.[ ~ +.J.K.%X6X                                          ",
"                                      m ) j 4 4 [ #.1. .~ @.K.K.^.=X&X*.} / H.N.V.>.=X6X                                        ",
"                                      _ $.l 4 f 8.#X9.} ` G.c.z.o.#X*X&X&X%Xv.v.z...0.tXuX                                      ",
"                                      ..=.a , x &.T ,.&X$XP.v.c.` ,.qXwXn.s.a.p.E [ #XuXaX                                      ",
"                                      O.6.I l x _ T -.v.f.p.p.c.@.,.tXtXp.e.s.p.z.O.&XpXaX                                      ",
"                                      { ,._ J x I ! ` r.e.s.p.g.o.,.tXyXa.e.r.u.g.+.&XsXsX                                      ",
"                                      { &.n < : d V ` r.e.r.u.f.+.7.pXuXp.e.t.r.c.H.=XrX8X                                      ",
"                                        3.x @ @ f _ { r.e.e.t.f.J.W.yXeXf.y L.*X X).'.`.{.                                      ",
"                                        3.2 X + m $._ r.y.g.~.!.(.'. XT.f.F *XyX<X[.`.}.                                        ",
"                                          $ . + I ,.I i F %XyX5X[.].`.Y.x.B.%X$XXX].|. X                                        ",
"                                                ..7._ F S %X7X-X].`.|.!.|.+XQ.#._.oXT.H.                                        ",
"                                                O.6.O.I.|.Q.W.U.oXoXXXT.`.Y.K s k M > X                                         ",
"                                                _ 4.+.oX+XL.[ ^ N.A 1 < e 7 X X & w @ .                                         ",
"                                                ) 3.=.R Z ; X & 6 - . o , - O # % O & ,                                         ",
"                                                  3.| 9 , O . O - * % * # X - , # . * ,                                         ",
"                                                  9.c & @ & - & . # , - X X * , +                                               ",
"                                                    2 X . & 6 % . + <                                                           ",
"                                                      o X :                                                                     "
};
