/* XPM */
static char *_18c6add803d44fecfe96a3e5c2a8786E2I4UayMNFIwzgjr[] = {
/* columns rows colors chars-per-pixel */
"64 64 128 2 ",
"   c #56564F",
".  c #575750",
"X  c #5A5A54",
"o  c #5A5A5D",
"O  c #606055",
"+  c #63635D",
"@  c #6B6B5D",
"#  c #5D5E61",
"$  c #5F6062",
"%  c #646464",
"&  c #676860",
"*  c #6B6B64",
"=  c #65656B",
"-  c #6B6B6C",
";  c #6F706C",
":  c #737366",
">  c #74746B",
",  c #79796E",
"<  c #6D6D72",
"1  c #6F7074",
"2  c #727374",
"3  c #7B7B75",
"4  c #74747A",
"5  c #78777C",
"6  c #77787B",
"7  c #7B7B7C",
"8  c #807F7F",
"9  c #7F807D",
"0  c #848577",
"q  c #82837D",
"w  c #89897B",
"e  c #7D7E82",
"r  c #7D7D89",
"t  c #7F8082",
"y  c #7F8088",
"u  c #838384",
"i  c #878885",
"p  c #8A8A82",
"a  c #848489",
"s  c #888789",
"d  c #87888D",
"f  c #8A8A8C",
"g  c #95958D",
"h  c #9A9A8F",
"j  c #8D8D92",
"k  c #8F9092",
"l  c #949495",
"z  c #979894",
"x  c #9B9B94",
"c  c #959699",
"v  c #979799",
"b  c #94949B",
"n  c #96979A",
"m  c #989798",
"M  c #97989A",
"N  c #97989B",
"B  c #9A9A98",
"V  c #9B9B99",
"C  c #98999B",
"Z  c #9B9C98",
"A  c #9C9C9A",
"S  c #9C9C9B",
"D  c #9B9B9E",
"F  c #9C9C9F",
"G  c #A09F92",
"H  c #A09F95",
"J  c #9FA09D",
"K  c #A3A495",
"L  c #AAAB97",
"P  c #A6A69B",
"I  c #A3A39C",
"U  c #A0A09E",
"Y  c #A1A19F",
"T  c #A7A79C",
"R  c #A7A89B",
"E  c #ABAB9B",
"W  c #A9A99D",
"Q  c #ABAB9E",
"!  c #B1B19E",
"~  c #9696A2",
"^  c #9B9BA1",
"/  c #9D9DA1",
"(  c #9FA0A1",
")  c #A2A3A3",
"_  c #A2A4A3",
"`  c #A3A4A4",
"'  c #A5A5A5",
"]  c #A6A6A5",
"[  c #A7A8A2",
"{  c #ACADA2",
"}  c #A8A8A7",
"|  c #A9A9A7",
" . c #ABACA4",
".. c #A5A5A9",
"X. c #A7A8A8",
"o. c #A9A9A8",
"O. c #A9ABAA",
"+. c #ABABAB",
"@. c #AAACAB",
"#. c #ACAEAD",
"$. c #ADAFAE",
"%. c #AFB1A0",
"&. c #B1B2A3",
"*. c #B1B1A8",
"=. c #B3B4A8",
"-. c #B2B2AD",
";. c #B8B8A9",
":. c #ADADB1",
">. c #AFB1B1",
",. c #B2B2B2",
"<. c #B6B6B4",
"1. c #B8B8B6",
"2. c #B9B9B6",
"3. c #B6B6B8",
"4. c #BDBDB9",
"5. c #C3C4B7",
"6. c #C4C6B8",
"7. c #C2C2BD",
"8. c #CACBBF",
"9. c #CCCEBF",
"0. c #C2C3C1",
"q. c #C3C3C2",
"w. c #C3C4C2",
"e. c #C4C4C3",
"r. c #C6C6C5",
"t. c #CBCCC0",
"y. c #CED0C1",
"u. c #D0D2C2",
/* pixels */
"3 3 6 3 9 7 t 7 4 1 1 1 < 1 ; 1 7 u t u l v v l 2 - - ; 7 u e q 7 e e e r d j d < < < 1 7 8 8 3 : * : * o % + % u a a j D ^ ( ^ ",
"3 6 3 6 7 7 9 7 4 1 1 4 2 1 ; 1 e t u u l v b b 2 - - - 7 t e e e 7 4 e f d d a 4 < < < 7 8 q 3 - * * * + + o * u u a f D ( ^ ( ",
"6 3 6 7 7 9 7 9 2 1 1 1 1 2 ; 1 e 8 u u j v b l 2 - - > 7 t 9 t 4 e e e f s j a 1 < - 1 8 8 3 3 : * * * + o + % t a u f ( ^ ^ ( ",
"3 6 3 6 9 7 t 9 4 2 4 < ; ; ; 2 8 8 u y l b v b 3 - - ; 7 9 e y e 4 4 e d f j a 1 < < 1 3 8 8 3 > - > * % + % - u a a s S D ^ / ",
"9 9 9 9 0 0 0 0 0 0 0 0 , , > , 7 t t u s f f d u u u q 2 < 1 1 1 2 < 7 v V V l 1 = - - - = - 2 [ =.=.*.| | +.D q 9 9 q t t q 9 ",
"9 9 q 9 0 w w w w w 0 w 8 : , , 7 8 8 t y a a y i d d a < - = - - < < 3 S Y ' V ; - = = % % % 2 6.u.u.t.r.r.r.1.q 3 9 3 2 , 2 , ",
"9 q 9 9 w w w w w w w w , , , , 8 8 8 8 a a a a a s f s < = - = 1 1 < 2 V _ Y V 1 = = = = # % < 6.y.9.t.w.0.e.<.q 9 3 3 2 3 3 3 ",
"9 9 9 q q w w w w w w 0 8 , , , 8 e t 8 a a a r s f f u < - = - 1 - < 5 x / H V - - = = % = % 2 5.9.9.8.0.0.0.<.9 9 9 7 , 2 , 2 ",
"t t 7 u g K K x w w q w z V V V 4 < < < 4 4 e 1 u f a i i a d i f d d d 7 7 7 7 7 7 7 e j l l l M M M M D ^ ^ l ; ; < 1 e 6 7 9 ",
"t e u u G W P T p 8 q u ` :.*.o.r = = = = = < = e u a a z V M M V b N l - - - - t u u a [ +.' ) y r r y d d f y = = = < e e 9 9 ",
"t t e e G [ W T p 8 q q ) +.o.#.r $ = = < = < < 7 u u i l M z z b v m l 2 - - - r u t d ' | ' ) a r y y d d f y - = = 1 9 9 9 9 ",
"e e 8 8 V T [ H s 8 8 u J +.+.+.e = = = < < < < u u u u l M l z l b v j 2 < - 2 e t u a ' ' ' J y r r y d f f a - = = 1 9 9 9 9 ",
"4 4 4 4 e a u u ; % = - u f f f e 7 5 5 7 e e e 7 7 7 7 6 3 2 4 3 6 6 7 S J J x 2 ; ; 2 i f s p 4 4 4 6 p p i p 9 7 7 7 9 9 9 9 ",
"4 2 4 < 5 e e 5 = $ % $ 6 7 e 7 t r r e r u t t 7 5 5 4 - ; - ; ; < - 3 [ #.$.` 2 - - ; 8 8 q 9 1 1 1 4 p p p w q u q t 9 t 9 9 ",
"4 4 4 4 5 e e 5 = % $ % 6 u e u e 8 e e r u u e 5 6 5 4 ; - - * ; ; < 6 [ $.%.[ > % - - 8 q q 9 2 1 1 4 w p p w u q t q 9 9 9 9 ",
"< < 4 < 5 5 e 5 % % % % 3 7 u 7 r 8 r e u u u r 5 6 6 4 1 ; ; : 2 2 2 3 [ +.+.[ 2 - - : q q 9 7 4 1 1 6 p p p p q u 9 t 9 9 t 7 ",
"= = * = - ; < 2 f M z M u e e e a d j j 7 q 3 8 > : - > h K J J K P K U p w w p 8 r e e e e r t k k j j r r r e < < 1 1 1 1 1 1 ",
"$ $ $ + = - - ; D +.' ' a e r r j j l j q 3 0 3 > * * > P &.%.&.=.=.;.&.7 3 3 3 a a a a e e e t N ^ ^ ~ r r r r < < < = = = = = ",
"+ $ $ % - * - - D +.X.' d e r e j j l j q 3 , 3 : * * > W &.! &.=.;.;.{ 0 3 3 7 a a a a r r e r N ^ ~ b r r r e < < < < = = < = ",
"- * * = - < < > V _ _ J a e e e j j j j q 0 3 0 > > > 3 K W L ! &.=.&.W 0 3 , 3 a a y r e e e r b b N b r r r r < < < < e < < 1 ",
"-.-.-.-.K v m l 2 ; ; - 9 a a y 2 1 ; 1 i f f g A ) Z K s d d i s f k s e 5 e e 7 8 8 8 q u u q 2 2 2 ; - < - 2 V x J V ~ ~ ^ ^ ",
"7.7.7.7.+.` ' H ; $ % % 9 t a u ; % % * s g k k ..+.#...f t r r a a a a e e e e 7 7 7 3 u q q 8 - * - * % - * 2 T  .[ ' ^ ......",
"7.4.7.4.o.` ) H 1 $ $ % 7 y a u ; - % - s k l k ' +.+...d t t a a a a a e e e e 7 3 8 0 q u u 8 - * - * - * - 2 Y W [ [ ........",
"4.4.4.4.} / ^ H ; % % % 9 y y t - - - ; s k k k ' ..+.' d y t r a a a a r e r e 7 7 3 3 q q q 8 ; - - - - - - 2 Y T ` ( ........",
"s s s s e < < e e 4 e 4 1 - - - f M M v s y a a j j j j a u u a b b b b b b b j 2 - 1 ; < - - 1 h x h x x x h h i u u u f a d d ",
"8 5 5 8 < # # = r r y r - % $ % l _ ` ) s y y y a a y a a a a a b ^ ~ ^ ~ ~ ~ b 1 - - = = = % 1 H [ } { P L L Z e 4 5 e e e e r ",
"5 8 5 8 = # = = t a y y - $ % % l ' ` ( s y e y a s s s a u a s ~ ^ ^ ~ ~ ~ ~ b 1 - - - = = = < H ' | | P L E K 7 5 e 5 e e e e ",
"8 5 e 5 < = = = t y a a < % % = l ` ` ( s y y u a a a a u u t u k b b b j b b j 2 - - - = = = < D H H H H G Z x 8 7 5 e r a t r ",
"u r u a e e 7 e y y y y 2 - * - f V V v a u t y u u q q , , > > : : : : = - : : 0 0 0 q 2 2 2 4 5 5 e 4 4 4 2 5 u w w p g g g g ",
"u a u a e e e r y y a u ; ; * ; f l m l a e u y u 8 q q > : : : : @ : @ % @ + @ 0 w w w 5 3 3 2 4 1 4 < = < = < w w p p x x h h ",
"a a u a r r e e u a y y 1 ; ; - f V m l s e a u q q q q > : > : : @ @ @ @ @ @ @ 0 w w w 3 4 3 4 4 1 1 1 = = * < w p p p h h h h ",
"u u u u e e e e a a i a 2 ; ; ; f g l l u u t t 8 q q 8 , , , , : : : : @ @ @ @ 0 w w q 2 3 4 4 4 4 4 1 < < < 2 q w w i g g g l ",
"- - - - 5 e 7 r x x J J p 7 q 7 2 : - > 2 2 2 2 * * * - x P Y P K K Y K s d f d 0 8 0 3 ; < - 1 u a a u e 7 7 7 e 8 8 7 - > - > ",
"- - - - 2 7 7 q A P K J i q u u - % % % 1 2 2 2 % + O * K { { | &.&. . .l k l s q 8 3 3 - - - ; a f f i 8 7 7 e 7 e e 5 = % % = ",
"* - * * 5 7 7 e J R P P f p u u - % % % - 2 < < % O + * Y &.{ {  . . .[ l k l j q 3 7 3 - - - 1 i f s a 8 e 8 8 8 e e 3 = * % % ",
"2 > 2 2 3 7 4 e x x J A u t r e 2 : > - 5 3 7 6 ; - * > x P Y Y [ [ [ [ k j j s i w q q 1 - - 1 u u a a 8 8 8 8 e 8 7 7 - - < ; ",
"Y W Y W d r r e 2 2 2 2 < < < < j / / / X.+.o.@.) ( ( / e 4 4 5 a d d d u u u u ` ' } Y u 8 q 7 > < - 4 s f f f u t u u l l l l ",
" . . . .d r u r 1 - - - < = = 2 b ) ) ..:.>.>.>.+.....) e 1 < 4 a a a a t r t u ' o.} ' y u t e - - - , f f p f q 9 t i x v v v ",
"Q  .%.@.s y e r 1 - - - < - = < b ..../ :.>.,.>.+.......e < 1 1 y a a a t t t u ' o.o.` a u y e - - - 2 f g f f 8 t u i M M v v ",
" . .P [ d r y t 2 1 1 2 < 2 < 2 j ../ / X.+.+.+.......( 6 1 4 4 r t y t t 7 t u ` ' ' ( 8 8 e e 2 - - 2 p f p s u i u i l l l l ",
"p s p p f a u f j j b j b l x x a 7 7 t q 0 q p b b ~ b 7 6 6 3 2 < 1 4 > 2 > 2 p p p p = = = = e e t e 4 4 2 e V ) Y V u u u r ",
"p w i p i a a s j b b b S H S K i 7 5 7 8 8 8 8 j b b b 9 3 3 7 < < < < ; ; : > e w w q = = = = y a y e 1 < < e / [ ' V e 7 e 7 ",
"p p w p i s a s b b b b H S K K q 7 3 5 8 8 8 8 k b b b 9 3 7 3 < < < < ; : : > q w q 8 = % = = e a y e 4 1 < e ) ' ..V e e e e ",
"q q q q f f k j j j b l V V S Z u 5 5 3 8 8 8 0 d j j f u t q u 4 1 1 < > ; < 2 q 0 w 8 < < = - a s d a 4 e 3 e x V V l 7 e e 7 ",
"1 < 1 1 _ ,.,.:.s e e e y a a a e r 2 4 8 u a u < - < 2 V _ _ / d r y e e 7 4 5 8 8 8 8 a u u s K H _ H g g h p , , > 3 r e e e ",
"- < - < _ <.3.,.a e 5 7 y a a y < 2 < 4 8 u a a < - = < ^ o.' ) d t y t e 5 e 5 7 e 7 e a s s f / ' ' ) h x x g , : : 2 7 e 7 e ",
"- < < < ` 3.3.,.a 7 4 e a a r r e = < 4 r a a r < - - < D X.' ) a y t t 5 e 4 4 e 7 e 8 a i a f Y  .Y U h h h g : : : > e e e e ",
"2 2 2 6 D +.....a u i y a a r r e r 4 4 r a a a < - - 2 A ' ' _ d a a y e e e r 7 e e 8 u a a s V U x K g g g g , 3 3 3 5 7 7 7 ",
"W L K K , @ @ * g Y I H v ~ ~ ~ f a a a u u s u 8 8 8 8 v A A D l l l l v l x l u t e e 5 e e 8 u u a u u u i f V S S k - - - - ",
"E E L L : O O + h P P Y / ^ ~ ~ f a s p u p u u 8 8 8 8 x V N S m h l v x V x l u t t e 5 5 5 5 e u t e u u u d Y Y H l - - - % ",
"! L L L , O O + h R P Y ^ ~ ^ ~ f s s a a a u s 0 8 8 0 l S V D v v v l x v x M a t e e 7 5 5 7 r u u t u u i s H ) H g - - * = ",
"E E ! E , + + & g A V H b ^ b v f p a p p u s u 8 8 8 0 l l v v l g l g l v l l t e e e 7 e 7 8 e 8 t r e i 7 u V D ^ k % % - % ",
"&.-.-.$.j e e e - - = * u i a i a 8 p p u a a a 8 7 7 e 1 1 2 > 4 4 4 7 a f a f 4 4 < 5 a s a u 3 3 5 2 * - - - 7 7 t 2 $ o # o ",
",.,.,.-.j r y t = # # % 7 u u u w u 8 q p u u i e 7 e 7 ; - - - < 2 < 4 u i u u 2 < < 4 a s f a 3 2 , 2 % % % % 3 3 5 ; o o o o ",
",.,.,.,.j y y y = $ # % 7 u u u 0 8 8 u u u r y t e e 6 ; = - - < 2 2 4 u a u a 4 < < 4 p s s p 6 2 , 2 % % + % 4 5 3 1 o o o o ",
"....' ..f r y r - % % % 7 8 u t 8 8 8 8 8 7 e e 3 2 2 3 6 3 6 7 t e u e u u a u < < < < u u u u 7 u 8 7 2 2 2 2 3 2 5 2 = - = = ",
"i q i i 9 3 8 3 7 3 6 5 6 5 5 4 - - * - = = = = o X . + / o.+.+.1.4.4.,.s t t 8 - - = - - - < 2 ^ / ( ..+.+.+.( 1 < < r ........",
"8 q q q 3 0 3 8 7 3 3 7 6 4 4 4 - * % * = = = = X . . + Y :.:.:.4.7.7.1.p 8 t e - - - - - - - 2 / ......,.,.,.' 4 1 < e ....:.:.",
"q q q q q 3 8 3 3 3 7 3 6 6 4 4 - % % % = = = % X .   O Y :.:.,.4.q.q.1.s 8 8 e - = = - - - - 2 / ......,.,.,...1 1 < e ......:.",
"u q q u q q 8 8 6 6 5 3 e e r r 4 > , > = = = % % % % * / +.....,.1.<.-.d a u u 3 5 2 2 < > < 2 b ^ / ( ..' +.H 1 < < e ........",
"f f f g j l l j 2 < - 1 D @.| @.W E E K , % * * l ..../ j d d d a a a a v v v v o.| { Y p 8 q 8 e 4 4 e 8 8 u 7 & @ + * r r e e ",
"g f f j l l l j 1 - - 1 Y ,.-.,.&.! ! E > & & * H :.:...j a a a e e r i v m m D :.-.,. .p w p 8 1 4 1 1 3 8 7 , + + + * e 4 e 4 ",
"f g k k l l v k 2 < = 1 ( -.,.-.&.! ! Q > & & * H +.:...d d a a e t r u v v m D *.-.,.{ p u u 8 e < 1 e 7 7 8 3 @ + + * 4 e 4 e ",
"k f k f l l l l 2 = - < ( ,.,.,.&.! ! L , & & - ^ :.:...j s a a y e r u l v V D &.-.,.| p 8 y r = e < < 7 7 3 5 @ + + = 4 4 e 4 "
};
