/* XPM */
static char *b9024eb1877f4ef5e2d2a6d0fa40cc28whTGxlE2VxM44v4Y[] = {
/* columns rows colors chars-per-pixel */
"64 64 256 2 ",
"   c black",
".  c #010101",
"X  c #020202",
"o  c gray1",
"O  c #040404",
"+  c gray2",
"@  c #060606",
"#  c #070707",
"$  c gray3",
"%  c #090909",
"&  c gray4",
"*  c #0B0B0B",
"=  c #0C0C0C",
"-  c gray5",
";  c #0E0E0E",
":  c gray6",
">  c #101010",
",  c #111111",
"<  c gray7",
"1  c #131313",
"2  c gray8",
"3  c #151515",
"4  c #161616",
"5  c gray9",
"6  c #181818",
"7  c #191919",
"8  c gray10",
"9  c #1B1B1B",
"0  c gray11",
"q  c #1D1D1D",
"w  c #1E1E1E",
"e  c gray12",
"r  c #202020",
"t  c gray13",
"y  c #222222",
"u  c #232323",
"i  c gray14",
"p  c #252525",
"a  c gray15",
"s  c #272727",
"d  c #282828",
"f  c gray16",
"g  c #2A2A2A",
"h  c gray17",
"j  c #2C2C2C",
"k  c #2D2D2D",
"l  c gray18",
"z  c #2F2F2F",
"x  c gray19",
"c  c #313131",
"v  c #323232",
"b  c gray20",
"n  c #343434",
"m  c #353535",
"M  c gray21",
"N  c #373737",
"B  c gray22",
"V  c #393939",
"C  c #3A3A3A",
"Z  c gray23",
"A  c #3C3C3C",
"S  c gray24",
"D  c #3E3E3E",
"F  c #3F3F3F",
"G  c gray25",
"H  c #414141",
"J  c gray26",
"K  c #434343",
"L  c #444444",
"P  c gray27",
"I  c #464646",
"U  c gray28",
"Y  c #484848",
"T  c #494949",
"R  c gray29",
"E  c #4B4B4B",
"W  c #4C4C4C",
"Q  c gray30",
"!  c #4E4E4E",
"~  c gray31",
"^  c #505050",
"/  c #515151",
"(  c gray32",
")  c #535353",
"_  c gray33",
"`  c #555555",
"'  c #565656",
"]  c gray34",
"[  c #585858",
"{  c gray35",
"}  c #5A5A5A",
"|  c #5B5B5B",
" . c gray36",
".. c #5D5D5D",
"X. c gray37",
"o. c #5F5F5F",
"O. c #606060",
"+. c gray38",
"@. c #626262",
"#. c gray39",
"$. c #646464",
"%. c #656565",
"&. c gray40",
"*. c #676767",
"=. c #686868",
"-. c DimGray",
";. c #6A6A6A",
":. c gray42",
">. c #6C6C6C",
",. c #6D6D6D",
"<. c gray43",
"1. c #6F6F6F",
"2. c gray44",
"3. c #717171",
"4. c #727272",
"5. c gray45",
"6. c #747474",
"7. c gray46",
"8. c #767676",
"9. c #777777",
"0. c gray47",
"q. c #797979",
"w. c gray48",
"e. c #7B7B7B",
"r. c #7C7C7C",
"t. c gray49",
"y. c #7E7E7E",
"u. c gray50",
"i. c #808080",
"p. c #818181",
"a. c gray51",
"s. c #838383",
"d. c #848484",
"f. c gray52",
"g. c #868686",
"h. c gray53",
"j. c #888888",
"k. c #898989",
"l. c gray54",
"z. c #8B8B8B",
"x. c gray55",
"c. c #8D8D8D",
"v. c #8E8E8E",
"b. c gray56",
"n. c #909090",
"m. c gray57",
"M. c #929292",
"N. c #939393",
"B. c gray58",
"V. c #959595",
"C. c gray59",
"Z. c #979797",
"A. c #989898",
"S. c gray60",
"D. c #9A9A9A",
"F. c #9B9B9B",
"G. c gray61",
"H. c #9D9D9D",
"J. c gray62",
"K. c #9F9F9F",
"L. c #A0A0A0",
"P. c gray63",
"I. c #A2A2A2",
"U. c gray64",
"Y. c #A4A4A4",
"T. c #A5A5A5",
"R. c gray65",
"E. c #A7A7A7",
"W. c gray66",
"Q. c #A9A9A9",
"!. c #AAAAAA",
"~. c gray67",
"^. c #ACACAC",
"/. c gray68",
"(. c #AEAEAE",
"). c #AFAFAF",
"_. c gray69",
"`. c #B1B1B1",
"'. c #B2B2B2",
"]. c gray70",
"[. c #B4B4B4",
"{. c gray71",
"}. c #B6B6B6",
"|. c #B7B7B7",
" X c gray72",
".X c #B9B9B9",
"XX c gray73",
"oX c #BBBBBB",
"OX c #BCBCBC",
"+X c gray74",
"@X c gray",
"#X c gray75",
"$X c #C0C0C0",
"%X c #C1C1C1",
"&X c gray76",
"*X c #C3C3C3",
"=X c gray77",
"-X c #C5C5C5",
";X c #C6C6C6",
":X c gray78",
">X c #C8C8C8",
",X c gray79",
"<X c #CACACA",
"1X c #CBCBCB",
"2X c gray80",
"3X c #CDCDCD",
"4X c #CECECE",
"5X c gray81",
"6X c #D0D0D0",
"7X c gray82",
"8X c #D2D2D2",
"9X c LightGray",
"0X c gray83",
"qX c #D5D5D5",
"wX c gray84",
"eX c #D7D7D7",
"rX c #D8D8D8",
"tX c gray85",
"yX c #DADADA",
"uX c gray86",
"iX c gainsboro",
"pX c #DDDDDD",
"aX c gray87",
"sX c #DFDFDF",
"dX c gray88",
"fX c #E1E1E1",
"gX c #E2E2E2",
"hX c gray89",
"jX c #E4E4E4",
"kX c gray90",
"lX c #E6E6E6",
"zX c #E7E7E7",
"xX c gray91",
"cX c #E9E9E9",
"vX c #EAEAEA",
"bX c gray92",
"nX c #ECECEC",
"mX c gray93",
"MX c #EEEEEE",
"NX c #EFEFEF",
"BX c gray94",
"VX c #F1F1F1",
"CX c gray95",
"ZX c #F3F3F3",
"AX c #F4F4F4",
"SX c gray96",
"DX c #F6F6F6",
"FX c gray97",
"GX c #F8F8F8",
"HX c #F9F9F9",
"JX c gray98",
"KX c #FBFBFB",
"LX c gray99",
"PX c #FDFDFD",
"IX c #FEFEFE",
"UX c white",
/* pixels */
"t.y.i.y.9.6.7.6.7.6.6.6.6.6.6.6.7.7.6.8.r.u.u.i.x.v.n.b.b.b.b.c.>.=.=.;.f.n.v.b.p.y.u.t.8.5.6.7.8.6.5.7.5.6.7.4.3.7.6.8.y.i.y.p.",
"i.i.p.u.0.6.7.6.6.6.6.6.6.6.6.6.4.5.5.7.r.u.u.i.z.v.n.n.n.n.v.x.2.:.-.:.g.m.v.v.p.u.u.t.8.4.5.5.5.4.5.6.5.7.8.8.6.8.6.8.y.i.t.y.",
"i.u.i.y.9.5.5.4.6.6.6.6.6.6.6.6.5.6.6.8.t.i.i.p.x.v.b.n.n.b.c.z.,.=.*.;.g.m.v.v.s.i.i.y.9.6.6.5.7.6.7.6.6.5.6.6.5.5.5.8.y.p.i.i.",
"u.y.u.t.9.7.7.6.5.7.7.7.7.7.8.7.6.8.7.9.r.u.y.u.c.v.v.b.b.b.c.x.>.-.-.:.g.n.v.v.i.u.u.t.0.7.7.6.7.5.5.3.8.6.7.6.6.6.7.9.r.y.u.u.",
"i.u.i.u.r.e.r.w.g.j.k.j.j.k.k.k.j.k.j.j.x.c.z.x.t.r.w.w.e.e.w.w.5.3.4.4.j.b.c.b.c.x.c.x.k.j.j.f.<.>.>.:.w.w.r.w.r.r.r.e.0.9.0.0.",
"i.u.i.p.y.u.i.u.l.c.b.c.c.v.b.v.c.b.c.c.b.b.c.v.w.9.7.7.7.7.7.8.6.6.8.7.k.n.v.m.v.c.b.b.c.c.c.l.:.=.=.=.t.y.i.y.i.u.p.t.7.5.6.6.",
"i.y.u.i.y.u.i.y.z.b.m.b.v.n.m.n.n.m.n.b.m.m.b.b.0.7.4.5.5.5.5.5.5.5.7.7.l.n.v.m.n.b.m.m.b.m.n.x.:.-.-.*.u.y.i.u.i.y.u.t.7.5.8.6.",
"p.y.u.i.y.u.u.t.k.c.b.c.x.v.b.v.x.v.x.x.v.v.x.c.q.8.6.7.7.6.6.6.8.7.7.7.l.n.x.c.v.c.v.v.c.v.c.j.:.;.:.=.u.y.p.p.i.t.y.t.8.7.9.6.",
"u.u.u.p.2.<.>.,.7.0.w.w.q.w.q.0.4.1.2.1.w.0.e.e.8.5.5.7.6.7.9.7.f.k.l.z.r.e.q.e.i.p.s.s.a.a.a.s.r.w.q.y.k.v.x.z.i.i.u.y.t.t.t.y.",
"t.y.u.y.,.-.=.;.4.6.8.7.7.7.7.6.;.*.*.=.5.4.6.5.5.4.5.6.5.6.8.8.k.v.v.z.w.7.5.8.t.y.u.u.y.y.y.u.i.u.t.a.z.n.v.c.u.u.u.y.y.y.y.y.",
"p.a.p.y.<.=.&.*.1.3.4.4.4.4.4.3.-.%.*.;.5.6.8.8.7.8.8.7.6.6.7.8.c.m.M.x.w.5.4.7.y.y.u.u.u.y.u.u.u.y.t.a.z.n.b.b.i.i.i.u.i.i.i.u.",
"t.t.t.q.3.,.>.>.6.7.7.7.7.8.8.7.,.:.>.<.2.2.5.5.5.7.6.6.7.8.8.8.l.x.v.k.r.8.9.0.t.t.y.y.t.t.t.y.i.i.u.a.l.v.c.c.y.y.t.y.u.i.u.u.",
"p.p.p.a.g.h.h.g.y.t.t.t.t.t.t.t.w.0.0.9.,.-.;.:.e.y.t.u.h.x.z.z.a.a.f.s.y.e.r.r.9.9.9.9.9.9.9.9.8.8.6.6.q.q.9.9.9.9.9.q.r.y.y.y.",
"t.t.t.u.z.v.b.v.a.i.u.u.u.u.u.i.p.i.p.y.,.=.-.;.w.y.r.u.z.n.v.v.i.t.i.u.i.y.p.y.6.6.5.5.5.6.5.5.7.8.6.6.8.8.6.6.5.4.5.9.r.u.i.u.",
"i.i.i.u.v.n.n.b.s.i.u.u.u.y.y.u.y.t.y.y.;.*.=.-.r.a.i.p.c.m.v.b.a.t.i.y.p.u.a.t.8.7.6.6.7.7.7.6.4.6.5.4.7.6.5.7.6.5.6.0.t.i.i.u.",
"y.u.i.t.c.v.b.v.f.a.u.u.u.y.y.u.i.y.y.u.:.-.;.;.9.u.y.u.z.b.c.b.p.t.i.r.i.r.i.e.8.7.6.6.7.7.7.6.8.9.8.7.8.7.6.7.9.7.7.0.r.u.y.r.",
"u.u.t.p.l.b.b.b.v.l.v.z.r.7.8.5.9.7.8.7.4.3.4.2.6.7.8.9.0.q.q.w.8.9.7.7.8.7.7.q.f.j.k.k.k.l.l.k.l.k.k.k.l.l.k.k.l.j.z.h.>.>.2.>.",
"i.i.y.a.l.b.b.b.v.x.n.x.r.6.8.6.7.6.7.7.5.5.6.5.6.6.6.6.6.7.7.7.8.7.6.6.7.6.5.8.c.b.n.n.n.m.m.n.b.v.v.v.b.b.b.v.v.c.b.j.:.*.;.=.",
"r.t.r.p.l.v.b.n.m.b.M.x.r.5.5.5.5.4.6.7.4.5.7.6.6.6.6.5.5.5.4.4.5.4.4.5.6.6.7.8.l.c.v.v.v.v.v.c.n.n.b.b.n.n.n.b.b.n.m.j.,.*.-.=.",
"y.u.y.a.k.c.c.b.x.x.v.k.t.8.8.7.8.7.8.8.5.5.7.6.6.6.6.6.6.6.6.6.8.7.8.8.5.3.4.6.x.v.n.b.b.b.b.v.v.c.c.c.c.c.c.x.v.c.z.s.3.;.-.*.",
"7.8.6.6.0.q.9.0.a.a.d.s.u.t.t.r.t.r.t.e.8.6.7.6.5.6.6.6.7.7.7.7.t.r.y.w.1.;.:.>.u.p.a.a.p.a.a.p.w.q.0.q.q.q.0.0.<.,.2.5.0.e.y.y.",
"7.8.5.5.7.7.5.6.r.y.u.u.u.i.i.u.p.u.i.t.9.6.6.5.6.6.6.6.6.6.6.6.u.y.p.t.,.&.=.-.r.y.u.u.u.u.u.y.7.7.6.6.7.7.6.5.;.=.=.>.e.y.y.t.",
"4.6.4.4.7.6.5.6.r.u.u.y.u.u.y.y.i.u.u.r.8.5.5.4.7.7.7.7.7.6.6.6.t.r.p.t.,.*.:.;.r.y.i.u.u.u.u.y.7.6.5.5.6.6.5.4.-.-.=.:.y.u.u.i.",
"9.q.9.8.0.9.8.9.e.i.i.y.u.u.y.i.u.y.u.t.8.6.7.6.8.8.8.8.9.9.9.9.u.r.p.y.<.=.:.;.r.y.i.u.u.u.u.y.0.0.9.9.9.9.9.8.,.,.,.,.y.r.e.y.",
"z.z.z.z.z.z.z.z.s.y.t.u.i.p.a.p.y.i.i.t.9.6.6.8.f.l.c.z.l.x.x.l.p.u.u.i.r.e.r.r.u.u.u.u.y.y.u.i.l.z.x.x.z.z.z.x.j.k.j.j.;.:.>.,.",
"b.b.b.b.b.b.b.b.d.i.u.i.u.u.i.y.y.i.u.r.8.5.4.6.k.v.n.b.v.b.b.c.a.u.u.p.u.u.i.u.i.i.i.i.i.i.p.p.c.v.b.b.b.v.v.b.b.n.v.z.:.=.*.=.",
"b.b.b.b.b.b.b.b.s.u.u.p.u.i.p.i.u.i.i.r.9.6.6.6.z.v.n.b.v.b.b.v.p.t.t.u.u.u.i.u.t.y.y.y.y.y.y.u.v.b.n.n.b.b.b.n.v.v.c.k.>.=.=.-.",
"v.v.v.v.v.v.v.v.a.u.u.i.y.t.u.y.r.t.t.e.9.7.7.8.j.z.x.x.z.x.x.z.p.y.u.i.t.r.t.t.y.u.u.u.u.u.u.i.x.x.c.c.x.x.c.c.b.b.x.h.2.:.-.-.",
"i.i.i.i.i.i.i.i.a.u.u.y.q.8.8.8.8.8.9.8.6.6.6.6.7.9.9.9.9.9.9.9.7.5.6.4.>.-.:.:.5.6.7.7.6.6.6.7.9.9.0.9.9.9.0.0.y.u.i.a.w.r.y.u.",
"i.i.i.i.i.i.i.i.i.u.u.y.9.5.6.6.5.5.5.5.5.5.5.6.6.6.6.6.6.7.7.7.7.7.8.5.:.&.=.;.6.6.7.7.7.6.7.7.5.6.6.6.5.6.6.7.p.i.i.p.t.y.y.t.",
"y.y.y.y.y.y.y.y.u.y.i.u.0.6.7.7.7.7.6.6.7.7.6.6.6.6.6.6.6.6.6.6.7.5.6.4.:.*.=.;.4.5.6.6.6.5.6.6.6.6.6.6.6.6.7.7.t.t.t.y.u.i.p.i.",
"i.i.i.i.i.i.i.i.i.i.p.u.9.4.4.5.9.8.8.7.7.7.6.6.7.7.6.7.7.7.7.7.8.6.7.6.<.:.,.,.8.9.0.0.9.9.9.9.9.9.9.9.8.9.9.0.i.i.p.i.i.u.i.i.",
"y.p.y.u.k.c.x.c.x.l.l.v.2.,.;.:.a.x.z.l.6.8.4.7.r.t.t.r.t.y.y.r.t.y.y.t.k.j.j.k.x.l.z.x.l.z.x.l.z.z.z.z.x.x.x.z.c.x.c.v.z.z.c.x.",
"u.p.y.i.l.b.c.c.n.b.n.b.1.=.&.-.f.b.n.v.0.0.5.8.r.y.u.y.y.u.i.u.u.i.i.i.v.v.v.b.b.c.v.b.v.b.n.v.v.v.v.v.v.b.v.v.v.x.c.v.v.b.n.v.",
"u.u.y.p.z.m.n.n.v.n.m.b.3.;.-.,.g.b.b.c.9.6.2.4.r.u.i.u.u.i.p.p.y.y.u.u.v.v.n.n.b.v.b.n.v.b.n.b.b.n.n.b.b.b.b.b.m.v.b.n.b.m.M.b.",
"y.y.y.p.g.k.k.k.v.v.x.k.2.-.*.=.f.z.z.l.w.0.7.8.e.r.t.t.y.i.i.u.t.r.r.r.z.c.v.v.b.v.b.b.z.z.x.z.x.x.x.x.x.x.c.c.n.b.n.b.z.x.c.l.",
"i.u.u.y.e.q.q.q.8.7.9.w.4.6.6.6.7.9.9.0.3.5.5.5.9.9.9.0.t.i.u.t.,.>.:.>.r.y.u.u.i.u.i.y.q.9.0.9.8.9.9.9.9.9.0.q.c.v.n.z.d.a.s.a.",
"i.y.i.y.8.4.4.4.8.5.4.6.4.6.5.2.7.6.6.7.6.8.9.7.6.5.4.7.r.i.i.r.>.;.-.:.r.u.p.p.i.u.i.t.8.6.7.6.4.5.6.6.5.6.7.9.x.b.m.l.i.t.u.y.",
"u.t.i.u.9.6.7.7.6.5.5.6.7.8.9.8.7.4.5.6.5.6.7.4.7.6.6.8.e.u.u.r.:.=.*.=.w.y.u.u.u.y.i.t.8.5.6.6.6.7.7.6.5.5.7.8.x.b.n.l.i.y.i.y.",
"p.t.i.i.0.7.8.6.9.0.q.8.6.5.6.6.6.4.7.9.9.9.q.9.0.0.0.q.e.y.t.e.>.;.*.=.w.t.y.t.i.p.a.i.q.9.q.q.0.0.0.9.7.7.9.0.l.x.v.j.i.u.p.y.",
"p.u.u.u.t.u.u.e.k.x.b.l.r.6.5.5.6.8.5.6.l.x.l.c.c.z.b.l.q.5.7.4.:.-.*.;.4.7.8.0.z.c.b.c.c.c.c.x.c.x.z.x.y.u.y.y.p.p.a.i.i.y.y.y.",
"y.y.u.u.y.i.p.u.k.c.m.z.t.6.6.7.6.7.5.7.z.c.x.b.c.c.m.z.w.5.8.6.:.-.*.;.3.5.5.8.z.c.b.v.c.v.v.c.v.b.v.v.i.i.u.i.y.y.y.u.u.u.i.u.",
"u.i.i.u.y.u.i.i.x.b.M.z.t.6.5.6.4.6.6.8.x.b.n.M.n.n.M.z.w.4.6.5.=.=.&.;.3.6.7.9.c.b.n.n.n.m.m.n.n.m.n.v.p.u.y.u.a.i.i.p.t.y.y.t.",
"e.e.w.w.t.u.u.y.k.z.c.j.t.8.8.7.5.6.6.8.j.z.x.c.x.x.c.h.e.7.8.7.,.,.>.1.7.9.0.w.l.z.z.z.x.x.c.x.z.x.z.k.d.a.p.a.y.u.i.a.w.r.y.u.",
">.<.>.1.w.i.u.u.a.p.d.s.u.t.t.r.8.7.6.6.p.p.a.p.a.a.s.a.y.t.t.t.k.l.k.j.z.x.l.z.s.a.a.a.a.a.a.a.a.a.a.d.k.z.x.x.b.v.x.h.2.:.-.-.",
"&.*.%.-.0.i.u.i.u.t.u.i.u.i.p.y.8.6.6.6.y.y.i.y.y.y.y.u.i.i.p.p.c.n.b.v.n.n.v.v.p.u.y.u.u.y.y.y.u.y.u.p.v.n.m.m.v.b.c.k.>.=.=.-.",
"=.:.*.;.q.u.t.y.i.y.y.u.y.u.u.t.7.5.6.6.y.y.p.u.u.u.y.t.u.u.y.u.z.b.b.v.n.m.n.n.a.i.y.u.u.y.y.u.u.u.u.u.v.v.v.v.m.m.b.z.;.*.&.*.",
"-.,.-.:.0.y.e.y.y.r.y.y.t.y.u.t.9.5.7.6.e.e.y.e.r.u.y.r.y.t.t.i.x.n.n.v.n.n.v.v.i.t.r.t.t.r.r.t.t.t.y.t.z.l.z.z.l.l.k.k.;.;.:.>.",
"u.e.y.y.9.6.7.5.7.7.7.7.8.8.8.8.6.6.6.6.6.7.7.7.9.6.7.8.6.6.8.8.z.b.n.v.v.b.b.c.w.6.7.9.6.7.9.7.7.7.7.8.8.9.9.9.8.9.9.q.t.y.t.u.",
"u.r.i.u.0.6.8.7.6.6.6.6.6.6.5.5.6.6.6.6.6.7.7.7.6.4.5.7.5.6.8.8.x.b.m.b.b.n.n.v.q.6.6.7.4.5.6.4.6.6.6.6.7.7.7.7.6.6.6.8.t.u.y.y.",
"u.y.i.y.8.4.5.5.7.7.7.7.6.6.6.6.6.6.6.6.6.6.6.6.6.4.6.7.5.5.8.9.z.v.b.v.c.v.v.x.e.8.7.8.6.7.7.6.5.6.6.5.5.5.5.5.7.7.6.9.u.a.p.i.",
"u.u.u.y.r.w.w.w.q.q.q.0.0.0.0.0.q.q.q.q.w.w.w.w.q.9.0.0.6.5.7.8.j.l.z.l.l.z.l.k.6.3.2.4.5.6.6.6.9.9.9.9.9.9.9.9.0.q.0.w.i.a.i.p.",
"u.u.u.a.h.z.z.z.c.c.c.c.c.c.v.v.c.c.c.c.c.c.c.c.i.t.t.r.8.5.6.7.8.8.9.8.9.9.8.7.,.:.;.,.4.6.7.8.r.t.y.y.y.y.y.u.z.c.x.x.b.b.v.b.",
"u.u.y.p.z.m.m.n.b.b.b.n.n.n.n.n.v.v.v.v.v.v.v.v.d.p.i.y.9.5.6.6.6.6.6.6.7.7.6.5.=.=.&.;.4.6.7.9.y.u.i.i.i.i.p.a.v.n.n.b.n.b.v.b.",
"u.i.t.u.k.v.x.x.b.b.b.v.v.v.v.c.n.n.n.n.n.b.b.b.a.i.i.t.9.5.6.6.7.6.6.6.7.7.6.5.=.=.&.-.3.6.5.8.t.u.i.u.y.y.u.i.c.b.v.v.n.n.v.b.",
"u.a.u.u.k.c.x.c.c.c.x.z.z.l.k.k.k.k.k.j.j.j.j.j.u.t.y.r.8.5.6.7.9.8.8.8.9.9.8.7.4.4.1.3.w.e.q.t.y.u.i.u.y.t.y.u.j.k.j.k.c.v.x.x.",
"i.i.i.i.i.i.i.i.y.u.p.u.0.7.8.7.7.7.7.7.6.6.5.5.7.5.6.7.5.6.8.7.r.t.u.y.t.t.y.i.z.x.v.c.x.b.b.z.i.u.i.t.9.6.8.7.7.7.6.8.t.i.y.y.",
"y.y.y.y.y.y.y.y.u.u.p.y.9.6.6.5.4.5.6.6.7.7.7.8.7.5.6.6.4.4.6.5.t.y.u.u.y.y.u.i.v.v.n.b.c.b.n.z.p.u.i.t.8.5.6.5.6.7.6.9.y.p.u.u.",
"u.u.u.u.u.u.u.u.i.u.p.y.9.6.7.6.6.7.6.4.6.4.4.5.5.5.7.7.5.6.8.8.y.u.i.i.u.u.u.p.x.x.b.v.x.b.n.c.p.i.i.t.9.6.7.6.5.6.5.8.t.i.u.u.",
"t.t.t.t.t.t.t.t.t.r.t.r.8.6.7.6.5.4.3.2.w.q.q.q.9.8.0.0.6.6.8.7.y.u.i.i.u.u.i.i.z.z.v.c.l.z.c.l.y.r.t.e.8.6.7.6.8.9.8.0.t.u.y.u.",
"7.7.7.7.7.7.7.7.8.7.9.9.5.5.6.5.:.;.;.<.f.l.z.z.v.c.v.z.s.i.i.u.y.u.u.u.u.u.u.i.u.u.i.t.9.8.8.6.9.8.9.8.5.5.6.6.r.t.r.t.i.i.u.i.",
"5.5.5.5.5.5.5.5.6.4.6.7.5.5.7.5.;.*.*.>.l.n.M.m.n.b.b.z.s.y.y.t.u.u.u.u.u.u.u.u.i.u.i.t.8.6.6.5.6.5.6.7.4.5.7.6.u.i.u.u.i.i.y.u.",
"6.6.6.6.6.6.6.6.7.5.6.7.6.6.8.6.,.-.=.;.l.c.v.c.v.v.b.x.s.u.i.u.u.u.u.u.u.u.u.u.y.t.u.t.8.5.7.7.7.5.7.7.5.6.8.7.t.u.u.y.u.u.t.u.",
"6.6.6.6.6.6.6.6.8.6.6.7.5.6.6.4.;.=.*.-.l.v.n.b.b.b.n.x.s.y.u.u.i.u.u.u.u.u.u.u.u.u.i.t.8.4.6.6.7.6.7.7.5.6.7.6.t.u.u.y.i.u.y.i."
};
