/* XPM */
static char *_dcb842a4a4a4edafd14509481d4f7c6YSFeNoKRlBK2hGCB[] = {
/* columns rows colors chars-per-pixel */
"64 64 256 2 ",
"   c black",
".  c #010101",
"X  c #020202",
"o  c gray1",
"O  c #040404",
"+  c gray2",
"@  c #060606",
"#  c #070707",
"$  c gray3",
"%  c #090909",
"&  c gray4",
"*  c #0B0B0B",
"=  c #0C0C0C",
"-  c gray5",
";  c #0E0E0E",
":  c gray6",
">  c #101010",
",  c #111111",
"<  c gray7",
"1  c #131313",
"2  c gray8",
"3  c #151515",
"4  c #161616",
"5  c gray9",
"6  c #181818",
"7  c #191919",
"8  c gray10",
"9  c #1B1B1B",
"0  c gray11",
"q  c #1D1D1D",
"w  c #1E1E1E",
"e  c gray12",
"r  c #202020",
"t  c gray13",
"y  c #222222",
"u  c #232323",
"i  c gray14",
"p  c #252525",
"a  c gray15",
"s  c #272727",
"d  c #282828",
"f  c gray16",
"g  c #2A2A2A",
"h  c gray17",
"j  c #2C2C2C",
"k  c #2D2D2D",
"l  c gray18",
"z  c #2F2F2F",
"x  c gray19",
"c  c #313131",
"v  c #323232",
"b  c gray20",
"n  c #343434",
"m  c #353535",
"M  c gray21",
"N  c #373737",
"B  c gray22",
"V  c #393939",
"C  c #3A3A3A",
"Z  c gray23",
"A  c #3C3C3C",
"S  c gray24",
"D  c #3E3E3E",
"F  c #3F3F3F",
"G  c gray25",
"H  c #414141",
"J  c gray26",
"K  c #434343",
"L  c #444444",
"P  c gray27",
"I  c #464646",
"U  c gray28",
"Y  c #484848",
"T  c #494949",
"R  c gray29",
"E  c #4B4B4B",
"W  c #4C4C4C",
"Q  c gray30",
"!  c #4E4E4E",
"~  c gray31",
"^  c #505050",
"/  c #515151",
"(  c gray32",
")  c #535353",
"_  c gray33",
"`  c #555555",
"'  c #565656",
"]  c gray34",
"[  c #585858",
"{  c gray35",
"}  c #5A5A5A",
"|  c #5B5B5B",
" . c gray36",
".. c #5D5D5D",
"X. c gray37",
"o. c #5F5F5F",
"O. c #606060",
"+. c gray38",
"@. c #626262",
"#. c gray39",
"$. c #646464",
"%. c #656565",
"&. c gray40",
"*. c #676767",
"=. c #686868",
"-. c DimGray",
";. c #6A6A6A",
":. c gray42",
">. c #6C6C6C",
",. c #6D6D6D",
"<. c gray43",
"1. c #6F6F6F",
"2. c gray44",
"3. c #717171",
"4. c #727272",
"5. c gray45",
"6. c #747474",
"7. c gray46",
"8. c #767676",
"9. c #777777",
"0. c gray47",
"q. c #797979",
"w. c gray48",
"e. c #7B7B7B",
"r. c #7C7C7C",
"t. c gray49",
"y. c #7E7E7E",
"u. c gray50",
"i. c #808080",
"p. c #818181",
"a. c gray51",
"s. c #838383",
"d. c #848484",
"f. c gray52",
"g. c #868686",
"h. c gray53",
"j. c #888888",
"k. c #898989",
"l. c gray54",
"z. c #8B8B8B",
"x. c gray55",
"c. c #8D8D8D",
"v. c #8E8E8E",
"b. c gray56",
"n. c #909090",
"m. c gray57",
"M. c #929292",
"N. c #939393",
"B. c gray58",
"V. c #959595",
"C. c gray59",
"Z. c #979797",
"A. c #989898",
"S. c gray60",
"D. c #9A9A9A",
"F. c #9B9B9B",
"G. c gray61",
"H. c #9D9D9D",
"J. c gray62",
"K. c #9F9F9F",
"L. c #A0A0A0",
"P. c gray63",
"I. c #A2A2A2",
"U. c gray64",
"Y. c #A4A4A4",
"T. c #A5A5A5",
"R. c gray65",
"E. c #A7A7A7",
"W. c gray66",
"Q. c #A9A9A9",
"!. c #AAAAAA",
"~. c gray67",
"^. c #ACACAC",
"/. c gray68",
"(. c #AEAEAE",
"). c #AFAFAF",
"_. c gray69",
"`. c #B1B1B1",
"'. c #B2B2B2",
"]. c gray70",
"[. c #B4B4B4",
"{. c gray71",
"}. c #B6B6B6",
"|. c #B7B7B7",
" X c gray72",
".X c #B9B9B9",
"XX c gray73",
"oX c #BBBBBB",
"OX c #BCBCBC",
"+X c gray74",
"@X c gray",
"#X c gray75",
"$X c #C0C0C0",
"%X c #C1C1C1",
"&X c gray76",
"*X c #C3C3C3",
"=X c gray77",
"-X c #C5C5C5",
";X c #C6C6C6",
":X c gray78",
">X c #C8C8C8",
",X c gray79",
"<X c #CACACA",
"1X c #CBCBCB",
"2X c gray80",
"3X c #CDCDCD",
"4X c #CECECE",
"5X c gray81",
"6X c #D0D0D0",
"7X c gray82",
"8X c #D2D2D2",
"9X c LightGray",
"0X c gray83",
"qX c #D5D5D5",
"wX c gray84",
"eX c #D7D7D7",
"rX c #D8D8D8",
"tX c gray85",
"yX c #DADADA",
"uX c gray86",
"iX c gainsboro",
"pX c #DDDDDD",
"aX c gray87",
"sX c #DFDFDF",
"dX c gray88",
"fX c #E1E1E1",
"gX c #E2E2E2",
"hX c gray89",
"jX c #E4E4E4",
"kX c gray90",
"lX c #E6E6E6",
"zX c #E7E7E7",
"xX c gray91",
"cX c #E9E9E9",
"vX c #EAEAEA",
"bX c gray92",
"nX c #ECECEC",
"mX c gray93",
"MX c #EEEEEE",
"NX c #EFEFEF",
"BX c gray94",
"VX c #F1F1F1",
"CX c gray95",
"ZX c #F3F3F3",
"AX c #F4F4F4",
"SX c gray96",
"DX c #F6F6F6",
"FX c gray97",
"GX c #F8F8F8",
"HX c #F9F9F9",
"JX c gray98",
"KX c #FBFBFB",
"LX c gray99",
"PX c #FDFDFD",
"IX c #FEFEFE",
"UX c white",
/* pixels */
"S F G H F G G S G G D D D H H J D Z G J S F H F K G F A S F J V D D J A A F F F J G G F H H H Z S H G S G P S K H Z G G G K G G ",
"| o.#.-.&.5.>.O.X.$.#.&.o.O.#.>.#.#.-.+.,.=.$.>.>.=.#.#.@.+.| G ..%.&.@. .=.=.,.<.=.-.*.&.@.o.o.O.,.$. .<.1.&.-.$.O...#.@.%.@.#.",
"h.B.k.c.f.g.z.t.u.y.t.i.h.l.g.g.p.h.p.j.m.A.A.n.b.z.h.g.s.u.` F *.a.m.b.l.z.M.V.S.M.A.V.n.m.M.N.B.c.k.C.D.V.C.Z.x.g.s.g.f.f.x.k.",
"H.S.H.V.n.m.l.k.j.s.z.v.A.H.G.b.B.b.j.c.C.G.G.F.H.b.j.v.l.r.^ G %.l.U.S.J.W.P.~.`./._.(.W.Q.U.I.T.D.U././.E.R.K.Z.K.D.S.K.G.K.C.",
"b.x.B.b.l.n.v.i.q.r.s.l.z.M.M.k.l.k.t.h.n.c.x.v.j.a.f.d.a.,.E G =.V.Q.D.n.L.D.Z.S.G.B.H.D.M.z.j.n.M.z.S.Z.V.D.x.d.B.A.n.S.A.V.b.",
"u.s.z.p.p.g.c.i.w.t.0.0.q.p.g.z.h.y.y.r.y.s.f.f.y.t.p.r.w.=.T G =.D.W.V.p.u.c.a.t.v.v.v.d.u.s.c.h.j.u.s.b.j.x.x.i.a.z.g.m.A.v.i.",
"w.u.h.u.p.s.k.s.t.a.g.a.a.a.p.s.h.s.d.z.w.9.r.u.s.y.i.g.q.%.E S %.A.^.N.v.t.y.a.a.k.j.i.i.s.s.l.d.f.u.l.k.g.b.g.w.i.g.l.i.f.u.t.",
"p.y.a.l.a.d.i.0.s.s.k.d.p.d.t.5.r.f.d.i.s.i.i.a.s.a.p.f.q.3.^ D #.n.^.S.a.w.u.a.y.u.r.t.s.r.s.f.e.y.i.d.s.u.p.r.j.l.p.a.q.7.i.d.",
"k.h.p.f.s.e.9.e.a.l.j.j.l.s.t.e.h.k.i.y.u.g.g.p.h.l.y.w.0.3.Q Z #.m.E.D.i.q.p.d.a.z.0.i.s.8.6.5.q.h.d.7.w.t.r.u.t.u.p.d.u.y.a.l.",
"r.s.d.y.i.i.s.p.s.z.l.k.b.z.i.h.z.h.p.j.p.p.a.u.z.z.y.8.6.7./ H -.A.R.x.i.d.h.g.p.s.a.w.0.w.8.u.a.x.p.y.a.p.w.f.f.j.f.u.u.w.w.y.",
"i.d.j.p.y.i.j.l.f.h.d.g.j.g.i.g.j.h.l.c.h.a.d.0.s.n.x.w.,.4._ J *.N.R.l.r.k.j.z.r.9.t.t.s.l.j.x.k.h.r.d.j.g.u.g.l.j.d.k.m.d.w.r.",
"h.a.d.z.g.f.d.h.d.s.z.z.y.u.0.y.h.h.l.g.h.h.h.e.i.z.a.i.5.:.) F ,.B.J.B.s.a.z.f.t.t.y.f.l.k.x.x.x.f.u.f.d.p.d.a.f.k.j.l.v.f.s.j.",
"w.0.p.b.c.c.z.z.k.x.l.x.y.y.h.g.i.t.s.k.x.m.f.k.g.u.u.q.,.<.^ H <.B.K.m.g.w.c.h.y.p.d.s.d.j.x.B.x.j.f.g.a.y.h.g.x.x.j.k.d.i.d.x.",
"i.t.p.j.j.d.h.g.f.j.f.f.s.f.a.u.q.9.s.g.j.h.7.y.f.i.q.w.,.*.^ G ..x.U.n.z.g.s.p.i.a.i.w.u.h.d.s.j.z.p.d.j.d.f.c.l.g.g.x.h.d.p.d.",
"p.e.9.t.p.i.h.d.y.p.t.i.g.x.v.h.e.9.d.e.i.p.q.y.i.a.r.8.;.;.^ D  .m.P.b.a.p.p.g.f.d.a.y.s.z.z.y.h.l.y.d.c.f.e.j.t.d.k.a.p.d.i.i.",
"w.a.s.g.i.y.d.p.t.r.a.a.u.f.l.k.d.u.g.e.w.i.t.t.d.d.i.8.@.@.W S o.h.S.z.p.p.u.f.f.h.M.j.u.s.v.c.s.a.u.s.l.s.w.g.f.x.c.u.d.j.p.i.",
"t.j.b.k.h.l.a.d.a.s.i.y.s.p.t.i.p.u.i.q.9.q.t.t.d.h.q.-...%.W F =.m.Z.h.p.p.h.x.s.s.M.x.i.y.g.z.v.a.u.p.u.a.u.d.z.z.v.l.a.g.h.d.",
"j.l.u.i.j.x.l.s.0.y.t.9.p.d.0.u.p.6.2.8.3.q.u.r.y.a.y.0.3.=.! F 2.K.~.k.d.j.c.k.f.i.s.j.d.y.g.g.z.k.s.v.b.a.t.f.k.i.h.f.u.f.d.f.",
"s.d.y.t.r.q.u.d.u.r.q.t.u.i.i.h.f.w.7.w.u.s.l.f.i.8.8.0.-.,.~ S =.A.Y.M.s.i.x.j.a.d.d.g.p.w.a.r.s.s.u.x.b.g.a.p.u.u.f.d.h.d.g.d.",
"u.e.u.9.0.p.q.u.a.t.r.y.0.0.u.y.e.y.r.p.k.a.p.u.y.f.s.6.>.;.R F %.J.P.b.f.a.p.d.h.d.h.f.u.w.d.l.s.z.d.j.k.j.v.g.g.f.i.t.b.k.h.u.",
"w.t.p.q.w.z.y.9.e.p.a.9.6.r.y.r.3.6.9.g.z.a.w.t.i.k.z.i.4.;.W G *.F.~.k.s.f.f.c.d.u.u.e.t.q.f.h.u.n.h.l.c.j.x.f.i.e.r.i.l.z.a.e.",
"0.j.z.c.f.a.d.t.9.9.e.t.9.9.y.p.h.s.9.0.a.p.r.s.g.l.a.q.3.,.R K @.f.U.b.d.p.h.j.j.z.d.p.g.a.k.d.h.h.f.s.s.a.0.w.t.0.0.k.t.y.d.f.",
"f.z.k.n.c.a.z.g.u.9.w.k.u.5.t.p.z.l.a.r.x.c.f.h.g.j.u.3.6.:.R H =.l.m.a.i.a.s.u.x.b.h.f.f.p.a.s.e.0.h.g.p.d.9.w.p.t.9.v.f.r.a.u.",
"h.g.h.r.r.0.a.d.h.s.u.t.q.q.a.l.d.u.d.g.j.c.g.h.c.k.u.7.1.=.P F @.f.M.g.a.k.g.i.c.N.n.k.s.s.q.r.u.s.u.r.e.a.i.q.e.w.q.s.h.r.r.t.",
"w.s.g.a.g.j.z.h.d.g.p.u.y.f.s.s.p.p.f.p.i.g.d.p.k.v.h.7.O.-.U J ..f.M.x.u.f.u.w.d.v.b.k.g.t.w.e.k.f.l.x.r.s.s.q.q.q.r.i.d.g.a.i.",
"8.p.z.x.h.c.x.c.k.g.d.y.a.g.r.t.i.f.d.j.h.f.l.z.d.d.j.7.#.1.) F o.k.m.c.r.u.8.0.y.k.b.i.s.b.x.y.s.h.N.b.f.d.f.s.i.q.9.u.h.n.h.a.",
"s.x.B.n.c.M.M.z.B.N.k.u.s.t.y.d.f.l.h.g.z.m.m.z.h.w.9.1.&.#.Q D o.d.V.m.p.i.k.M.l.c.M.b.v.Z.D.B.B.V.C.N.c.b.n.M.j.d.h.j.n.C.c.j.",
"m.C.M.V.K.K.K.b.M.C.v.l.c.g.x.b.v.j.k.z.x.b.j.s.d.y.9.3.$.O.Y A #.b.K.v.g.M.D.A.Z.c.f.S.D.C.F.J.L.L.F.F.D.V.v.B.M.M.F.N.S.F.M.k.",
"y.g.y.g.z.g.h.h.f.i.q.7.e.g.x.z.l.q.6.6.8.y.y.e.i.i.8.&.( } J G <.V.P.D.g.n.n.z.v.j.0.a.d.s.g.s.d.p.h.z.f.q.r.a.a.d.c.g.a.d.t.r.",
";.4.>.$.$.%.%.:.-.:.>.3.-.-.4.7.0.&...%.=.*.-.&.,.1.*.{ [ X.J H ;.M.N.z.e.r.w.8.w.9.;.+.#.=.&.@.-.-.:.1.<.*.;.2.;.-.2.<.-.*.=.<.",
":.>.=.o.-.>.%.@.-.1.-.8.6.=.>.$.O.%.%.&.%.&.,.>.:.>.-.#.;.$.I S &.j.i.8.8.7.1.6.<.*.@.#.+.*.*.-.:.,.,.>.$.$.%.+.+.o.$.$.*.$.$.*.",
"T Q ~ { o.{ ^ Q Q ) / ) ] ' _ E R / [ ] ` ^ Q ` _ E ~ ) / ^ T F X.| ] ( / ( / W W U I ! K I E / W ] { E L Y T L P I R ~ R E Y T ",
"H H G H K G H D G D F K G J D S G A D D K L G G G S G G F H S F H G K Z Z S G Z S G G S A Z A H G S L J G S S G S S D L H A H D ",
"] :.3.<.@.&.*.*.>.O.o.;.O.} +.#.:.o.O.-.;.<.;.-.&.#.%.+.O.@.#.=.$.$.@.{ { | ..%... .%.&.-. .} =.*.+.@.%.&.-.=.,.>.@.=.-.O. .^ A ",
";.V.A.x.z.c.j.M.B.M.g.l.c.c.N.M.n.x.x.M.V.N.N.V.V.B.b.M.n.z.g.N.v.c.B.m.k.y.f.p.y.a.h.k.l.s.y.a.d.i.d.f.m.v.N.m.n.j.d.y.r.6.! A ",
"%.z.W.T.).].E.L.T.Y.P.G.Z.Y.P.Y.U.K.E.E.E.^._._.^.^.U.K.H.F.D.I.R.T.K.Y.I.S.F.V.N.M.x.v.M.M.f.n.n.n.V.A.P.H.H.L.Z.B.V.f.e.&.W S ",
"%.x.W.^.Y.W.!.H.L.G.F.D.F.L.H.G.P.P.U.R.I.U.R.I.D.I.I.A.A.L.Y.Y.P.H.S.E.!.~.U.n.L.L.G.J.K.A.C.S.A.Q.~.H.K.Z.H.R.Z.B.J.b.q.=.! F ",
"*.l.G.T.l.d.V.l.a.j.j.g.h.l.n.b.l.j.a.f.c.z.j.t.u.i.a.i.a.y.p.v.M.k.g.v.m.B.x.a.x.h.t.a.g.p.e.a.z.h.B.n.j.y.g.k.h.i.l.x.q.-./ F ",
"=.z.Y.U.a.t.B.k.t.p.z.p.8.p.f.z.z.h.d.i.g.x.y.u.g.t.9.0.y.w.w.i.y.p.k.v.k.g.h.c.k.z.a.i.a.p.4.u.a.k.l.d.a.d.g.b.z.d.k.z.9.%.) F ",
";.n.).W.g.f.k.k.z.f.s.0.6.i.f.a.d.s.d.s.b.h.i.l.k.d.i.4.5.t.r.r.r.c.x.s.g.b.x.c.b.x.h.k.u.8.t.f.m.M.d.u.d.u.f.h.z.g.d.h.8.o.^ D ",
"-.n.W.T.v.a.g.x.b.z.g.9.0.u.g.j.l.t.i.g.b.d.y.g.k.f.s.w.e.s.i.e.d.n.x.s.a.g.d.j.l.b.b.z.9.a.c.z.k.z.d.d.d.s.f.s.k.k.z.h.0.&.~ H ",
";.x.T.H.b.l.h.h.u.u.p.u.9.w.u.d.f.j.h.g.u.0.q.t.u.j.i.d.t.a.d.d.j.j.d.p.g.k.j.s.s.i.k.h.u.c.h.s.y.e.d.v.h.p.a.d.v.n.k.f.9.$.~ D ",
";.v.W.K.j.x.d.d.p.a.g.g.w.p.r.2.0.p.y.u.k.p.t.d.g.l.g.e.s.y.q.t.s.i.y.e.f.j.k.d.u.u.e.i.x.v.v.f.f.8.i.k.g.u.p.k.c.x.u.u.4. .E D ",
";.V.).R.j.g.r.k.p.r.p.t.9.w.q.0.s.z.p.0.d.g.f.z.c.k.j.r.h.s.6.e.y.9.9.e.h.s.y.s.f.g.p.s.g.z.z.g.f.p.g.t.r.g.j.x.c.x.s.p.-.^ L Z ",
"*.b.T.G.h.i.e.i.r.i.y.9.y.e.y.8.s.m.z.i.t.h.h.k.x.g.p.f.g.s.q.p.f.a.i.f.k.a.9.e.k.y.i.z.a.d.j.c.h.k.c.b.d.g.j.d.g.h.j.k.2.` I S ",
"X.k.J.Z.s.t.i.7.i.p.e.8.w.a.u.p.p.y.s.p.p.x.c.n.v.z.s.s.h.g.i.y.h.m.c.k.s.a.y.s.u.5.8.s.j.h.m.m.x.m.C.v.h.y.a.c.c.g.s.f.7.} T G ",
"X.x.Y.H.a.r.s.a.h.r.e.r.9.y.e.l.s.6.d.a.i.g.j.v.z.h.a.d.f.v.c.p.a.z.k.g.a.d.s.a.5.q.h.f.k.z.s.k.z.z.b.f.k.r.y.z.v.b.g.r.8.@.! G ",
"%.l.L.Z.u.y.j.s.f.g.i.i.s.t.t.f.g.q.q.9.w.r.5.i.a.7.u.f.y.k.n.h.p.h.c.x.g.g.a.r.9.t.u.d.f.h.l.h.f.b.m.d.l.k.y.t.g.N.c.u.w.$.^ S ",
"*.c.Y.C.t.i.m.s.y.l.r.8.i.p.g.h.s.w.y.j.t.7.8.y.y.y.6.r.i.k.p.u.r.0.j.f.a.g.p.e.i.g.i.s.c.g.s.p.c.v.p.y.x.M.g.0.l.n.c.v.8.#.) S ",
":.B.K.F.g.u.r.r.9.d.t.f.y.y.d.g.i.i.s.g.d.a.q.r.a.i.0.8.y.u.q.t.u.5.9.9.t.i.c.s.e.x.l.d.z.p.u.u.k.z.0.w.f.y.d.g.z.z.k.z.q.=.( Z ",
"1.b.L.I.d.a.q.t.9.a.z.h.0.7.i.k.d.j.x.j.g.z.h.y.s.d.i.7.f.h.y.a.k.s.l.p.s.g.s.g.e.e.j.v.h.y.s.g.h.p.p.k.d.e.d.b.d.u.a.h.0.-.' Z ",
"&.g.D.P.k.t.7.g.s.i.g.s.y.5.0.h.x.l.h.x.v.c.g.y.p.l.f.q.w.d.d.j.l.s.v.b.y.e.a.x.l.e.i.a.q.e.c.k.p.r.x.B.x.k.h.z.j.f.u.a.q.-.` D ",
"#.i.B.F.z.t.0.r.h.h.s.b.c.w.y.g.v.x.s.d.z.z.x.z.g.i.9.y.w.f.c.u.t.i.d.l.i.8.i.j.l.h.u.2.8.r.x.l.y.f.d.g.v.h.d.i.a.p.r.s.w.@.Q F ",
":.j.A.L.k.u.5.w.f.h.i.d.y.e.k.a.f.l.d.e.u.f.z.h.p.p.u.s.9.0.i.w.0.p.i.7.u.s.q.i.i.p.a.9.y.s.h.x.d.h.w.e.k.s.h.a.d.d.s.i.;.] E A ",
"=.j.m.H.V.v.p.f.j.k.j.u.9.e.d.i.a.z.x.h.v.l.p.h.q.q.f.d.w.9.r.p.i.g.f.e.y.p.0.u.d.u.i.s.f.f.h.g.p.u.9.r.h.h.c.k.l.j.j.s.1.X.E A ",
":.f.A.L.z.m.z.r.s.g.s.i.y.d.p.i.t.i.j.x.M.k.i.s.f.i.e.e.t.t.e.i.p.k.u.a.a.t.t.e.s.f.e.j.b.a.e.r.e.t.0.e.f.g.g.l.g.d.x.f.<.} K F ",
"%.a.A.E.h.p.p.e.y.h.h.s.h.z.u.s.j.u.a.f.k.v.u.d.g.6.w.u.y.g.h.i.t.i.i.h.f.r.p.p.s.s.e.g.m.v.r.q.8.r.i.p.s.c.j.b.c.d.m.k.;.` K A ",
"X.f.Z.P.z.p.t.q.r.d.t.y.t.r.x.b.k.h.n.z.v.v.a.d.d.5.e.w.y.l.h.s.0.y.f.h.c.z.a.p.y.u.i.y.p.h.p.q.2.i.f.h.k.g.s.h.h.f.y.u.1.) P S ",
">.c.F.H.l.z.h.t.7.p.y.r.w.0.l.M.M.d.y.v.b.i.t.d.a.u.e.a.s.u.i.d.h.g.j.j.b.b.c.h.s.r.i.h.d.p.a.7.r.a.d.h.m.e.q.g.s.p.r.8.q.X.Y F ",
"7.n.J.P.h.h.j.f.p.j.j.g.c.z.a.c.m.h.y.l.v.j.k.p.c.V.v.x.m.d.h.n.M.l.b.A.b.s.k.j.j.v.C.F.Z.V.C.g.x.g.d.x.x.g.l.g.d.z.y.j.8.@.Q H ",
":.h.m.V.M.x.b.n.n.m.b.N.S.n.j.N.n.l.B.c.b.b.C.c.F.F.K.n.b.n.m.S.Z.M.B.F.C.n.c.v.l.b.N.K.J.Z.S.C.N.z.c.b.c.N.M.c.b.F.N.l.4.] R S ",
"&.e.w.e.i.j.i.u.i.p.e.e.e.2.7.4.t.r.a.u.s.w.5.q.d.y.a.7.,.6.r.t.r.r.8.8.0.r.q.7.4.6.4.u.e.0.a.g.w.1.w.s.s.e.9.7.q.t.u.8.,.O.! S ",
";.1.;.O.$.2.*.#.-.*. .} X.| { |  .o.O.+.o.$.#._ $.X.X._ ] } %.&.X...o.O.} ' | o.o.@.@.+.|  ...@.+.} ) %.;.%.| ..$.] { X.o.#.~ C ",
"} ` ' ) ( ' ` } { ) ( ` / _ _ ' [ { ` ] ' ] ] ) / ! ^ ) ! ( / [ ^ ! / ^ / ^ T T ^ / / E T E ! R ' ( Q R Q ^ ~ ` ] ^ ~ ) _ ] / D "
};
