/* XPM */
static char *_179eae2b3e54847a22107b6d5bd9ddeBiavEs1NUYVjVjBQ[] = {
/* columns rows colors chars-per-pixel */
"64 64 203 2 ",
"   c #010101",
".  c #0C0C0C",
"X  c #131313",
"o  c #1C1C1C",
"O  c #222222",
"+  c #2A2A2A",
"@  c #3C3C3C",
"#  c #343434",
"$  c #76230C",
"%  c #7A240C",
"&  c #7C280D",
"*  c #7E2611",
"=  c #7D2911",
"-  c #772710",
";  c #84270E",
":  c #87290F",
">  c #8E2B0E",
",  c #8B270D",
"<  c #922C0E",
"1  c #982D0D",
"2  c #8D300D",
"3  c #93310E",
"4  c #99310E",
"5  c #852712",
"6  c #862A11",
"7  c #8D2B11",
"8  c #8A2712",
"9  c #922E12",
"0  c #992F12",
"q  c #9B2F19",
"w  c #8F3112",
"e  c #963012",
"r  c #9C3113",
"t  c #96361B",
"y  c #9B361C",
"u  c #9C391C",
"i  c #A4310F",
"p  c #AD360E",
"a  c #A32C13",
"s  c #AB2E14",
"d  c #A43314",
"f  c #AA3413",
"g  c #A43915",
"h  c #AC3813",
"j  c #A53419",
"k  c #AB3518",
"l  c #AF3818",
"z  c #B33613",
"x  c #BA3614",
"c  c #B43915",
"v  c #BD3B16",
"b  c #B43519",
"n  c #B93619",
"m  c #B53918",
"M  c #BD3C19",
"N  c #BD3A0E",
"B  c #AB3E22",
"V  c #A63C22",
"C  c #C33B15",
"Z  c #C83E17",
"A  c #C93D15",
"S  c #CD3F17",
"D  c #C93C15",
"F  c #C03B18",
"G  c #C13A1A",
"H  c #C13C19",
"J  c #C33D18",
"K  c #C23D1A",
"L  c #C63D19",
"P  c #C23C19",
"I  c #C93E19",
"U  c #CA3E19",
"Y  c #C2371A",
"T  c #D23E17",
"R  c #D13E16",
"E  c #D23E18",
"W  c #D13F18",
"Q  c #DB3F1B",
"!  c #C63C0E",
"~  c #85462D",
"^  c #89472F",
"/  c #89492F",
"(  c #874630",
")  c #8E4A33",
"_  c #954C33",
"`  c #9C4F35",
"'  c #9B5239",
"]  c #9F5032",
"[  c #AE4124",
"{  c #A45236",
"}  c #AB5436",
"|  c #AE563A",
" . c #AB5A3E",
".. c #A5553A",
"X. c #B2593C",
"o. c #B25739",
"O. c #B6603F",
"+. c #CF4016",
"@. c #CE4115",
"#. c #CC411A",
"$. c #C54017",
"%. c #D44117",
"&. c #DB4316",
"*. c #D24019",
"=. c #D54119",
"-. c #D6421A",
";. c #D74419",
":. c #D6441A",
">. c #D6421C",
",. c #D7451E",
"<. c #D7451C",
"1. c #D5431A",
"2. c #DB4218",
"3. c #DB4319",
"4. c #DB431A",
"5. c #D84319",
"6. c #DD431A",
"7. c #DB4419",
"8. c #D9441A",
"9. c #D8451A",
"0. c #DA451A",
"q. c #DC451A",
"w. c #DB431C",
"e. c #D8441C",
"r. c #DB461C",
"t. c #DA441B",
"y. c #E4421C",
"u. c #C64322",
"i. c #CB4522",
"p. c #D64621",
"a. c #D64925",
"s. c #DC4C26",
"d. c #DC4B2B",
"f. c #DF4720",
"g. c #E44120",
"h. c #B95F40",
"j. c #BA6141",
"k. c #8B8C8B",
"l. c gray53",
"z. c #8B918C",
"x. c #959694",
"c. c #9C9C9C",
"v. c #939A96",
"b. c #A4A4A4",
"n. c #AEA7A5",
"m. c #A7A9A4",
"M. c #ACA9A6",
"N. c #A6AAA9",
"B. c #ADACAC",
"V. c #B2ACAC",
"C. c #B2A9A7",
"Z. c #ADB2AD",
"A. c #B1B2AE",
"S. c #B9B1AF",
"D. c #AEAEB0",
"F. c #B3AEB2",
"G. c #B8AFB4",
"H. c #AEB0B2",
"J. c #AFB8B3",
"K. c #B3B3B2",
"L. c #B6B5B8",
"P. c #BBBBBB",
"I. c #B5B6B3",
"U. c #C3ADAC",
"Y. c #CEB3AF",
"T. c #D1B3AF",
"R. c #CCB6B6",
"E. c #CEB9B6",
"W. c #C6B9B8",
"Q. c #D2B6B5",
"!. c #D3BBB5",
"~. c #D9BEB5",
"^. c #D3BAB9",
"/. c #DABDB9",
"(. c #BDC2BE",
"). c #C6C2BE",
"_. c #C9C1BE",
"`. c #DDC0B8",
"'. c #BCBBC0",
"]. c #BDC6C1",
"[. c #C4C4C3",
"{. c #CAC6C4",
"}. c #C6C9C6",
"|. c #C9C9C6",
" X c #CBC7CA",
".X c #C7CCCA",
"XX c #CDCDCD",
"oX c #D1CCCD",
"OX c #CDD2CE",
"+X c #D1D2CE",
"@X c #CDCED0",
"#X c #D1CFD3",
"$X c #CDD2D1",
"%X c #D1D1D1",
"&X c #DADBD6",
"*X c #D7DCDB",
"=X c #DBDCDB",
"-X c #D8D7D7",
";X c #E0DCDB",
":X c #DBE0DE",
">X c #DEDEE0",
",X c #DBE1E1",
"<X c gray88",
/* pixels */
"4.6.w.4.+.Z Z Z n x c c h d d p >.7.7.4.D I L Z x c c m f d f k E y.4.:.A Z Z Z c v m c h d d h w.&.7.>.S I I D m x v m h d d f ",
"4.4.w.>.Z Z Z L x x x c h f h f >.4.7.>.D #.L Z m x c x p d f k E r.4.7.A #.Z Z v x c z f h p h >.>.7.%.S I I Z x c c c h i f f ",
"4.4.w.>.+.Z I L v x x c f d f f T 7.q.:.D #.L L N c x c p p h b >.r.4.:.Z L #.Z x x x m f d p p %.4.q.:.#.I L L x x v c p i d h ",
"4.4.4.>.$.Z Z L m c c h d d d p 1.7.7.&.D L L L m x c c d r d d T r.&.7.Z Z Z C c N c h f d d d >.&.q.%.S L L Z c c c c d r d d ",
"q.6.w.>.I C C v k h h d 0 0 0 0 T 7.7.:.D Z F C f f f d 0 1 9 q >.r.:.:.Z D v F k f f d r < 0 r >.&.7.:.$.Z C C h k h d r < 0 < ",
"7.6.w.>.Z v C F k f k j 0 7 < 0 >.:.:.:.D F C v k h k j 0 9 9 9 T e.&.:.D F C C f f h a 0 7 < e >.:.7.:.D F C v k k k a < < 9 9 ",
"q.6.4.*.Z v v v k f d d e 7 9 0 T 4.7.:.C F F C f h f j 9 < 9 q T 7.7.:.Z F v C k h d d 0 7 0 e >.>.7.:.Z C F v k f h d e w 9 7 ",
"7.4.w.1.Z C J v k f h d 0 7 < 0 1.:.7.:.D C F F f p f d < < 9 e T e.%.1.D C C v f f p r 0 9 < e %.&.7.:.C F v C f p f d < 7 e e ",
"7.4.w.<.C J C F f f s d < 9 7 e W e.6.<.D v G C f f p g 0 9 9 9 +.e.6.7.D v J C h p f d < w < r >.7.7.:.Z J J v k f d d 0 9 7 9 ",
"7.4.w.p.C J J M k f f f < < 0 e 1.r.4.7.J G G C f f d d < 7 9 0 +.7.4.7.Z v M F k i f j 9 9 > r %.7.7.:.D J M C k s p d 0 7 9 9 ",
"7.4.e.<.! v v v k f s d < 7 9 e W e.4.e.D J J F f f d d 9 9 9 0 +.7.4.:.C C F C k p f d < 9 < r >.:.7.:.C C C v h f f a e 7 7 e ",
"7.4.7.<.C $.$.v f f p d < 9 < e 1.7.&.>.G G J F f f s d < 9 9 9 +.7.4.7.D C F v h a f j 9 9 < e %.7.&.>.Z C M C f f f d e 9 7 w ",
"7.4.w.<.C C v v f k p k < 9 9 e W e.6.<.D G F C f z p d < 9 9 0 +.<.&.4.D v G C k i f j 9 9 < 0 >.4.7.:.F C G v k s p d 0 9 9 9 ",
"7.4.w.p.C $.J v f f i d < e 9 0 1.r.4.4.D F G C f f d d 0 7 9 0 +.7.4.:.Z C v C f p f d < 7 < r %.4.7.:.D J F C h f d d 0 9 9 7 ",
"4.4.w.<.C C M v f f f d < > 9 e S e.4.<.F G G C f f p d < 9 9 0 +.e.7.7.D C J F k i f j < e > r >.7.7.:.D v G G f f f d e 7 7 e ",
"7.6.w.p.C J C Y f k h d < e 7 0 1.7.4.>.D C G C f h d d 0 7 9 0 +.e.4.7.C v M F k p f d 9 9 > r %.7.7.:.D L v v f f h k e 7 e 7 ",
"&.6.q.:.Z F C J k f s j < 7 9 q W w.g.Q I M J G f s f d e 9 9 q %.q.6.&.Z C G G h k s k < 7 9 d &.6.6.4.D L J x h k f a 0 9 9 7 ",
"7.7.<.,.L M K M h h i g 3 2 < e @.7.q.%.Z v v v h d i r e > > e #.,.g.7.$.M M K k k f g 3 2 7 e #.>.>.<.C v M n h h d d 3 e w w ",
"&.;.9.:.$.N v v p i d d < > < 0 @.:.7.1.Z v C C h p i d 3 < < 0 @.%.q.:.! N v C d s d g < > < a 7.q.r.7.D $.C v f d f d 1 < 9 < ",
"s.s.s.s.#.i.u.u.[ B B B r t t y a.d.d.d.i.u.u.u.[ [ [ V u t t y a.a.s.a.i.i.u.i.[ l j [ r t y y p.a.a.a.#.u.#.u.B l B B y t t t ",
"~.~././.`.E._.!.!.Q.Q.Q.U.U.U.U.!.`.`.!.!.`.E.`.Q.Q.Q.Q.R.R.R.^.Y.T.T.Y.!.!.E.E.^./.Q.Q.U.U.U.U.Y.T.T.T.!.!.^.^.!.~.^.Q.U.U.U.U.",
"=X;X;X=X:X*X:X=X=X:X=X=XOX$X$X%X&X&X&X=X=X=X&X:X:X=X=X=X*X:X:X,X+XXXoX+X=X<X:X=X=X=X=X=X$X$X$X%XOXXXoXoX&X=X=X=X=X=X=X-X$XOXOX$X",
"&X&X=X=X=X-X=X&X*X=X=X=X$X$XXX%X=X=X=X>X>X=X*X*X,X=X=X=X*X*X-X-X+XOXOX+X%X&X&X&X*X>X=X*X@X@XXX$XOXOX+X+X=X&X&X=X=X=X>X=X$XOX$X@X",
"=X=X=X=X=X=X=X=X.X X X|.P.P.P.P.{.{.}..X-X&X&X&X.X X X+X%X=X=X=XoX#XOXXX X X.X X-X=X-X-X[.W.P.P.P.'.P.P..X}..XoX=X=X=X&X%XXXXXXX",
"#XXX%X%X=X-X<X}.@ O o O O O O O O O O @ P.%X-X(.@ o O # P.%X%X%X-X-X=X X# O O + B.%X%X[.# O o O O O O O O o O @ [.>X-X=X@X@XXXXX",
" XXX@X%X=X-X<X}.o                     o L.#X%XP.O     o P.oXXX X=X=X-X[.o     X B.#X%XP.o                     o [.>X-X=X@X%XXXXX",
"XXoXoXOX=X=X=X[.o                     o P.XX@X).o     o P.%XXX#X=X=X;X[.o     X B.XXXXP.o                     o [.>X=X=X@X+X+XXX",
"XXOXXX#X=X-X-X}.O .   .           . . + K.%X$XP.O     o N.}.[.}.%X=X=X}.o     X m.%X@XI.+   . .         .   . O [.-X-X=XoXXX#XXX",
"@XXXXX@X-X+X%X XB.b.b.k.X     X k.b.b.b.XXXXXXP.o       + + + @ P.%X-XI.X     . B.%XXXXXb.b.b.l.X     X k.b.b.B. X%X%X%XXXXXXXXX",
"+XXXXXXX%X XXXXX%X@X%XK.X     X L.-X%XXX%XXX#XP.O             X B.OX%XL.o     . b.%X$X%XXX%X%XP.X     X K.%X%X%XOXXXXX%XXXXXXX$X",
"XXXXXXXXXXXXXX+XXXXXXXK.X     X B.XXOX#XXX XOXP.O             X B.%X%XL.o     X B.oX XXX@X%X+XB.X     X K.%XXXXX%XXXXXXXXX$XXXoX",
"XX#X+XXXXX$XXX#X+X#XXXB.X     X I.%XXXXX+XXX%XP.O       . . X o c.[.P.b.o     X B.OXXX%XXXXX%XL.X     X B.XX$XoXXXXXXXXXXXoX$XXX",
"XXXXXXXX%XXXXXXXOX%X XK.X     X K.+X%XXX%XXX%XP.o     X c.B.B.b.@ O O o       X m.@X#XXXoXXX#XA.X     X K.XX%XXXXXXXoX%XXXXXXXXX",
"XXXXXXXXXXXXXXXXXXXXXXK.X     o K.#XXXXXXXXX$XP.O     o L.oX@X[.O             . B.@XXXXX#XOXOXH.X     X K.XX%XXXXXXXOXXXXXXX%XXX",
"%XXXXX%X%X%X+X%XXXoXXXK.X     X F.OXoXOXoX$X%XP.O     o P.%X+XP.O             X N.oXXXoXXXXX#XF.X     X A.XXOXXX%X$X%X+X+XXXXX$X",
"XX%XOXOX X X.X XXX$XXXK.X     X K.XXXX%X.X XXXP.o     o L.XXXXP.+ . . .       . B.%XOX@X+XXX+XK.o     X B.XXXXXX X X.X XXXXX#XXX",
"XXOXXXXXP.P.L.P.L.L.I.c..     X K.oXXXXXP.L.P.b.o     o I.%X%XXXb.b.c.k.X     X N.@XoXXXOXXXXXK.X     . c.P.L.L.P.I.L.P.XXXXXXXX",
"XX%XXX XK.B.B.B.B.K.K.x.X     X K.@XXX XK.B.K.c.o     o L.XX%XXX%X%X@XP.o     . B.XXXXOXoXXX%XF.X     X x.K.K.B.H.B.B.K. XXX%XXX",
"XX+X X.XZ.F.B.F.A.H.V.x.X     X K.#XXXXXK.B.K.c.o     o P.XXOXXXXX+X+XP.o     . B.XXXXXXXXXXOXK.X     X x.D.F.K.K.B.B.K. XXXOXXX",
"XXoX.X XH.K.B.B.K.H.K.c.o . . O A.+X.X.XK.A.L.c.O . . O I.XXXXXXXX XXXL.+ . . o B.XXXXXXXXXXXXA.O X . o x.K.B.B.K.B.K.A..X XXXXX",
"L.K.K.I.A.Z.A.A.].}..XP.v.z.z.x.Z.K.I.I.{.|.[.).v.z.k.x.B.I.L.A.K.I.I.Z.B.m.m.M.J.K.K.L.J.Z.J.I.B.m.m.V.B.A.Z.V.Z.B.Z.Z.H.I.I.I.",
"H.H.D.H.B.B.H.K.XX#XoXoXK.K.F.F.Z.H.K.L.XX$XXXXXL.G.K.F.K.B.V.F.H.B.K.L..X@X$X#XK.G.S.K.K.D.F.G..X#X#X XI.H.B.F.F.F.F.F.F.F.F.F.",
"A.F.F.F.F.D.K.L. XoX@X XK.H.D.V.D.F.V.G. X%X@X XK.D.F.F.H.B.H.H.K.V.V.K.@X@X#X XK.V.V.B.D.D.H.K. X#X#XoXK.D.B.F.D.B.D.V.D.D.D.D.",
"C.C.V.C.n.m.B.B.).|. X}.B.N.B.B.B.C.V.S.[..X X{.V.C.m.M.B.B.N.B.M.C.C.V.). X X}.K.V.n.B.B.N.B.V._.{.{._.A.B.B.V.B.M.B.B.B.B.B.B.",
"o.o.X.| ..{ { ..' ' ' ' ^ ( ( ( } o.| |  . . . ._ ' _ _ ^ ~ ~ ( | X.| o.| h...| _ _ _ _ / ~ ^ ) j.h.h.h.} { ] ` _ _ _ ) ( ( ( ( ",
"n n m z s a a a 7 7 8 6 % $ % % z n n m a a 1 a ; 7 8 5 $ $ $ = f n z b a q 0 d 8 8 7 6 $ $ % * f z n n a a a a 8 7 8 5 * $ $ $ ",
"x x c h i r 0 0 > > > : % $ % = p z c h i d d d 7 9 , > % & % & p v m c i i 3 r 9 7 7 6 & $ % * p c x m d i 4 d 7 9 7 6 % % % - ",
"x x n z f a d d e 7 > : & $ % = p x x m i d r 0 > 7 > 7 % & $ = p x n z f a r d 0 7 > 6 & $ & = p x n m a d d q 7 7 7 6 ; % % - ",
"%.>.%.*.N v c c d d i r < 7 > e S >.%.1.v x v x d i i d 7 7 > > D >.T 1.C n v x d i d r > 7 > 0 W >.%.%.C v n x k d d r < > 7 > ",
"&.:.>.p.$.M J v k h d j < 7 7 e *.e.4.<.C v G F h k d d e 7 9 e +.e.4.w.Z J M G k f k d e 7 9 0 >.:.:.:.D G v M k f d d 0 9 7 7 ",
"r.w.e.p.C J M J k k f j 0 9 e e #.r.4.7.Z J J F h f h j 0 9 e e #.e.4.>.Z v J v h f f j < w < 0 <.e.7.<.J J M M k f f d 0 9 e 7 ",
"4.4.w.e.C J M v h f f d 9 7 9 e S 7.4.>.C M M F f f d d < 9 7 0 #.7.4.>.D v G v h s f d 9 9 < 0 >.7.4.>.D J F v h f f a 0 7 9 e ",
"6.6.w.p.Z C J v f f k d < 9 9 0 +.7.7.<.D F G C f f h d < 9 < e +.7.7.e.D M J F k p s d < 9 < d 1.>.7.e.I J M C f s p d 0 9 9 < ",
"q.4.e.<.Z C J v f k p g < 0 9 9 1.7.4.<.D F F C f f d d 0 0 9 e +.7.7.e.Z C J v h f f d < w < 0 >.4.7.:.D J J C k p f d e 7 9 < ",
"7.4.w.<.C C v v f f p d < 7 > 0 +.e.&.7.C v G F f p i d < 9 < e +.:.&.>.F C F x k i f d < e < r %.&.&.:.D G v v k p h d 0 7 7 < ",
"7.7.>.p.C v J J k k f d 3 e 7 9 +.7.7.7.C v J F f f p d 0 7 > e +.7.&.7.Z C J F h p f d < 7 < e 1.>.:.7.D v v M f d i d e e 7 3 ",
"4.4.r.>.L $.J v f f h r 0 9 9 0 1.>.7.,.C M v v f f f d < > w e +.,.&.>.Z G J G k s p i 0 > e r 1.7.7.<.Z J M M f f k a 0 > 9 9 ",
"&.6.q.>.L C C C k f k d 0 > 9 0 W 7.7.:.Z C F v f f k d 0 7 9 e %.q.&.4.D v v C h k d d 0 > < e >.7.&.:.D C F v f f d j 0 > 7 9 ",
"4.6.r.:.Z C C v k f f d 0 9 9 9 >.7.r.7.Z L v F f f h j 0 > e 9 %.r.&.7.Z C F D h f h r 0 7 < e %.q.&.:.D F C C f f f d e > e 7 ",
":.>.<.#.$.J C v k d d d 9 7 9 0 #.<.7.:.C J C v f f d d e > 9 e +.<.%.:.Z J v x d h d d 0 > < 0 1.>.1.1.D C v v h d f d 3 e 7 9 ",
"Z S U I x m m m d i d d < 7 0 0 J I I I n m n x p i d d 0 > e 9 F U A I x m m n d d i a 0 > < e D U U S x m m m d d d r 0 < 9 7 ",
"Z F K G c h c h a r d r < 9 9 9 v J J G m m m f i 0 d q 3 > e 9 x J D F z h l z d d r 0 9 9 3 e v J J J x m b z d a d d < 9 e 9 ",
"C J L v c c m z j d i e 9 7 9 9 M M C C x c f c i r a r e > 3 9 x L D v z h m h d a d r 9 9 < e G F D v x h z f r 0 d e < e e 7 ",
"D D J G c f c h j a d r e 9 7 0 v J $.v z c c f d d d r 9 > < 0 x L F C x z z z d d 0 r e 7 > 0 F Z F J z m z p d d r r < 7 9 9 "
};
