/* XPM */
static char *d20e33df272f433fdf210d3ba344bbd5LgndTlxYqnRwVpgO[] = {
/* columns rows colors chars-per-pixel */
"64 64 181 2 ",
"   c #8A7D4E",
".  c #8E7E56",
"X  c #917F57",
"o  c #8D814F",
"O  c #958554",
"+  c #9A8755",
"@  c #958855",
"#  c #998956",
"$  c #95845A",
"%  c #9A865C",
"&  c #97895C",
"*  c #9C8B5C",
"=  c #9E915D",
"-  c #A08D5D",
";  c #A2925F",
":  c #9E8C61",
">  c #9F9163",
",  c #A18E62",
"<  c #A49364",
"1  c #A99465",
"2  c #A79A67",
"3  c #AB9966",
"4  c #A59569",
"5  c #A99669",
"6  c #A7996B",
"7  c #AC9B6C",
"8  c #B29D6D",
"9  c #A99771",
"0  c #AD9B72",
"q  c #B29E73",
"w  c #AEA26C",
"e  c #B3A46D",
"r  c #B9A76E",
"t  c #B7A86E",
"y  c #BAA96E",
"u  c #AFA171",
"i  c #B3A373",
"p  c #B9A673",
"a  c #B6AA74",
"s  c #BBAB73",
"d  c #B4A579",
"f  c #B9A679",
"g  c #B6A879",
"h  c #BCAD79",
"j  c #BEB175",
"k  c #BEB27A",
"l  c #C1AE76",
"z  c #C0AE79",
"x  c #C3B476",
"c  c #C8B476",
"v  c #C6B877",
"b  c #C5B57B",
"n  c #C9B67B",
"m  c #C5B97C",
"M  c #CABA7D",
"N  c #D1BD7E",
"B  c #CFC07F",
"V  c #B5A780",
"C  c #B6A881",
"Z  c #C5B681",
"A  c #C9B782",
"S  c #C7BA83",
"D  c #CBBB83",
"F  c #CCBE89",
"G  c #D2BE83",
"H  c #D8BF85",
"J  c #D2BF8B",
"K  c #CEC284",
"L  c #CFC38A",
"P  c #D7C482",
"I  c #D1C185",
"U  c #D3C085",
"Y  c #D2C284",
"T  c #D3C086",
"R  c #D3C387",
"E  c #D7C384",
"W  c #D4C186",
"Q  c #D5C186",
"!  c #D4C187",
"~  c #D5C087",
"^  c #D5C287",
"/  c #D6C287",
"(  c #D4C085",
")  c #D0C587",
"_  c #D2C485",
"`  c #D4C584",
"'  c #D5C685",
"]  c #D5C786",
"[  c #D6C786",
"{  c #D4C285",
"}  c #D8C384",
"|  c #D8C485",
" . c #D8C386",
".. c #D4C987",
"X. c #D3C088",
"o. c #D4C189",
"O. c #D5C288",
"+. c #D6C388",
"@. c #D3C588",
"#. c #D0C689",
"$. c #D5C589",
"%. c #D7C489",
"&. c #D7C48A",
"*. c #D7C78B",
"=. c #D7C78C",
"-. c #D5C48A",
";. c #D8C489",
":. c #D8C58A",
">. c #D9C58B",
",. c #D3C88A",
"<. c #D4C98B",
"1. c #D6C88B",
"2. c #D6C889",
"3. c #D3CB8C",
"4. c #D2CA8C",
"5. c #D5C98D",
"6. c #D7C88D",
"7. c #D7C98C",
"8. c #D5CA8C",
"9. c #D5CB8D",
"0. c #D4CA8C",
"q. c #D6CB8D",
"w. c #D5CB8E",
"e. c #D6CA8E",
"r. c #D7CB8F",
"t. c #D4CC8D",
"y. c #D5CD8F",
"u. c #D7CC8E",
"i. c #D6CC8F",
"p. c #D7CD8F",
"a. c #D6CC8E",
"s. c #D6CE8F",
"d. c #D6CB8D",
"f. c #D9C98B",
"g. c #D8CA8B",
"h. c #D9C98D",
"j. c #D8C88D",
"k. c #D8CA8D",
"l. c #D9CB8C",
"z. c #DACA8C",
"x. c #DBCB8D",
"c. c #D9C98E",
"v. c #D9CB8E",
"b. c #D9CA8F",
"n. c #DACA8F",
"m. c #DBCB8F",
"M. c #DACC8D",
"N. c #D8CD8F",
"B. c #DBCD8E",
"V. c #DACC8F",
"C. c #DCCE8F",
"Z. c #D9CB8E",
"A. c #D4C792",
"S. c #DAC590",
"D. c #D7CD90",
"F. c #D6CC91",
"G. c #D6CE90",
"H. c #D6CA91",
"J. c #DBCB90",
"K. c #D8CC90",
"L. c #D9CD91",
"P. c #DBCD90",
"I. c #D8CE90",
"U. c #D8CE91",
"Y. c #D9CF91",
"T. c #D9CE90",
"R. c #DACF91",
"E. c #D9CD93",
"W. c #D9CF92",
"Q. c #D8CE93",
"!. c #DACE92",
"~. c #DCCC90",
"^. c #DCCC91",
"/. c #DDCF92",
"(. c #DBCD92",
"). c #DDCF98",
"_. c #DCD195",
"`. c #DDD299",
"'. c #E0CC97",
"]. c #E0D196",
"[. c #E0D399",
/* pixels */
"L L K K b j x s y x x s x x s x s x s j K K K L K L ) K D M M M l l k j K L L L L K L ) L L L L K L L K ) ) K 4.L ) L K u w a 2 ",
"a.a.R.<.D m M M M M M n n b b n M M M M _.R.N.N.R.s.R.l.c./  ./ M M m M c.(.R.3.R._.s.R.G.s.(._.a.s.a.a.M.M.4.G._.s.(.D.j a k w ",
"<.3.N...m x b b b n c n n A Z M n b b b l._.3.N.3.a.3.<.o.o.H H n b x b 3.l.s.<.l.3.3.3.a.3.3.<.l.R.N.3.C.l.C.C.3.N.c.e.a t j w ",
"a.a.N.<.D M D M M M M A b b b b n n M M l.l.l.l.N.c.f.f.>.H H H D n M M 3.N.N.3.R.3.l.3.R.R.B.B.f.f.<.f.C.C.C./.l.N.c.f.s a j w ",
"a.a.G._.4.<.c.c./ o.J H l l p l H Y I I >.' *.) M M M M n n n n n b b x M m m m M v M M B Y Y G M v M N B B B [ N.~.~.J.h s s e ",
"4.4.a.a.e.N.~.c./ o.o./ p r r r / / ;.I o.D I G m n n n n n c n n m D x M m m m v v v M B P Y P v v v v B B B B.f.c.c.>.y t s e ",
"G.t.s.a.e.N.x.c./ /  .>.r l y l / G ;.I *.G *./ n n n n n N c n b b m x M m m M n v v n B P P P n v v v B B B B x.x.x.c.l t s e ",
"4.a.s._.<.e.~.x.G I N B r l r r / G / G / G / H M n n n n n N n b m m m M m M v M n c M P  . .P M v v M l.[ l.B c.B.c.f.s t g e ",
"3.3.s.a.N.N.c.c.n n n n b n n n M n n n c n n n / /  ./  . .H H y t s y H.S.J.H.c.c.B.f./  .H / f.N.c.e.l.l.c.a.B.e.H.H.g s s e ",
"3.3.a.D.N.N.c.c.n n n n n n n b n c n c n n n n H  ./ / /  .o./ s s s a E.S.J.=.c.J.x.>.>.H o./ N.a.a.J.a.a.a.a.e.J.Q.A.s g a e ",
"R.R.Q.Q.~.~.(.~.D D D D A A A A n M M M N M M M o./ >./ / >./ / s s s h ).).`._.^.'.'.x.H S.H >.~.Q.Q.Q._.(.(.(.Q.).).A.k g g i ",
"L L L L o.o.J G b h h l b Z z b b z x k l c z c D G D G J G D G a e a a F L o.L J J J J J G G A A.o.L L L L L @.L F L F g a a u ",
"= = = = - * - - - * * : < < < < 2 < 2 1 1 < < < 1 1 1 < 1 < 1 < < ; < ; 7 1 1 < * * - * - - % - * * * ; - * + - 1 1 3 5 < < 2 : ",
"# # * & % % + * * % : : : 4 4 4 4 4 < < < < < < < < < 1 1 4 < 1 < 1 < 2 < ; < < * * * * - - - - & : * & - % * * < < 1 , < < 6 * ",
"* : * : , : : : * * : : 4 4 4 4 > > 4 > < < 4 4 4 < < < < < 4 < < < < < < < 6 4 : # : & * * , , , : , : - , - - < < 5 , 4 , < : ",
"4 4 < < 4 , , 4 < < : 4 6 6 9 6 7 6 7 7 7 7 7 7 7 7 7 6 6 6 6 6 0 7 7 7 2 7 2 2 1 < > < ; < , , , 1 1 , , 1 , 1 3 7 q 3 8 7 7 5 ",
"J.(.c.c.D b b Z A Z Z A Z b n b Z Z D b E.A.E.E.H.H.Q.A.h a a a A.H.E.5.S b m m Z Z A Z s p f l H H J H / / / >./ H ;.o.^.J.(.X.",
"*.c.f.;.b c b M A Z n A b n M b M M M x Q.H.H.H.e.a.E.A.a a h s A.e.J.<.m m m M b b b z s p p y H H  .H  . .H / H H o.) c.(.N.L ",
"J.(.(.N.M M m M Z n A n n c n c b c n c B.N.c.a.c.a.J.=.h t h s c.c.~.f.M m c n M b n n l p s p / / H  .H o./  .o.H *.X.c.c._.L ",
"@.@.*.) m m b b b b b z D n M M M M M M z.;.f.e.c.e.J.=.s t s t c.;.x.;.M M n M n n n c l l l s G H G H H G H / o.G o.I e.*.<.K ",
"B k k B m m M b s s s l o.o./ P / P ' Y | Y ` I x.x.^.e.l r s l / G P / H Y P / / P o./ G o.&.o.n n n M M M M M b b n x m m D s ",
"k j B v M m M x r e p y *.o. ./ / | | P P P ) P B.f.x.>.l y l y / H H  ./ / /  .' / / / H o.&.J c b m x c b c b M b M b M b M x ",
"m m k j m v m x s r y r / / P G P B Y P ` P ' P x.c.J.=.p r g y / P / / H P P H | / o./ / / *.X.m m m m n m M m b x m x m x b s ",
"S m K m B m D m l l l y ;./ P P P Y ` ` Y ' ' ) x.c.J.>.s r s t H M H P H G I Y G M G / I X.*.X.M D M B D M M D M M K M D M K x ",
"t.y.t.s.l.M.N.N.B.~.^.n./  ./ P f.f.l.l.N.N.B.B.c.c.J.e.s s g s n n M n M M n n y t y t N.c.J.J.N.a.a.(.N.N.N.a.c.N.c.N.N.N.~.' ",
"t.3.3.3.<.f.l.f.c.J.^.>.H H H Y f.3.a.<.c.e.;.<.c.J.J.A.h a s h b b b b n b Z b s a t t J.c.H.=.e.e.e.e.e.<.e.3.c.~.c.c.c.c.^.I ",
"Q.G.s.Y._._.(.(.'.'.'.'.n.n.:.;._.`._._.Q.(.(.Q.H.).).A.k a g g D D D D D D D A a t a g J.Q.).Q.(.(.Q.(._.(._._.(._.(.J.(.~.'.*.",
"K K K K D F X.D A F A A A M n M S S S S S D F D F D F S h i a i h h h h h z h h i e e i S F F F F F D F D F S S F D F L F L X.b ",
"> = ; ; ; ; ; ; * * % % - + + + @ & % & # # + + % + % % - , < < < < < < 4 < < < : % % + - + % + % + % % & & @ & > > > < < < ; # ",
"4 4 < < 2 1 5 4 : , , , - - - - = > : * > = , - , + - - 1 5 7 5 < > < < < < < 6 , , , , - % - - - - , * : : * > 2 2 2 4 < 1 6 - ",
"< , , , < , , : : : X : % % + + & & & * * * - - , % - - < , , , > < < 4 4 4 4 , X , % , * * - - % : % : & : & & > > : 4 < < 4 * ",
"d i d d e i i q 9 7 0 9 5 8 7 7 7 0 6 6 5 < 1 , 1 1 1 1 i q i q w w 7 q q q q q 8 7 5 8 3 3 3 5 0 7 0 6 9 0 7 0 u i u u 0 7 7 < ",
"Q.D.(.(.(.(.J.(.).Q.(.Q.Q.Q.D._.H.Q.Q.D.k s y y Z D D A '.S.(.(.(.(.~.N.;./ >.>.>.'.S.>.S.H >.>.'.).).).(.(._.N.~._.Q.S.k g s s ",
"e.a.a.a.a.N.a.N.e.a.c.e.N.a.4.a.e.(.(.3.y t y y b n n b ^.n.n.f.f.3.l...| / H H H H H H H H  .J >.=.5.4.3.l.....<.c.c.*.s a p p ",
"e.a.c.a.c.N.c.N.(.B.N.(.(.(.N.N.e.D.s.) j w e y b b c n n.n.c.c.R.R.M.N.c.;.;./ H / H H H >.H o.~.a.e.(.l.B.C.M.B.~.(.c.l s s g ",
"4.@.4.4.@.*.<.*.I *.*.' ) ) *.@.<.e...) v j j x D M M M >.n.;.*.L ) ) K K D G G G J H A H A G A J.e.a.e...) P B ) ' *.X.s p p p ",
"j m m m b b b n n b n m b n b b x j B m ..C.C./.I Y P D | / / Y m m m m b b n n n n n n l y s s =.<.x.;.M c n v n b c A p s s f ",
"m m m m n A M M n n n n n n n b M v m m 3.l.l...' / ;.' ' Y / P m k m m b m m b n n Z n s e r y c.c.C.z.M c v c b b c Z p l l s ",
"b m m m c c n c n c n n c n n n j v m m 3.R.B.N.Y Y | P | /  ./ k B b m m m n n c M M c l r p y f.z.x.| M v v M M c c n l q q p ",
"M K D M N A N N A N N M N N M D K B K m N.<.f.f.Y M / D G G H A B k m m m b n n M D N n l l c z ;.f.z.:.B n N M G A n n l l l f ",
"C.l.B.c.' / / / / / >. ./  . . .s.s.G.s.t.4.(.a.n n n n n n n n k B k v n M n n H H >.>.H S.S.>.Y P P P P  .>./  .o./ / s y p 8 ",
"l.l.c.c./ P / G H H H H H / J H t.3.y.y.G.G.J.N.b b b b n n n n B k m v n n n n J G H J H H J H P Y / / / P / H G G J J s l l y ",
"_.(.~.~.>.*.;.f.H S.>.n.>.>.>.n.W.W.`._.).).).(.D D D D D A A n M M m D n M A D '.J S.>.S.S.S.>.>.>.;.>.;.*.>.>.x.S.S.>.z s r 8 ",
"M m D m b l b b z n c c b b b z S S C K Z Z Z Z p i a a h h h l l s l s l l l s z z n Z z Z Z n z b z b l b z l z l z z p e e 8 ",
"; = ; * + + # + 1 < ; - < ; ; < # # # @ + O # @ * # # # ; 1 ; < ; ; ; ; ; ; ; ; ; ; 1 < - 1 1 ; + + + + - + + - * + * * - < < - ",
"< 1 6 4 : , , : < < 1 < < < < < : = : : , < , ; < * * < < 3 1 < 1 1 1 6 2 2 2 6 1 1 4 < 1 1 4 < , , , , , , - - - * * * 1 5 1 * ",
"> > < : % $ % + 4 , , , , > > < & % % + % * + & O O & % > < 4 < < < < > < < < < 1 , 4 , < , < < - - - X % % % % % + % $ < < < * ",
"h g h g i i i d f d f g h i p g i i e q 8 7 8 7 i i i i 0 7 7 7 w u w 7 7 7 7 7 q q q q q i 0 q 8 q q q q i i d d i d i C g i u ",
"Q.Q.(.`./._._._._._.(.).(.~._.~.].C.]._.M M D m ~.(.'.(.k s h h Z S D Z s s p r A D A D F D D D H n.>.n.'.].].(.`.).`.Q.`.(.`.4.",
"4.4.<.a.t.l.l.M.<.a.=.e.J.c.2.l.t...M...v v m v N.N.J.S.s e g s m m m b p s y l A A b n b b c x H N N H 2.c.c.a.H.a.a.4.(.4.N.K ",
"e.e.N.N.a.t.N.R._._._.N.~.B.l.l.t...M...m v m v c.c.J.A.h t a t j v c x r r r e b b x b n m n n | | | z.~._._.~.(.(.c.e.B.c._.Y ",
"....<...` K K L D S D D J.B.N.M.M.l.t.t.K B K B N.N.~.c.j a j s K K D K x b b b M G G M M n n c N N N N I I I I I I I @.f.*.N.M ",
"K I I K M m m b e a e a 5.e.e.e.3.g.M.t...3.N.l.N.e.~.c.g t s s 4.3.l.C.X.*.*.;.H ;.;./ N c n n n c b n c b b b b b M M / I ;.D ",
"X.@.I K M v x b s s a a H.(.N.a.t.R.M.M.R.R.l.N.<.a.x.<.s t s s 3.3.l.M.I ' I / G o.;.G n n c N c M M m n M m n m b n n G / >.M ",
"I I I B M m m m t a s s D.a.(._.s.R.t...M.M.3.l.N.N.(.e.x s h s R.R.l.M.Y ) Y Y ' ' / H n c c c n n v c b b c n M b M M I H ;.M ",
"*.*.<.) B B B D s x h a 5.K K K K ..) ..3.t.e.a.a.<.N.e.s t s y 3...3.R.P <.I *.N G N M N N G G B K K K K K K K I D I D =.*.x.G ",
"<.c.N.B.B.N.(.J.D m Z Z M m m x k m j m 4.4.e.c.J.=.).H.g s z s <.l.e.a.(.(.N.x.n M b n / >.J H _.G.G.G.R._._.s._.l._.f.C.B.~.*.",
"c.(.x.J.B.c.e.e.b Z A Z b b b m S Z m K 4.D.H.e.H.A.(.H.s p h f e.a.H.H.c.c.c.c.b n c n H S.H >.4.4.4.t.3.3.3.3.<.<.N.<.N.f.c.L ",
"~.(.Q.~.~.~.J.(.D D A A D D D M m Z m F E.(.).[.).).).S.b s l f Q.(.).Q.Q.Q.(.(.D D D D >.J S.J `.Q.Q.`._._._._.]._.].R._._._.@.",
"Z b k b b x k b i a i p r t t s e a u a h h h h Z b Z b 7 7 7 3 b C k Z Z k Z b s i p s f l l f a a a a j k h j j a k j k k m a ",
": > = = * * * ; 1 , , 1 1 3 3 ; + % # # + # + + < < 1 1 % - - % > = > = : = = = = = = = * + % $ o o   o X $ & # # O @ O = = > @ ",
"4 4 6 4 4 4 6 1 5 , 1 1 3 3 3 8 * : * * - - - < 5 7 7 7 , , - , 4 < 4 6 4 < < < 2 6 2 4 : : : : $ o $ $ : , , * ; * < : 4 6 6 > ",
"4 > > > 4 4 5 9 5 , 1 1 3 3 3 3 , : * % * * % + 5 5 1 5 - % % : , < 4 4 > > 2 > > > < < : % : : $ . . $ X : : : + $ : : > > 6 : ",
"C C d d q 0 9 0 q 9 8 8 q r 8 8 7 5 5 5 i i q q f f f f q q 9 q 0 0 u u d d d a g u d g 0 0 d 0 9 9 9 9 q q q q q q d 0 0 9 9 > "
};
